<?xml version="1.0" encoding="UTF-8" standalone="no"?>
<!DOCTYPE svg PUBLIC "-//W3C//DTD SVG 1.1//EN"
 "http://www.w3.org/Graphics/SVG/1.1/DTD/svg11.dtd">
<!-- Generated by graphviz version 2.40.1 (20161225.0304)
 -->
<!-- Title: finite_state_machine Pages: 1 -->
<svg width="1280pt" height="720pt"
 viewBox="0.00 0.00 1279.97 720.00" xmlns="http://www.w3.org/2000/svg" xmlns:xlink="http://www.w3.org/1999/xlink">
<g id="graph0" class="graph" transform="scale(.9573 .9573) rotate(0) translate(4 748.0881)">
<title>finite_state_machine</title>
<polygon fill="#ffffff" stroke="transparent" points="-4,4 -4,-748.0881 1333.0147,-748.0881 1333.0147,4 -4,4"/>
<!-- 113107 -->
<g id="node1" class="node">
<title>113107</title>
<ellipse fill="none" stroke="#000000" cx="138.0073" cy="-571.2661" rx="40.0147" ry="40.0147"/>
<text text-anchor="middle" x="138.0073" y="-567.0661" font-family="Times,serif" font-size="14.00" fill="#000000">113107</text>
</g>
<!-- 116882 -->
<g id="node2" class="node">
<title>116882</title>
<ellipse fill="none" stroke="#000000" cx="138.0073" cy="-438.4514" rx="40.0147" ry="40.0147"/>
<text text-anchor="middle" x="138.0073" y="-434.2514" font-family="Times,serif" font-size="14.00" fill="#000000">116882</text>
</g>
<!-- 113107&#45;&gt;116882 -->
<g id="edge1" class="edge">
<title>113107&#45;&gt;116882</title>
<path fill="none" stroke="#000000" d="M138.0073,-531.0569C138.0073,-517.6635 138.0073,-502.577 138.0073,-488.5298"/>
<polygon fill="#000000" stroke="#000000" points="141.5074,-488.5239 138.0073,-478.5239 134.5074,-488.524 141.5074,-488.5239"/>
<text text-anchor="middle" x="141.5073" y="-500.6587" font-family="Times,serif" font-size="14.00" fill="#000000">4</text>
</g>
<!-- 117951 -->
<g id="node6" class="node">
<title>117951</title>
<ellipse fill="none" stroke="#000000" cx="236.0073" cy="-305.6367" rx="40.0147" ry="40.0147"/>
<text text-anchor="middle" x="236.0073" y="-301.4367" font-family="Times,serif" font-size="14.00" fill="#000000">117951</text>
</g>
<!-- 116882&#45;&gt;117951 -->
<g id="edge4" class="edge">
<title>116882&#45;&gt;117951</title>
<path fill="none" stroke="#000000" d="M161.9808,-405.9613C175.2096,-388.033 191.765,-365.5963 205.8631,-346.4898"/>
<polygon fill="#000000" stroke="#000000" points="208.8206,-348.3764 211.9417,-338.2517 203.188,-344.2203 208.8206,-348.3764"/>
<text text-anchor="middle" x="196.5073" y="-367.8441" font-family="Times,serif" font-size="14.00" fill="#000000">6</text>
</g>
<!-- 113476 -->
<g id="node3" class="node">
<title>113476</title>
<ellipse fill="none" stroke="#000000" cx="732.0073" cy="-704.0808" rx="40.0147" ry="40.0147"/>
<text text-anchor="middle" x="732.0073" y="-699.8808" font-family="Times,serif" font-size="14.00" fill="#000000">113476</text>
</g>
<!-- 129011 -->
<g id="node4" class="node">
<title>129011</title>
<ellipse fill="none" stroke="#000000" cx="665.0073" cy="-571.2661" rx="40.0147" ry="40.0147"/>
<text text-anchor="middle" x="665.0073" y="-567.0661" font-family="Times,serif" font-size="14.00" fill="#000000">129011</text>
</g>
<!-- 113476&#45;&gt;129011 -->
<g id="edge2" class="edge">
<title>113476&#45;&gt;129011</title>
<path fill="none" stroke="#000000" d="M713.8762,-668.1392C705.8322,-652.1935 696.2788,-633.2558 687.7619,-616.3725"/>
<polygon fill="#000000" stroke="#000000" points="690.7819,-614.5882 683.153,-607.2364 684.5321,-617.7411 690.7819,-614.5882"/>
<text text-anchor="middle" x="706.5073" y="-633.4734" font-family="Times,serif" font-size="14.00" fill="#000000">6</text>
</g>
<!-- 116319 -->
<g id="node5" class="node">
<title>116319</title>
<ellipse fill="none" stroke="#000000" cx="799.0073" cy="-571.2661" rx="40.0147" ry="40.0147"/>
<text text-anchor="middle" x="799.0073" y="-567.0661" font-family="Times,serif" font-size="14.00" fill="#000000">116319</text>
</g>
<!-- 113476&#45;&gt;116319 -->
<g id="edge3" class="edge">
<title>113476&#45;&gt;116319</title>
<path fill="none" stroke="#000000" d="M750.1385,-668.1392C758.1825,-652.1935 767.7359,-633.2558 776.2528,-616.3725"/>
<polygon fill="#000000" stroke="#000000" points="779.4826,-617.7411 780.8617,-607.2364 773.2328,-614.5882 779.4826,-617.7411"/>
<text text-anchor="middle" x="773.5073" y="-633.4734" font-family="Times,serif" font-size="14.00" fill="#000000">6</text>
</g>
<!-- 116394 -->
<g id="node12" class="node">
<title>116394</title>
<ellipse fill="none" stroke="#000000" cx="628.0073" cy="-438.4514" rx="40.0147" ry="40.0147"/>
<text text-anchor="middle" x="628.0073" y="-434.2514" font-family="Times,serif" font-size="14.00" fill="#000000">116394</text>
</g>
<!-- 129011&#45;&gt;116394 -->
<g id="edge8" class="edge">
<title>129011&#45;&gt;116394</title>
<path fill="none" stroke="#000000" d="M641.9188,-538.1873C637.513,-530.3432 633.5027,-521.7722 631.0073,-513.2587 628.7201,-505.4553 627.3716,-496.9981 626.6397,-488.6728"/>
<polygon fill="#000000" stroke="#000000" points="630.13,-488.4058 626.0309,-478.636 623.1428,-488.8296 630.13,-488.4058"/>
<text text-anchor="middle" x="634.5073" y="-500.6587" font-family="Times,serif" font-size="14.00" fill="#000000">4</text>
</g>
<!-- 117943 -->
<g id="node13" class="node">
<title>117943</title>
<ellipse fill="none" stroke="#000000" cx="334.0073" cy="-438.4514" rx="40.0147" ry="40.0147"/>
<text text-anchor="middle" x="334.0073" y="-434.2514" font-family="Times,serif" font-size="14.00" fill="#000000">117943</text>
</g>
<!-- 116319&#45;&gt;117943 -->
<g id="edge9" class="edge">
<title>116319&#45;&gt;117943</title>
<path fill="none" stroke="#000000" d="M763.9188,-552.022C748.9274,-544.5266 730.996,-536.4962 714.0073,-531.2587 642.8277,-509.3145 450.9753,-508.9293 383.0073,-478.4587 378.9518,-476.6406 374.954,-474.3976 371.097,-471.9093"/>
<polygon fill="#000000" stroke="#000000" points="373.101,-469.0398 362.9106,-466.1403 369.0687,-474.7617 373.101,-469.0398"/>
<text text-anchor="middle" x="597.5073" y="-500.6587" font-family="Times,serif" font-size="14.00" fill="#000000">4</text>
</g>
<!-- 116726 -->
<g id="node15" class="node">
<title>116726</title>
<ellipse fill="none" stroke="#000000" cx="432.0073" cy="-438.4514" rx="40.0147" ry="40.0147"/>
<text text-anchor="middle" x="432.0073" y="-434.2514" font-family="Times,serif" font-size="14.00" fill="#000000">116726</text>
</g>
<!-- 116319&#45;&gt;116726 -->
<g id="edge10" class="edge">
<title>116319&#45;&gt;116726</title>
<path fill="none" stroke="#000000" d="M763.0054,-553.2233C748.0218,-546.0028 730.3414,-537.8521 714.0073,-531.2587 690.9389,-521.9469 683.3035,-524.2926 661.0073,-513.2587 649.0093,-507.3211 648.5658,-501.0949 636.0073,-496.4587 570.9473,-472.4406 544.8803,-505.4758 481.0073,-478.4587 476.9141,-476.7274 472.8904,-474.5436 469.0167,-472.0938"/>
<polygon fill="#000000" stroke="#000000" points="471.0138,-469.2195 460.8071,-466.3779 467.014,-474.9642 471.0138,-469.2195"/>
<text text-anchor="middle" x="664.5073" y="-500.6587" font-family="Times,serif" font-size="14.00" fill="#000000">4</text>
</g>
<!-- 116343 -->
<g id="node16" class="node">
<title>116343</title>
<ellipse fill="none" stroke="#000000" cx="530.0073" cy="-438.4514" rx="40.0147" ry="40.0147"/>
<text text-anchor="middle" x="530.0073" y="-434.2514" font-family="Times,serif" font-size="14.00" fill="#000000">116343</text>
</g>
<!-- 116319&#45;&gt;116343 -->
<g id="edge11" class="edge">
<title>116319&#45;&gt;116343</title>
<path fill="none" stroke="#000000" d="M766.0188,-548.245C740.594,-531.5267 703.9815,-509.6143 669.0073,-496.4587 630.8269,-482.0971 615.8958,-495.8725 579.0073,-478.4587 575.1527,-476.6391 571.3406,-474.4516 567.6467,-472.0497"/>
<polygon fill="#000000" stroke="#000000" points="569.4626,-469.047 559.2778,-466.128 565.4193,-474.7612 569.4626,-469.047"/>
<text text-anchor="middle" x="710.5073" y="-500.6587" font-family="Times,serif" font-size="14.00" fill="#000000">4</text>
</g>
<!-- 116327 -->
<g id="node17" class="node">
<title>116327</title>
<ellipse fill="none" stroke="#000000" cx="726.0073" cy="-438.4514" rx="40.0147" ry="40.0147"/>
<text text-anchor="middle" x="726.0073" y="-434.2514" font-family="Times,serif" font-size="14.00" fill="#000000">116327</text>
</g>
<!-- 116319&#45;&gt;116327 -->
<g id="edge12" class="edge">
<title>116319&#45;&gt;116327</title>
<path fill="none" stroke="#000000" d="M779.6363,-536.0229C770.6439,-519.6623 759.8577,-500.038 750.324,-482.6927"/>
<polygon fill="#000000" stroke="#000000" points="753.3529,-480.9369 745.4689,-473.8593 747.2184,-484.3087 753.3529,-480.9369"/>
<text text-anchor="middle" x="770.5073" y="-500.6587" font-family="Times,serif" font-size="14.00" fill="#000000">4</text>
</g>
<!-- 117536 -->
<g id="node18" class="node">
<title>117536</title>
<ellipse fill="none" stroke="#000000" cx="824.0073" cy="-438.4514" rx="40.0147" ry="40.0147"/>
<text text-anchor="middle" x="824.0073" y="-434.2514" font-family="Times,serif" font-size="14.00" fill="#000000">117536</text>
</g>
<!-- 116319&#45;&gt;117536 -->
<g id="edge13" class="edge">
<title>116319&#45;&gt;117536</title>
<path fill="none" stroke="#000000" d="M806.4405,-531.7769C809.0117,-518.1171 811.9272,-502.6282 814.6337,-488.2495"/>
<polygon fill="#000000" stroke="#000000" points="818.1494,-488.4927 816.5597,-478.0178 811.2702,-487.1977 818.1494,-488.4927"/>
<text text-anchor="middle" x="816.5073" y="-500.6587" font-family="Times,serif" font-size="14.00" fill="#000000">4</text>
</g>
<!-- 116572 -->
<g id="node19" class="node">
<title>116572</title>
<ellipse fill="none" stroke="#000000" cx="922.0073" cy="-438.4514" rx="40.0147" ry="40.0147"/>
<text text-anchor="middle" x="922.0073" y="-434.2514" font-family="Times,serif" font-size="14.00" fill="#000000">116572</text>
</g>
<!-- 116319&#45;&gt;116572 -->
<g id="edge14" class="edge">
<title>116319&#45;&gt;116572</title>
<path fill="none" stroke="#000000" d="M826.305,-541.7902C844.4588,-522.1878 868.4425,-496.2904 887.8586,-475.325"/>
<polygon fill="#000000" stroke="#000000" points="890.5591,-477.5601 894.786,-467.8449 885.4232,-472.8037 890.5591,-477.5601"/>
<text text-anchor="middle" x="871.5073" y="-500.6587" font-family="Times,serif" font-size="14.00" fill="#000000">4</text>
</g>
<!-- 116416 -->
<g id="node20" class="node">
<title>116416</title>
<ellipse fill="none" stroke="#000000" cx="846.0073" cy="-305.6367" rx="40.0147" ry="40.0147"/>
<text text-anchor="middle" x="846.0073" y="-301.4367" font-family="Times,serif" font-size="14.00" fill="#000000">116416</text>
</g>
<!-- 116319&#45;&gt;116416 -->
<g id="edge15" class="edge">
<title>116319&#45;&gt;116416</title>
<path fill="none" stroke="#000000" d="M829.1406,-544.4923C835.1711,-539.7687 841.6216,-535.1309 848.0073,-531.2587 898.8765,-500.413 938.2729,-528.1336 971.0073,-478.4587 990.5752,-448.7643 986.9882,-430.2131 971.0073,-398.4441 962.0039,-380.5456 921.5074,-352.2529 889.0133,-331.6073"/>
<polygon fill="#000000" stroke="#000000" points="890.8507,-328.6283 880.5219,-326.2686 887.1248,-334.5543 890.8507,-328.6283"/>
<text text-anchor="middle" x="987.5073" y="-434.2514" font-family="Times,serif" font-size="14.00" fill="#000000">4</text>
</g>
<!-- 117889 -->
<g id="node21" class="node">
<title>117889</title>
<ellipse fill="none" stroke="#000000" cx="1063.0073" cy="-438.4514" rx="40.0147" ry="40.0147"/>
<text text-anchor="middle" x="1063.0073" y="-434.2514" font-family="Times,serif" font-size="14.00" fill="#000000">117889</text>
</g>
<!-- 116319&#45;&gt;117889 -->
<g id="edge16" class="edge">
<title>116319&#45;&gt;117889</title>
<path fill="none" stroke="#000000" d="M827.7922,-543.3042C834.0415,-538.5695 840.9177,-534.2313 848.0073,-531.2587 915.6306,-502.9059 949.1473,-551.0133 1012.0073,-513.2587 1023.8188,-506.1646 1033.521,-495.158 1041.1736,-483.75"/>
<polygon fill="#000000" stroke="#000000" points="1044.3047,-485.3434 1046.627,-475.0062 1038.3652,-481.639 1044.3047,-485.3434"/>
<text text-anchor="middle" x="1033.5073" y="-500.6587" font-family="Times,serif" font-size="14.00" fill="#000000">4</text>
</g>
<!-- 117901 -->
<g id="node22" class="node">
<title>117901</title>
<ellipse fill="none" stroke="#000000" cx="1161.0073" cy="-438.4514" rx="40.0147" ry="40.0147"/>
<text text-anchor="middle" x="1161.0073" y="-434.2514" font-family="Times,serif" font-size="14.00" fill="#000000">117901</text>
</g>
<!-- 116319&#45;&gt;117901 -->
<g id="edge17" class="edge">
<title>116319&#45;&gt;117901</title>
<path fill="none" stroke="#000000" d="M827.7542,-543.2124C834.0066,-538.4852 840.8936,-534.1733 848.0073,-531.2587 927.7259,-498.5971 958.0795,-536.5996 1041.0073,-513.2587 1074.8351,-503.7376 1082.4253,-497.429 1112.0073,-478.4587 1115.5434,-476.1911 1119.1168,-473.708 1122.6372,-471.1243"/>
<polygon fill="#000000" stroke="#000000" points="1124.8826,-473.8137 1130.7134,-464.9676 1120.6388,-468.2468 1124.8826,-473.8137"/>
<text text-anchor="middle" x="1085.5073" y="-500.6587" font-family="Times,serif" font-size="14.00" fill="#000000">4</text>
</g>
<!-- 116378 -->
<g id="node7" class="node">
<title>116378</title>
<ellipse fill="none" stroke="#000000" cx="726.0073" cy="-305.6367" rx="40.0147" ry="40.0147"/>
<text text-anchor="middle" x="726.0073" y="-301.4367" font-family="Times,serif" font-size="14.00" fill="#000000">116378</text>
</g>
<!-- 113034 -->
<g id="node8" class="node">
<title>113034</title>
<ellipse fill="none" stroke="#000000" cx="121.0073" cy="-704.0808" rx="40.0147" ry="40.0147"/>
<text text-anchor="middle" x="121.0073" y="-699.8808" font-family="Times,serif" font-size="14.00" fill="#000000">113034</text>
</g>
<!-- 113042 -->
<g id="node9" class="node">
<title>113042</title>
<ellipse fill="none" stroke="#000000" cx="40.0073" cy="-571.2661" rx="40.0147" ry="40.0147"/>
<text text-anchor="middle" x="40.0073" y="-567.0661" font-family="Times,serif" font-size="14.00" fill="#000000">113042</text>
</g>
<!-- 113034&#45;&gt;113042 -->
<g id="edge5" class="edge">
<title>113034&#45;&gt;113042</title>
<path fill="none" stroke="#000000" d="M100.1478,-669.8777C89.8354,-652.9686 77.2814,-632.384 66.3162,-614.4044"/>
<polygon fill="#000000" stroke="#000000" points="69.2727,-612.53 61.0777,-605.8149 63.2964,-616.1748 69.2727,-612.53"/>
<text text-anchor="middle" x="89.5073" y="-633.4734" font-family="Times,serif" font-size="14.00" fill="#000000">6</text>
</g>
<!-- 115045 -->
<g id="node10" class="node">
<title>115045</title>
<ellipse fill="none" stroke="#000000" cx="260.0073" cy="-571.2661" rx="40.0147" ry="40.0147"/>
<text text-anchor="middle" x="260.0073" y="-567.0661" font-family="Times,serif" font-size="14.00" fill="#000000">115045</text>
</g>
<!-- 113034&#45;&gt;115045 -->
<g id="edge6" class="edge">
<title>113034&#45;&gt;115045</title>
<path fill="none" stroke="#000000" d="M150.1463,-676.2385C171.4601,-655.8731 200.5239,-628.1025 223.4045,-606.2402"/>
<polygon fill="#000000" stroke="#000000" points="226.0946,-608.5107 230.9067,-599.0717 221.2587,-603.4496 226.0946,-608.5107"/>
<text text-anchor="middle" x="202.5073" y="-633.4734" font-family="Times,serif" font-size="14.00" fill="#000000">6</text>
</g>
<!-- 113417 -->
<g id="node11" class="node">
<title>113417</title>
<ellipse fill="none" stroke="#000000" cx="40.0073" cy="-438.4514" rx="40.0147" ry="40.0147"/>
<text text-anchor="middle" x="40.0073" y="-434.2514" font-family="Times,serif" font-size="14.00" fill="#000000">113417</text>
</g>
<!-- 113042&#45;&gt;113417 -->
<g id="edge7" class="edge">
<title>113042&#45;&gt;113417</title>
<path fill="none" stroke="#000000" d="M40.0073,-531.0569C40.0073,-517.6635 40.0073,-502.577 40.0073,-488.5298"/>
<polygon fill="#000000" stroke="#000000" points="43.5074,-488.5239 40.0073,-478.5239 36.5074,-488.524 43.5074,-488.5239"/>
<text text-anchor="middle" x="43.5073" y="-500.6587" font-family="Times,serif" font-size="14.00" fill="#000000">6</text>
</g>
<!-- 115045&#45;&gt;117943 -->
<g id="edge23" class="edge">
<title>115045&#45;&gt;117943</title>
<path fill="none" stroke="#000000" d="M279.6437,-536.0229C288.7593,-519.6623 299.6933,-500.038 309.3575,-482.6927"/>
<polygon fill="#000000" stroke="#000000" points="312.4694,-484.2984 314.2792,-473.8593 306.3545,-480.8914 312.4694,-484.2984"/>
<text text-anchor="middle" x="305.5073" y="-500.6587" font-family="Times,serif" font-size="14.00" fill="#000000">4</text>
</g>
<!-- 116394&#45;&gt;116416 -->
<g id="edge21" class="edge">
<title>116394&#45;&gt;116416</title>
<path fill="none" stroke="#000000" d="M655.878,-409.125C671.911,-393.7154 693.1653,-375.5997 715.0073,-363.6441 739.429,-350.2764 749.3892,-356.5446 775.0073,-345.6441 784.2834,-341.6971 793.8958,-336.8481 802.9389,-331.9049"/>
<polygon fill="#000000" stroke="#000000" points="804.7475,-334.9035 811.7586,-326.9603 801.3243,-328.7976 804.7475,-334.9035"/>
<text text-anchor="middle" x="718.5073" y="-367.8441" font-family="Times,serif" font-size="14.00" fill="#000000">4</text>
</g>
<!-- 117935 -->
<g id="node30" class="node">
<title>117935</title>
<ellipse fill="none" stroke="#000000" cx="782.0073" cy="-172.822" rx="40.0147" ry="40.0147"/>
<text text-anchor="middle" x="782.0073" y="-168.622" font-family="Times,serif" font-size="14.00" fill="#000000">117935</text>
</g>
<!-- 116394&#45;&gt;117935 -->
<g id="edge20" class="edge">
<title>116394&#45;&gt;117935</title>
<path fill="none" stroke="#000000" d="M630.5779,-398.284C634.5302,-361.3618 644.5592,-306.3446 670.0073,-265.6294 687.1131,-238.2614 715.0538,-215.0885 738.7477,-198.7432"/>
<polygon fill="#000000" stroke="#000000" points="740.9022,-201.5126 747.2569,-193.0351 737.0025,-195.6994 740.9022,-201.5126"/>
<text text-anchor="middle" x="673.5073" y="-301.4367" font-family="Times,serif" font-size="14.00" fill="#000000">4</text>
</g>
<!-- 116441 -->
<g id="node14" class="node">
<title>116441</title>
<ellipse fill="none" stroke="#000000" cx="1063.0073" cy="-305.6367" rx="40.0147" ry="40.0147"/>
<text text-anchor="middle" x="1063.0073" y="-301.4367" font-family="Times,serif" font-size="14.00" fill="#000000">116441</text>
</g>
<!-- 116343&#45;&gt;117951 -->
<g id="edge19" class="edge">
<title>116343&#45;&gt;117951</title>
<path fill="none" stroke="#000000" d="M500.2738,-411.6596C494.1556,-406.884 487.5706,-402.2317 481.0073,-398.4441 416.9291,-361.465 335.3713,-334.0106 284.4146,-318.9059"/>
<polygon fill="#000000" stroke="#000000" points="285.2259,-315.4966 274.6456,-316.0505 283.262,-322.2155 285.2259,-315.4966"/>
<text text-anchor="middle" x="447.5073" y="-367.8441" font-family="Times,serif" font-size="14.00" fill="#000000">4</text>
</g>
<!-- 116327&#45;&gt;116378 -->
<g id="edge22" class="edge">
<title>116327&#45;&gt;116378</title>
<path fill="none" stroke="#000000" d="M726.0073,-398.2422C726.0073,-384.8489 726.0073,-369.7623 726.0073,-355.7151"/>
<polygon fill="#000000" stroke="#000000" points="729.5074,-355.7092 726.0073,-345.7093 722.5074,-355.7093 729.5074,-355.7092"/>
<text text-anchor="middle" x="729.5073" y="-367.8441" font-family="Times,serif" font-size="14.00" fill="#000000">4</text>
</g>
<!-- 117927 -->
<g id="node31" class="node">
<title>117927</title>
<ellipse fill="none" stroke="#000000" cx="965.0073" cy="-305.6367" rx="40.0147" ry="40.0147"/>
<text text-anchor="middle" x="965.0073" y="-301.4367" font-family="Times,serif" font-size="14.00" fill="#000000">117927</text>
</g>
<!-- 116572&#45;&gt;117927 -->
<g id="edge25" class="edge">
<title>116572&#45;&gt;117927</title>
<path fill="none" stroke="#000000" d="M934.4447,-400.0359C939.1245,-385.5814 944.5054,-368.9612 949.4353,-353.7342"/>
<polygon fill="#000000" stroke="#000000" points="952.8475,-354.5578 952.5979,-343.9659 946.1878,-352.4016 952.8475,-354.5578"/>
<text text-anchor="middle" x="949.5073" y="-367.8441" font-family="Times,serif" font-size="14.00" fill="#000000">4</text>
</g>
<!-- 117889&#45;&gt;116441 -->
<g id="edge27" class="edge">
<title>117889&#45;&gt;116441</title>
<path fill="none" stroke="#000000" d="M1063.0073,-398.2422C1063.0073,-384.8489 1063.0073,-369.7623 1063.0073,-355.7151"/>
<polygon fill="#000000" stroke="#000000" points="1066.5074,-355.7092 1063.0073,-345.7093 1059.5074,-355.7093 1066.5074,-355.7092"/>
<text text-anchor="middle" x="1066.5073" y="-367.8441" font-family="Times,serif" font-size="14.00" fill="#000000">4</text>
</g>
<!-- 117897 -->
<g id="node33" class="node">
<title>117897</title>
<ellipse fill="none" stroke="#000000" cx="1161.0073" cy="-305.6367" rx="40.0147" ry="40.0147"/>
<text text-anchor="middle" x="1161.0073" y="-301.4367" font-family="Times,serif" font-size="14.00" fill="#000000">117897</text>
</g>
<!-- 117889&#45;&gt;117897 -->
<g id="edge28" class="edge">
<title>117889&#45;&gt;117897</title>
<path fill="none" stroke="#000000" d="M1086.9808,-405.9613C1100.2096,-388.033 1116.765,-365.5963 1130.8631,-346.4898"/>
<polygon fill="#000000" stroke="#000000" points="1133.8206,-348.3764 1136.9417,-338.2517 1128.188,-344.2203 1133.8206,-348.3764"/>
<text text-anchor="middle" x="1120.5073" y="-367.8441" font-family="Times,serif" font-size="14.00" fill="#000000">4</text>
</g>
<!-- 117960 -->
<g id="node23" class="node">
<title>117960</title>
<ellipse fill="none" stroke="#000000" cx="782.0073" cy="-40.0073" rx="40.0147" ry="40.0147"/>
<text text-anchor="middle" x="782.0073" y="-35.8073" font-family="Times,serif" font-size="14.00" fill="#000000">117960</text>
</g>
<!-- 113450 -->
<g id="node24" class="node">
<title>113450</title>
<ellipse fill="none" stroke="#000000" cx="897.0073" cy="-704.0808" rx="40.0147" ry="40.0147"/>
<text text-anchor="middle" x="897.0073" y="-699.8808" font-family="Times,serif" font-size="14.00" fill="#000000">113450</text>
</g>
<!-- 117366 -->
<g id="node25" class="node">
<title>117366</title>
<ellipse fill="none" stroke="#000000" cx="897.0073" cy="-571.2661" rx="40.0147" ry="40.0147"/>
<text text-anchor="middle" x="897.0073" y="-567.0661" font-family="Times,serif" font-size="14.00" fill="#000000">117366</text>
</g>
<!-- 113450&#45;&gt;117366 -->
<g id="edge18" class="edge">
<title>113450&#45;&gt;117366</title>
<path fill="none" stroke="#000000" d="M897.0073,-663.8715C897.0073,-650.4782 897.0073,-635.3917 897.0073,-621.3445"/>
<polygon fill="#000000" stroke="#000000" points="900.5074,-621.3386 897.0073,-611.3386 893.5074,-621.3387 900.5074,-621.3386"/>
<text text-anchor="middle" x="900.5073" y="-633.4734" font-family="Times,serif" font-size="14.00" fill="#000000">4</text>
</g>
<!-- 116653 -->
<g id="node26" class="node">
<title>116653</title>
<ellipse fill="none" stroke="#000000" cx="995.0073" cy="-704.0808" rx="40.0147" ry="40.0147"/>
<text text-anchor="middle" x="995.0073" y="-699.8808" font-family="Times,serif" font-size="14.00" fill="#000000">116653</text>
</g>
<!-- 113468 -->
<g id="node27" class="node">
<title>113468</title>
<ellipse fill="none" stroke="#000000" cx="1093.0073" cy="-704.0808" rx="40.0147" ry="40.0147"/>
<text text-anchor="middle" x="1093.0073" y="-699.8808" font-family="Times,serif" font-size="14.00" fill="#000000">113468</text>
</g>
<!-- 113093 -->
<g id="node28" class="node">
<title>113093</title>
<ellipse fill="none" stroke="#000000" cx="1191.0073" cy="-704.0808" rx="40.0147" ry="40.0147"/>
<text text-anchor="middle" x="1191.0073" y="-699.8808" font-family="Times,serif" font-size="14.00" fill="#000000">113093</text>
</g>
<!-- 117919 -->
<g id="node29" class="node">
<title>117919</title>
<ellipse fill="none" stroke="#000000" cx="1289.0073" cy="-704.0808" rx="40.0147" ry="40.0147"/>
<text text-anchor="middle" x="1289.0073" y="-699.8808" font-family="Times,serif" font-size="14.00" fill="#000000">117919</text>
</g>
<!-- 117935&#45;&gt;117960 -->
<g id="edge24" class="edge">
<title>117935&#45;&gt;117960</title>
<path fill="none" stroke="#000000" d="M782.0073,-132.6128C782.0073,-119.2195 782.0073,-104.133 782.0073,-90.0857"/>
<polygon fill="#000000" stroke="#000000" points="785.5074,-90.0799 782.0073,-80.0799 778.5074,-90.0799 785.5074,-90.0799"/>
<text text-anchor="middle" x="785.5073" y="-102.2147" font-family="Times,serif" font-size="14.00" fill="#000000">4</text>
</g>
<!-- 116432 -->
<g id="node32" class="node">
<title>116432</title>
<ellipse fill="none" stroke="#000000" cx="236.0073" cy="-438.4514" rx="40.0147" ry="40.0147"/>
<text text-anchor="middle" x="236.0073" y="-434.2514" font-family="Times,serif" font-size="14.00" fill="#000000">116432</text>
</g>
<!-- 116432&#45;&gt;117951 -->
<g id="edge26" class="edge">
<title>116432&#45;&gt;117951</title>
<path fill="none" stroke="#000000" d="M236.0073,-398.2422C236.0073,-384.8489 236.0073,-369.7623 236.0073,-355.7151"/>
<polygon fill="#000000" stroke="#000000" points="239.5074,-355.7092 236.0073,-345.7093 232.5074,-355.7093 239.5074,-355.7092"/>
<text text-anchor="middle" x="239.5073" y="-367.8441" font-family="Times,serif" font-size="14.00" fill="#000000">4</text>
</g>
<!-- 117897&#45;&gt;117935 -->
<g id="edge29" class="edge">
<title>117897&#45;&gt;117935</title>
<path fill="none" stroke="#000000" d="M1131.5302,-278.3772C1125.3896,-273.6424 1118.7308,-269.1248 1112.0073,-265.6294 1019.4051,-217.4867 898.8152,-191.751 832.0378,-180.3151"/>
<polygon fill="#000000" stroke="#000000" points="832.2355,-176.7996 821.795,-178.6013 831.0803,-183.7036 832.2355,-176.7996"/>
<text text-anchor="middle" x="1072.5073" y="-235.0294" font-family="Times,serif" font-size="14.00" fill="#000000">4</text>
</g>
</g>
</svg>
