<?xml version="1.0" encoding="UTF-8" standalone="no"?>
<!DOCTYPE svg PUBLIC "-//W3C//DTD SVG 1.1//EN"
 "http://www.w3.org/Graphics/SVG/1.1/DTD/svg11.dtd">
<!-- Generated by graphviz version 2.40.1 (20161225.0304)
 -->
<!-- Title: finite_state_machine Pages: 1 -->
<svg width="1070pt" height="720pt"
 viewBox="0.00 0.00 1069.96 720.00" xmlns="http://www.w3.org/2000/svg" xmlns:xlink="http://www.w3.org/1999/xlink">
<g id="graph0" class="graph" transform="scale(.8136 .8136) rotate(0) translate(4 880.9028)">
<title>finite_state_machine</title>
<polygon fill="#ffffff" stroke="transparent" points="-4,4 -4,-880.9028 1311.0147,-880.9028 1311.0147,4 -4,4"/>
<!-- 113107 -->
<g id="node1" class="node">
<title>113107</title>
<ellipse fill="none" stroke="#000000" cx="287.0073" cy="-571.2661" rx="40.0147" ry="40.0147"/>
<text text-anchor="middle" x="287.0073" y="-567.0661" font-family="Times,serif" font-size="14.00" fill="#000000">113107</text>
</g>
<!-- 116882 -->
<g id="node2" class="node">
<title>116882</title>
<ellipse fill="none" stroke="#000000" cx="287.0073" cy="-438.4514" rx="40.0147" ry="40.0147"/>
<text text-anchor="middle" x="287.0073" y="-434.2514" font-family="Times,serif" font-size="14.00" fill="#000000">116882</text>
</g>
<!-- 113107&#45;&gt;116882 -->
<g id="edge1" class="edge">
<title>113107&#45;&gt;116882</title>
<path fill="none" stroke="#000000" d="M287.0073,-531.0569C287.0073,-517.6635 287.0073,-502.577 287.0073,-488.5298"/>
<polygon fill="#000000" stroke="#000000" points="290.5074,-488.5239 287.0073,-478.5239 283.5074,-488.524 290.5074,-488.5239"/>
<text text-anchor="middle" x="290.5073" y="-500.6587" font-family="Times,serif" font-size="14.00" fill="#000000">4</text>
</g>
<!-- 117951 -->
<g id="node6" class="node">
<title>117951</title>
<ellipse fill="none" stroke="#000000" cx="777.0073" cy="-305.6367" rx="40.0147" ry="40.0147"/>
<text text-anchor="middle" x="777.0073" y="-301.4367" font-family="Times,serif" font-size="14.00" fill="#000000">117951</text>
</g>
<!-- 116882&#45;&gt;117951 -->
<g id="edge4" class="edge">
<title>116882&#45;&gt;117951</title>
<path fill="none" stroke="#000000" d="M316.3039,-410.8297C322.4602,-406.1266 329.171,-401.7132 336.0073,-398.4441 467.9658,-335.3403 642.3813,-314.9083 726.8674,-308.4773"/>
<polygon fill="#000000" stroke="#000000" points="727.2401,-311.9595 736.9599,-307.7436 726.7324,-304.9779 727.2401,-311.9595"/>
<text text-anchor="middle" x="419.5073" y="-367.8441" font-family="Times,serif" font-size="14.00" fill="#000000">6</text>
</g>
<!-- 113476 -->
<g id="node3" class="node">
<title>113476</title>
<ellipse fill="none" stroke="#000000" cx="619.0073" cy="-836.8954" rx="40.0147" ry="40.0147"/>
<text text-anchor="middle" x="619.0073" y="-832.6954" font-family="Times,serif" font-size="14.00" fill="#000000">113476</text>
</g>
<!-- 129011 -->
<g id="node4" class="node">
<title>129011</title>
<ellipse fill="none" stroke="#000000" cx="547.0073" cy="-704.0808" rx="40.0147" ry="40.0147"/>
<text text-anchor="middle" x="547.0073" y="-699.8808" font-family="Times,serif" font-size="14.00" fill="#000000">129011</text>
</g>
<!-- 113476&#45;&gt;129011 -->
<g id="edge2" class="edge">
<title>113476&#45;&gt;129011</title>
<path fill="none" stroke="#000000" d="M599.9017,-801.6522C591.0325,-785.2917 580.394,-765.6674 570.9909,-748.322"/>
<polygon fill="#000000" stroke="#000000" points="574.0451,-746.6119 566.2023,-739.4887 567.8912,-749.948 574.0451,-746.6119"/>
<text text-anchor="middle" x="590.5073" y="-766.2881" font-family="Times,serif" font-size="14.00" fill="#000000">6</text>
</g>
<!-- 116319 -->
<g id="node5" class="node">
<title>116319</title>
<ellipse fill="none" stroke="#000000" cx="660.0073" cy="-571.2661" rx="40.0147" ry="40.0147"/>
<text text-anchor="middle" x="660.0073" y="-567.0661" font-family="Times,serif" font-size="14.00" fill="#000000">116319</text>
</g>
<!-- 113476&#45;&gt;116319 -->
<g id="edge3" class="edge">
<title>113476&#45;&gt;116319</title>
<path fill="none" stroke="#000000" d="M625.1455,-797.128C632.3975,-750.1437 644.4685,-671.9389 652.3319,-620.9931"/>
<polygon fill="#000000" stroke="#000000" points="655.8278,-621.2878 653.8943,-610.8709 648.9098,-620.22 655.8278,-621.2878"/>
<text text-anchor="middle" x="648.5073" y="-699.8808" font-family="Times,serif" font-size="14.00" fill="#000000">6</text>
</g>
<!-- 116394 -->
<g id="node13" class="node">
<title>116394</title>
<ellipse fill="none" stroke="#000000" cx="498.0073" cy="-571.2661" rx="40.0147" ry="40.0147"/>
<text text-anchor="middle" x="498.0073" y="-567.0661" font-family="Times,serif" font-size="14.00" fill="#000000">116394</text>
</g>
<!-- 129011&#45;&gt;116394 -->
<g id="edge9" class="edge">
<title>129011&#45;&gt;116394</title>
<path fill="none" stroke="#000000" d="M533.097,-666.3767C527.6141,-651.5154 521.2551,-634.2792 515.4685,-618.5947"/>
<polygon fill="#000000" stroke="#000000" points="518.6975,-617.2348 511.9525,-609.0645 512.1302,-619.6578 518.6975,-617.2348"/>
<text text-anchor="middle" x="529.5073" y="-633.4734" font-family="Times,serif" font-size="14.00" fill="#000000">4</text>
</g>
<!-- 117536 -->
<g id="node11" class="node">
<title>117536</title>
<ellipse fill="none" stroke="#000000" cx="483.0073" cy="-438.4514" rx="40.0147" ry="40.0147"/>
<text text-anchor="middle" x="483.0073" y="-434.2514" font-family="Times,serif" font-size="14.00" fill="#000000">117536</text>
</g>
<!-- 116319&#45;&gt;117536 -->
<g id="edge15" class="edge">
<title>116319&#45;&gt;117536</title>
<path fill="none" stroke="#000000" d="M665.3443,-531.56C664.8834,-518.8783 661.7974,-505.7402 653.0073,-496.4587 615.6216,-456.9828 581.7356,-500.4393 532.0073,-478.4587 527.9423,-476.6619 523.938,-474.4335 520.0768,-471.9547"/>
<polygon fill="#000000" stroke="#000000" points="522.079,-469.0839 511.8846,-466.1988 518.0548,-474.8115 522.079,-469.0839"/>
<text text-anchor="middle" x="664.5073" y="-500.6587" font-family="Times,serif" font-size="14.00" fill="#000000">4</text>
</g>
<!-- 117943 -->
<g id="node14" class="node">
<title>117943</title>
<ellipse fill="none" stroke="#000000" cx="189.0073" cy="-438.4514" rx="40.0147" ry="40.0147"/>
<text text-anchor="middle" x="189.0073" y="-434.2514" font-family="Times,serif" font-size="14.00" fill="#000000">117943</text>
</g>
<!-- 116319&#45;&gt;117943 -->
<g id="edge10" class="edge">
<title>116319&#45;&gt;117943</title>
<path fill="none" stroke="#000000" d="M622.8414,-556.2973C601.0361,-547.9738 572.7861,-537.9719 547.0073,-531.2587 479.5938,-513.7032 301.4152,-507.307 238.0073,-478.4587 234.1275,-476.6936 230.2978,-474.544 226.5922,-472.1672"/>
<polygon fill="#000000" stroke="#000000" points="228.4022,-469.1616 218.2059,-466.2829 224.3816,-474.8918 228.4022,-469.1616"/>
<text text-anchor="middle" x="424.5073" y="-500.6587" font-family="Times,serif" font-size="14.00" fill="#000000">4</text>
</g>
<!-- 116726 -->
<g id="node16" class="node">
<title>116726</title>
<ellipse fill="none" stroke="#000000" cx="385.0073" cy="-438.4514" rx="40.0147" ry="40.0147"/>
<text text-anchor="middle" x="385.0073" y="-434.2514" font-family="Times,serif" font-size="14.00" fill="#000000">116726</text>
</g>
<!-- 116319&#45;&gt;116726 -->
<g id="edge11" class="edge">
<title>116319&#45;&gt;116726</title>
<path fill="none" stroke="#000000" d="M622.4584,-557.1567C595.1039,-546.3674 557.4847,-530.4594 526.0073,-513.2587 514.26,-506.8394 513.1918,-502.0037 501.0073,-496.4587 472.9431,-483.6872 461.4475,-492.5213 434.0073,-478.4587 430.214,-476.5147 426.4445,-474.2405 422.7789,-471.781"/>
<polygon fill="#000000" stroke="#000000" points="424.6097,-468.786 414.452,-465.7739 420.5142,-474.463 424.6097,-468.786"/>
<text text-anchor="middle" x="529.5073" y="-500.6587" font-family="Times,serif" font-size="14.00" fill="#000000">4</text>
</g>
<!-- 116653 -->
<g id="node17" class="node">
<title>116653</title>
<ellipse fill="none" stroke="#000000" cx="581.0073" cy="-438.4514" rx="40.0147" ry="40.0147"/>
<text text-anchor="middle" x="581.0073" y="-434.2514" font-family="Times,serif" font-size="14.00" fill="#000000">116653</text>
</g>
<!-- 116319&#45;&gt;116653 -->
<g id="edge12" class="edge">
<title>116319&#45;&gt;116653</title>
<path fill="none" stroke="#000000" d="M624.6038,-552.4522C610.0575,-542.779 594.6291,-529.5659 586.0073,-513.2587 582.0281,-505.7324 579.7558,-497.1687 578.578,-488.5891"/>
<polygon fill="#000000" stroke="#000000" points="582.0581,-488.2107 577.6614,-478.5712 575.0872,-488.8486 582.0581,-488.2107"/>
<text text-anchor="middle" x="589.5073" y="-500.6587" font-family="Times,serif" font-size="14.00" fill="#000000">4</text>
</g>
<!-- 116343 -->
<g id="node18" class="node">
<title>116343</title>
<ellipse fill="none" stroke="#000000" cx="875.0073" cy="-438.4514" rx="40.0147" ry="40.0147"/>
<text text-anchor="middle" x="875.0073" y="-434.2514" font-family="Times,serif" font-size="14.00" fill="#000000">116343</text>
</g>
<!-- 116319&#45;&gt;116343 -->
<g id="edge13" class="edge">
<title>116319&#45;&gt;116343</title>
<path fill="none" stroke="#000000" d="M629.6646,-544.7552C615.7863,-529.503 605.0201,-510.6184 618.0073,-496.4587 649.3675,-462.2676 783.0175,-495.9049 826.0073,-478.4587 830.0142,-476.8326 833.9478,-474.7603 837.7357,-472.4175"/>
<polygon fill="#000000" stroke="#000000" points="840.0206,-475.0938 846.2758,-466.5426 836.0533,-469.3266 840.0206,-475.0938"/>
<text text-anchor="middle" x="621.5073" y="-500.6587" font-family="Times,serif" font-size="14.00" fill="#000000">4</text>
</g>
<!-- 116327 -->
<g id="node19" class="node">
<title>116327</title>
<ellipse fill="none" stroke="#000000" cx="973.0073" cy="-438.4514" rx="40.0147" ry="40.0147"/>
<text text-anchor="middle" x="973.0073" y="-434.2514" font-family="Times,serif" font-size="14.00" fill="#000000">116327</text>
</g>
<!-- 116319&#45;&gt;116327 -->
<g id="edge14" class="edge">
<title>116319&#45;&gt;116327</title>
<path fill="none" stroke="#000000" d="M642.6573,-534.7938C638.8936,-521.2077 638.4746,-506.6334 648.0073,-496.4587 669.019,-474.0321 895.4102,-489.7126 924.0073,-478.4587 928.0313,-476.8752 931.9765,-474.8323 935.7722,-472.5089"/>
<polygon fill="#000000" stroke="#000000" points="938.0439,-475.1956 944.3237,-466.6625 934.0932,-469.417 938.0439,-475.1956"/>
<text text-anchor="middle" x="651.5073" y="-500.6587" font-family="Times,serif" font-size="14.00" fill="#000000">4</text>
</g>
<!-- 116572 -->
<g id="node20" class="node">
<title>116572</title>
<ellipse fill="none" stroke="#000000" cx="1071.0073" cy="-438.4514" rx="40.0147" ry="40.0147"/>
<text text-anchor="middle" x="1071.0073" y="-434.2514" font-family="Times,serif" font-size="14.00" fill="#000000">116572</text>
</g>
<!-- 116319&#45;&gt;116572 -->
<g id="edge16" class="edge">
<title>116319&#45;&gt;116572</title>
<path fill="none" stroke="#000000" d="M674.9464,-533.989C682.6272,-519.7655 693.4848,-504.9441 708.0073,-496.4587 768.3537,-461.1989 956.8697,-503.797 1022.0073,-478.4587 1026.0374,-476.891 1029.987,-474.8591 1033.7855,-472.5429"/>
<polygon fill="#000000" stroke="#000000" points="1036.0523,-475.2335 1042.3412,-466.707 1032.1077,-469.4506 1036.0523,-475.2335"/>
<text text-anchor="middle" x="711.5073" y="-500.6587" font-family="Times,serif" font-size="14.00" fill="#000000">4</text>
</g>
<!-- 116416 -->
<g id="node21" class="node">
<title>116416</title>
<ellipse fill="none" stroke="#000000" cx="679.0073" cy="-438.4514" rx="40.0147" ry="40.0147"/>
<text text-anchor="middle" x="679.0073" y="-434.2514" font-family="Times,serif" font-size="14.00" fill="#000000">116416</text>
</g>
<!-- 116319&#45;&gt;116416 -->
<g id="edge17" class="edge">
<title>116319&#45;&gt;116416</title>
<path fill="none" stroke="#000000" d="M690.9655,-545.6302C699.8118,-536.4432 708.3191,-525.3402 713.0073,-513.2587 717.5276,-501.6101 714.9749,-489.1757 709.6599,-477.8567"/>
<polygon fill="#000000" stroke="#000000" points="712.7308,-476.1774 704.8876,-469.0545 706.5771,-479.5138 712.7308,-476.1774"/>
<text text-anchor="middle" x="718.5073" y="-500.6587" font-family="Times,serif" font-size="14.00" fill="#000000">4</text>
</g>
<!-- 116432 -->
<g id="node22" class="node">
<title>116432</title>
<ellipse fill="none" stroke="#000000" cx="777.0073" cy="-438.4514" rx="40.0147" ry="40.0147"/>
<text text-anchor="middle" x="777.0073" y="-434.2514" font-family="Times,serif" font-size="14.00" fill="#000000">116432</text>
</g>
<!-- 116319&#45;&gt;116432 -->
<g id="edge18" class="edge">
<title>116319&#45;&gt;116432</title>
<path fill="none" stroke="#000000" d="M691.7335,-546.2013C703.1284,-536.4915 715.6998,-524.915 726.0073,-513.2587 734.6342,-503.503 743.019,-492.2265 750.4147,-481.4353"/>
<polygon fill="#000000" stroke="#000000" points="753.4595,-483.1789 756.1196,-472.9235 747.6447,-479.2817 753.4595,-483.1789"/>
<text text-anchor="middle" x="741.5073" y="-500.6587" font-family="Times,serif" font-size="14.00" fill="#000000">4</text>
</g>
<!-- 117889 -->
<g id="node23" class="node">
<title>117889</title>
<ellipse fill="none" stroke="#000000" cx="1169.0073" cy="-438.4514" rx="40.0147" ry="40.0147"/>
<text text-anchor="middle" x="1169.0073" y="-434.2514" font-family="Times,serif" font-size="14.00" fill="#000000">117889</text>
</g>
<!-- 116319&#45;&gt;117889 -->
<g id="edge19" class="edge">
<title>116319&#45;&gt;117889</title>
<path fill="none" stroke="#000000" d="M700.1813,-569.6152C782.7029,-564.8709 975.6642,-546.7471 1120.0073,-478.4587 1123.8604,-476.6359 1127.6714,-474.4461 1131.3646,-472.0426"/>
<polygon fill="#000000" stroke="#000000" points="1133.5931,-474.7534 1139.7326,-466.1187 1129.5484,-469.0401 1133.5931,-474.7534"/>
<text text-anchor="middle" x="1076.5073" y="-500.6587" font-family="Times,serif" font-size="14.00" fill="#000000">4</text>
</g>
<!-- 117901 -->
<g id="node24" class="node">
<title>117901</title>
<ellipse fill="none" stroke="#000000" cx="1267.0073" cy="-438.4514" rx="40.0147" ry="40.0147"/>
<text text-anchor="middle" x="1267.0073" y="-434.2514" font-family="Times,serif" font-size="14.00" fill="#000000">117901</text>
</g>
<!-- 116319&#45;&gt;117901 -->
<g id="edge20" class="edge">
<title>116319&#45;&gt;117901</title>
<path fill="none" stroke="#000000" d="M700.0175,-567.3858C775.5346,-559.7101 944.0618,-540.9033 1084.0073,-513.2587 1144.372,-501.3344 1163.1314,-506.2923 1218.0073,-478.4587 1221.8088,-476.5306 1225.5839,-474.2675 1229.2533,-471.8153"/>
<polygon fill="#000000" stroke="#000000" points="1231.5133,-474.5011 1237.5858,-465.8191 1227.4245,-468.8193 1231.5133,-474.5011"/>
<text text-anchor="middle" x="1176.5073" y="-500.6587" font-family="Times,serif" font-size="14.00" fill="#000000">4</text>
</g>
<!-- 116378 -->
<g id="node7" class="node">
<title>116378</title>
<ellipse fill="none" stroke="#000000" cx="973.0073" cy="-305.6367" rx="40.0147" ry="40.0147"/>
<text text-anchor="middle" x="973.0073" y="-301.4367" font-family="Times,serif" font-size="14.00" fill="#000000">116378</text>
</g>
<!-- 113034 -->
<g id="node8" class="node">
<title>113034</title>
<ellipse fill="none" stroke="#000000" cx="176.0073" cy="-704.0808" rx="40.0147" ry="40.0147"/>
<text text-anchor="middle" x="176.0073" y="-699.8808" font-family="Times,serif" font-size="14.00" fill="#000000">113034</text>
</g>
<!-- 113042 -->
<g id="node9" class="node">
<title>113042</title>
<ellipse fill="none" stroke="#000000" cx="40.0073" cy="-571.2661" rx="40.0147" ry="40.0147"/>
<text text-anchor="middle" x="40.0073" y="-567.0661" font-family="Times,serif" font-size="14.00" fill="#000000">113042</text>
</g>
<!-- 113034&#45;&gt;113042 -->
<g id="edge5" class="edge">
<title>113034&#45;&gt;113042</title>
<path fill="none" stroke="#000000" d="M147.1652,-675.9142C126.4296,-655.6642 98.3248,-628.2177 76.1003,-606.5137"/>
<polygon fill="#000000" stroke="#000000" points="78.4076,-603.8748 68.8079,-599.3921 73.5169,-608.8829 78.4076,-603.8748"/>
<text text-anchor="middle" x="120.5073" y="-633.4734" font-family="Times,serif" font-size="14.00" fill="#000000">6</text>
</g>
<!-- 113034&#45;&gt;113042 -->
<g id="edge34" class="edge">
<title>113034&#45;&gt;113042</title>
<path fill="none" stroke="#fe0300" d="M182.1492,-664.4287C181.957,-651.9 179.2443,-638.8424 171.0073,-629.2734 146.6655,-600.9949 122.5985,-627.5162 89.0073,-611.2734 85.1699,-609.4179 81.3698,-607.2053 77.6838,-604.7867"/>
<polygon fill="#fe0300" stroke="#fe0300" points="79.5037,-601.7861 69.3266,-598.8404 75.4455,-607.4897 79.5037,-601.7861"/>
<text text-anchor="middle" x="183.5073" y="-633.4734" font-family="Times,serif" font-size="14.00" fill="#000000">6</text>
</g>
<!-- 115045 -->
<g id="node10" class="node">
<title>115045</title>
<ellipse fill="none" stroke="#000000" cx="138.0073" cy="-571.2661" rx="40.0147" ry="40.0147"/>
<text text-anchor="middle" x="138.0073" y="-567.0661" font-family="Times,serif" font-size="14.00" fill="#000000">115045</text>
</g>
<!-- 113034&#45;&gt;115045 -->
<g id="edge6" class="edge">
<title>113034&#45;&gt;115045</title>
<path fill="none" stroke="#000000" d="M164.914,-665.3082C160.8168,-650.9879 156.1225,-634.5808 151.8141,-619.5224"/>
<polygon fill="#000000" stroke="#000000" points="155.1646,-618.5086 149.0488,-609.8572 148.4346,-620.4342 155.1646,-618.5086"/>
<text text-anchor="middle" x="163.5073" y="-633.4734" font-family="Times,serif" font-size="14.00" fill="#000000">6</text>
</g>
<!-- 113034&#45;&gt;117536 -->
<g id="edge7" class="edge">
<title>113034&#45;&gt;117536</title>
<path fill="none" stroke="#000000" d="M180.9954,-664.2623C187.3481,-626.8223 201.3049,-570.7743 231.0073,-531.2587 287.0212,-456.7391 348.2032,-514.9058 434.0073,-478.4587 438.098,-476.7211 442.1198,-474.5331 445.9924,-472.0806"/>
<polygon fill="#000000" stroke="#000000" points="447.9969,-474.9497 454.2004,-466.3609 443.9948,-469.2066 447.9969,-474.9497"/>
<text text-anchor="middle" x="234.5073" y="-567.0661" font-family="Times,serif" font-size="14.00" fill="#000000">6</text>
</g>
<!-- 113417 -->
<g id="node12" class="node">
<title>113417</title>
<ellipse fill="none" stroke="#000000" cx="42.0073" cy="-438.4514" rx="40.0147" ry="40.0147"/>
<text text-anchor="middle" x="42.0073" y="-434.2514" font-family="Times,serif" font-size="14.00" fill="#000000">113417</text>
</g>
<!-- 113042&#45;&gt;113417 -->
<g id="edge8" class="edge">
<title>113042&#45;&gt;113417</title>
<path fill="none" stroke="#000000" d="M34.6005,-531.2909C33.6756,-520.0295 33.2312,-507.7674 34.0073,-496.4587 34.1934,-493.7473 34.4279,-490.9695 34.6986,-488.1689"/>
<polygon fill="#000000" stroke="#000000" points="38.2022,-488.3276 35.8159,-478.005 31.2441,-487.5627 38.2022,-488.3276"/>
<text text-anchor="middle" x="37.5073" y="-500.6587" font-family="Times,serif" font-size="14.00" fill="#000000">6</text>
</g>
<!-- 113042&#45;&gt;113417 -->
<g id="edge35" class="edge">
<title>113042&#45;&gt;113417</title>
<path fill="none" stroke="#fe0300" d="M40.6128,-531.0569C40.8145,-517.6635 41.0417,-502.577 41.2532,-488.5298"/>
<polygon fill="#fe0300" stroke="#fe0300" points="44.7528,-488.5755 41.4039,-478.5239 37.7536,-488.4701 44.7528,-488.5755"/>
<text text-anchor="middle" x="45.5073" y="-500.6587" font-family="Times,serif" font-size="14.00" fill="#000000">6</text>
</g>
<!-- 115045&#45;&gt;117943 -->
<g id="edge27" class="edge">
<title>115045&#45;&gt;117943</title>
<path fill="none" stroke="#000000" d="M152.3494,-533.9163C158.1074,-518.9214 164.8108,-501.4642 170.899,-485.6094"/>
<polygon fill="#000000" stroke="#000000" points="174.2788,-486.5711 174.5962,-475.981 167.744,-484.0617 174.2788,-486.5711"/>
<text text-anchor="middle" x="170.5073" y="-500.6587" font-family="Times,serif" font-size="14.00" fill="#000000">4</text>
</g>
<!-- 116394&#45;&gt;116416 -->
<g id="edge24" class="edge">
<title>116394&#45;&gt;116416</title>
<path fill="none" stroke="#000000" d="M487.1559,-532.6792C485.8881,-519.7918 487.454,-506.2379 496.0073,-496.4587 515.7878,-473.8435 602.4417,-490.4107 630.0073,-478.4587 634.085,-476.6908 638.0979,-474.482 641.9647,-472.0159"/>
<polygon fill="#000000" stroke="#000000" points="643.9782,-474.8788 650.1647,-466.2777 639.9648,-469.1436 643.9782,-474.8788"/>
<text text-anchor="middle" x="499.5073" y="-500.6587" font-family="Times,serif" font-size="14.00" fill="#000000">4</text>
</g>
<!-- 116394&#45;&gt;116432 -->
<g id="edge25" class="edge">
<title>116394&#45;&gt;116432</title>
<path fill="none" stroke="#000000" d="M520.8584,-538.0861C533.2519,-522.7909 549.9346,-505.9586 569.0073,-496.4587 632.6659,-464.7512 662.4678,-506.0694 728.0073,-478.4587 732.1031,-476.7333 736.1285,-474.5535 740.0033,-472.1063"/>
<polygon fill="#000000" stroke="#000000" points="742.0042,-474.978 748.2144,-466.3941 738.0066,-469.2317 742.0042,-474.978"/>
<text text-anchor="middle" x="572.5073" y="-500.6587" font-family="Times,serif" font-size="14.00" fill="#000000">4</text>
</g>
<!-- 117935 -->
<g id="node31" class="node">
<title>117935</title>
<ellipse fill="none" stroke="#000000" cx="137.0073" cy="-172.822" rx="40.0147" ry="40.0147"/>
<text text-anchor="middle" x="137.0073" y="-168.622" font-family="Times,serif" font-size="14.00" fill="#000000">117935</text>
</g>
<!-- 116394&#45;&gt;117935 -->
<g id="edge23" class="edge">
<title>116394&#45;&gt;117935</title>
<path fill="none" stroke="#000000" d="M458.9909,-561.4778C366.7074,-538.2839 142.5189,-481.6717 140.0073,-478.4587 82.0345,-404.2956 102.965,-286.1564 121.2845,-220.5979"/>
<polygon fill="#000000" stroke="#000000" points="124.6644,-221.5088 124.0741,-210.9304 117.9388,-219.568 124.6644,-221.5088"/>
<text text-anchor="middle" x="107.5073" y="-367.8441" font-family="Times,serif" font-size="14.00" fill="#000000">4</text>
</g>
<!-- 116441 -->
<g id="node15" class="node">
<title>116441</title>
<ellipse fill="none" stroke="#000000" cx="1169.0073" cy="-305.6367" rx="40.0147" ry="40.0147"/>
<text text-anchor="middle" x="1169.0073" y="-301.4367" font-family="Times,serif" font-size="14.00" fill="#000000">116441</text>
</g>
<!-- 116343&#45;&gt;117951 -->
<g id="edge22" class="edge">
<title>116343&#45;&gt;117951</title>
<path fill="none" stroke="#000000" d="M851.0338,-405.9613C837.8051,-388.033 821.2497,-365.5963 807.1516,-346.4898"/>
<polygon fill="#000000" stroke="#000000" points="809.8267,-344.2203 801.073,-338.2517 804.1941,-348.3764 809.8267,-344.2203"/>
<text text-anchor="middle" x="834.5073" y="-367.8441" font-family="Times,serif" font-size="14.00" fill="#000000">4</text>
</g>
<!-- 116327&#45;&gt;116378 -->
<g id="edge26" class="edge">
<title>116327&#45;&gt;116378</title>
<path fill="none" stroke="#000000" d="M973.0073,-398.2422C973.0073,-384.8489 973.0073,-369.7623 973.0073,-355.7151"/>
<polygon fill="#000000" stroke="#000000" points="976.5074,-355.7092 973.0073,-345.7093 969.5074,-355.7093 976.5074,-355.7092"/>
<text text-anchor="middle" x="976.5073" y="-367.8441" font-family="Times,serif" font-size="14.00" fill="#000000">4</text>
</g>
<!-- 117927 -->
<g id="node32" class="node">
<title>117927</title>
<ellipse fill="none" stroke="#000000" cx="1071.0073" cy="-305.6367" rx="40.0147" ry="40.0147"/>
<text text-anchor="middle" x="1071.0073" y="-301.4367" font-family="Times,serif" font-size="14.00" fill="#000000">117927</text>
</g>
<!-- 116572&#45;&gt;117927 -->
<g id="edge29" class="edge">
<title>116572&#45;&gt;117927</title>
<path fill="none" stroke="#000000" d="M1071.0073,-398.2422C1071.0073,-384.8489 1071.0073,-369.7623 1071.0073,-355.7151"/>
<polygon fill="#000000" stroke="#000000" points="1074.5074,-355.7092 1071.0073,-345.7093 1067.5074,-355.7093 1074.5074,-355.7092"/>
<text text-anchor="middle" x="1074.5073" y="-367.8441" font-family="Times,serif" font-size="14.00" fill="#000000">4</text>
</g>
<!-- 116432&#45;&gt;117951 -->
<g id="edge30" class="edge">
<title>116432&#45;&gt;117951</title>
<path fill="none" stroke="#000000" d="M777.0073,-398.2422C777.0073,-384.8489 777.0073,-369.7623 777.0073,-355.7151"/>
<polygon fill="#000000" stroke="#000000" points="780.5074,-355.7092 777.0073,-345.7093 773.5074,-355.7093 780.5074,-355.7092"/>
<text text-anchor="middle" x="780.5073" y="-367.8441" font-family="Times,serif" font-size="14.00" fill="#000000">4</text>
</g>
<!-- 117889&#45;&gt;116441 -->
<g id="edge31" class="edge">
<title>117889&#45;&gt;116441</title>
<path fill="none" stroke="#000000" d="M1169.0073,-398.2422C1169.0073,-384.8489 1169.0073,-369.7623 1169.0073,-355.7151"/>
<polygon fill="#000000" stroke="#000000" points="1172.5074,-355.7092 1169.0073,-345.7093 1165.5074,-355.7093 1172.5074,-355.7092"/>
<text text-anchor="middle" x="1172.5073" y="-367.8441" font-family="Times,serif" font-size="14.00" fill="#000000">4</text>
</g>
<!-- 117897 -->
<g id="node33" class="node">
<title>117897</title>
<ellipse fill="none" stroke="#000000" cx="1267.0073" cy="-305.6367" rx="40.0147" ry="40.0147"/>
<text text-anchor="middle" x="1267.0073" y="-301.4367" font-family="Times,serif" font-size="14.00" fill="#000000">117897</text>
</g>
<!-- 117889&#45;&gt;117897 -->
<g id="edge32" class="edge">
<title>117889&#45;&gt;117897</title>
<path fill="none" stroke="#000000" d="M1192.9808,-405.9613C1206.2096,-388.033 1222.765,-365.5963 1236.8631,-346.4898"/>
<polygon fill="#000000" stroke="#000000" points="1239.8206,-348.3764 1242.9417,-338.2517 1234.188,-344.2203 1239.8206,-348.3764"/>
<text text-anchor="middle" x="1226.5073" y="-367.8441" font-family="Times,serif" font-size="14.00" fill="#000000">4</text>
</g>
<!-- 117960 -->
<g id="node25" class="node">
<title>117960</title>
<ellipse fill="none" stroke="#000000" cx="137.0073" cy="-40.0073" rx="40.0147" ry="40.0147"/>
<text text-anchor="middle" x="137.0073" y="-35.8073" font-family="Times,serif" font-size="14.00" fill="#000000">117960</text>
</g>
<!-- 113450 -->
<g id="node26" class="node">
<title>113450</title>
<ellipse fill="none" stroke="#000000" cx="728.0073" cy="-836.8954" rx="40.0147" ry="40.0147"/>
<text text-anchor="middle" x="728.0073" y="-832.6954" font-family="Times,serif" font-size="14.00" fill="#000000">113450</text>
</g>
<!-- 117366 -->
<g id="node27" class="node">
<title>117366</title>
<ellipse fill="none" stroke="#000000" cx="728.0073" cy="-704.0808" rx="40.0147" ry="40.0147"/>
<text text-anchor="middle" x="728.0073" y="-699.8808" font-family="Times,serif" font-size="14.00" fill="#000000">117366</text>
</g>
<!-- 113450&#45;&gt;117366 -->
<g id="edge21" class="edge">
<title>113450&#45;&gt;117366</title>
<path fill="none" stroke="#000000" d="M728.0073,-796.6862C728.0073,-783.2929 728.0073,-768.2064 728.0073,-754.1591"/>
<polygon fill="#000000" stroke="#000000" points="731.5074,-754.1533 728.0073,-744.1533 724.5074,-754.1533 731.5074,-754.1533"/>
<text text-anchor="middle" x="731.5073" y="-766.2881" font-family="Times,serif" font-size="14.00" fill="#000000">4</text>
</g>
<!-- 113468 -->
<g id="node28" class="node">
<title>113468</title>
<ellipse fill="none" stroke="#000000" cx="826.0073" cy="-836.8954" rx="40.0147" ry="40.0147"/>
<text text-anchor="middle" x="826.0073" y="-832.6954" font-family="Times,serif" font-size="14.00" fill="#000000">113468</text>
</g>
<!-- 113093 -->
<g id="node29" class="node">
<title>113093</title>
<ellipse fill="none" stroke="#000000" cx="924.0073" cy="-836.8954" rx="40.0147" ry="40.0147"/>
<text text-anchor="middle" x="924.0073" y="-832.6954" font-family="Times,serif" font-size="14.00" fill="#000000">113093</text>
</g>
<!-- 117919 -->
<g id="node30" class="node">
<title>117919</title>
<ellipse fill="none" stroke="#000000" cx="1022.0073" cy="-836.8954" rx="40.0147" ry="40.0147"/>
<text text-anchor="middle" x="1022.0073" y="-832.6954" font-family="Times,serif" font-size="14.00" fill="#000000">117919</text>
</g>
<!-- 117935&#45;&gt;117960 -->
<g id="edge28" class="edge">
<title>117935&#45;&gt;117960</title>
<path fill="none" stroke="#000000" d="M137.0073,-132.6128C137.0073,-119.2195 137.0073,-104.133 137.0073,-90.0857"/>
<polygon fill="#000000" stroke="#000000" points="140.5074,-90.0799 137.0073,-80.0799 133.5074,-90.0799 140.5074,-90.0799"/>
<text text-anchor="middle" x="140.5073" y="-102.2147" font-family="Times,serif" font-size="14.00" fill="#000000">4</text>
</g>
<!-- 117897&#45;&gt;117935 -->
<g id="edge33" class="edge">
<title>117897&#45;&gt;117935</title>
<path fill="none" stroke="#000000" d="M1238.2774,-277.5416C1232.0236,-272.8178 1225.1317,-268.5178 1218.0073,-265.6294 1027.1951,-188.2691 373.94,-175.3544 187.2223,-173.2322"/>
<polygon fill="#000000" stroke="#000000" points="187.1762,-169.7316 177.1389,-173.1231 187.1004,-176.7312 187.1762,-169.7316"/>
<text text-anchor="middle" x="1155.5073" y="-235.0294" font-family="Times,serif" font-size="14.00" fill="#000000">4</text>
</g>
</g>
</svg>
