<?xml version="1.0" encoding="UTF-8" standalone="no"?>
<!DOCTYPE svg PUBLIC "-//W3C//DTD SVG 1.1//EN"
 "http://www.w3.org/Graphics/SVG/1.1/DTD/svg11.dtd">
<!-- Generated by graphviz version 2.40.1 (20161225.0304)
 -->
<!-- Title: finite_state_machine Pages: 1 -->
<svg width="1112pt" height="720pt"
 viewBox="0.00 0.00 1112.27 720.00" xmlns="http://www.w3.org/2000/svg" xmlns:xlink="http://www.w3.org/1999/xlink">
<g id="graph0" class="graph" transform="scale(.8136 .8136) rotate(0) translate(4 880.9028)">
<title>finite_state_machine</title>
<polygon fill="#ffffff" stroke="transparent" points="-4,4 -4,-880.9028 1363.0147,-880.9028 1363.0147,4 -4,4"/>
<!-- 113107 -->
<g id="node1" class="node">
<title>113107</title>
<ellipse fill="none" stroke="#000000" cx="40.0073" cy="-571.2661" rx="40.0147" ry="40.0147"/>
<text text-anchor="middle" x="40.0073" y="-567.0661" font-family="Times,serif" font-size="14.00" fill="#000000">113107</text>
</g>
<!-- 116882 -->
<g id="node2" class="node">
<title>116882</title>
<ellipse fill="none" stroke="#000000" cx="40.0073" cy="-438.4514" rx="40.0147" ry="40.0147"/>
<text text-anchor="middle" x="40.0073" y="-434.2514" font-family="Times,serif" font-size="14.00" fill="#000000">116882</text>
</g>
<!-- 113107&#45;&gt;116882 -->
<g id="edge1" class="edge">
<title>113107&#45;&gt;116882</title>
<path fill="none" stroke="#000000" d="M40.0073,-531.0569C40.0073,-517.6635 40.0073,-502.577 40.0073,-488.5298"/>
<polygon fill="#000000" stroke="#000000" points="43.5074,-488.5239 40.0073,-478.5239 36.5074,-488.524 43.5074,-488.5239"/>
<text text-anchor="middle" x="43.5073" y="-500.6587" font-family="Times,serif" font-size="14.00" fill="#000000">4</text>
</g>
<!-- 117951 -->
<g id="node6" class="node">
<title>117951</title>
<ellipse fill="none" stroke="#000000" cx="829.0073" cy="-305.6367" rx="40.0147" ry="40.0147"/>
<text text-anchor="middle" x="829.0073" y="-301.4367" font-family="Times,serif" font-size="14.00" fill="#000000">117951</text>
</g>
<!-- 116882&#45;&gt;117951 -->
<g id="edge4" class="edge">
<title>116882&#45;&gt;117951</title>
<path fill="none" stroke="#000000" d="M69.3467,-410.9183C75.4993,-406.2074 82.1978,-401.7686 89.0073,-398.4441 151.6744,-367.849 173.1733,-374.8283 242.0073,-363.6441 439.4105,-331.5698 677.2411,-314.6741 778.9372,-308.4646"/>
<polygon fill="#000000" stroke="#000000" points="779.1548,-311.9579 788.9261,-307.8625 778.7336,-304.9706 779.1548,-311.9579"/>
<text text-anchor="middle" x="245.5073" y="-367.8441" font-family="Times,serif" font-size="14.00" fill="#000000">6</text>
</g>
<!-- 113476 -->
<g id="node3" class="node">
<title>113476</title>
<ellipse fill="none" stroke="#000000" cx="710.0073" cy="-836.8954" rx="40.0147" ry="40.0147"/>
<text text-anchor="middle" x="710.0073" y="-832.6954" font-family="Times,serif" font-size="14.00" fill="#000000">113476</text>
</g>
<!-- 129011 -->
<g id="node4" class="node">
<title>129011</title>
<ellipse fill="none" stroke="#000000" cx="624.0073" cy="-704.0808" rx="40.0147" ry="40.0147"/>
<text text-anchor="middle" x="624.0073" y="-699.8808" font-family="Times,serif" font-size="14.00" fill="#000000">129011</text>
</g>
<!-- 113476&#45;&gt;129011 -->
<g id="edge2" class="edge">
<title>113476&#45;&gt;129011</title>
<path fill="none" stroke="#000000" d="M688.0834,-803.037C676.964,-785.8648 663.3466,-764.8347 651.5292,-746.5843"/>
<polygon fill="#000000" stroke="#000000" points="654.2644,-744.3689 645.8913,-737.8773 648.3887,-748.1736 654.2644,-744.3689"/>
<text text-anchor="middle" x="675.5073" y="-766.2881" font-family="Times,serif" font-size="14.00" fill="#000000">6</text>
</g>
<!-- 116319 -->
<g id="node5" class="node">
<title>116319</title>
<ellipse fill="none" stroke="#000000" cx="750.0073" cy="-571.2661" rx="40.0147" ry="40.0147"/>
<text text-anchor="middle" x="750.0073" y="-567.0661" font-family="Times,serif" font-size="14.00" fill="#000000">116319</text>
</g>
<!-- 113476&#45;&gt;116319 -->
<g id="edge3" class="edge">
<title>113476&#45;&gt;116319</title>
<path fill="none" stroke="#fe0300" d="M715.9957,-797.128C723.0709,-750.1437 734.8475,-671.9389 742.5192,-620.9931"/>
<polygon fill="#fe0300" stroke="#fe0300" points="746.0152,-621.2806 744.0434,-610.8709 739.0933,-620.2382 746.0152,-621.2806"/>
<text text-anchor="middle" x="738.5073" y="-699.8808" font-family="Times,serif" font-size="14.00" fill="#000000">6</text>
</g>
<!-- 116394 -->
<g id="node13" class="node">
<title>116394</title>
<ellipse fill="none" stroke="#000000" cx="542.0073" cy="-571.2661" rx="40.0147" ry="40.0147"/>
<text text-anchor="middle" x="542.0073" y="-567.0661" font-family="Times,serif" font-size="14.00" fill="#000000">116394</text>
</g>
<!-- 129011&#45;&gt;116394 -->
<g id="edge9" class="edge">
<title>129011&#45;&gt;116394</title>
<path fill="none" stroke="#000000" d="M602.8903,-669.8777C592.369,-652.8365 579.5429,-632.0621 568.3811,-613.9835"/>
<polygon fill="#000000" stroke="#000000" points="571.2844,-612.0235 563.0528,-605.3533 565.3282,-615.7009 571.2844,-612.0235"/>
<text text-anchor="middle" x="590.5073" y="-633.4734" font-family="Times,serif" font-size="14.00" fill="#000000">4</text>
</g>
<!-- 117536 -->
<g id="node11" class="node">
<title>117536</title>
<ellipse fill="none" stroke="#000000" cx="437.0073" cy="-438.4514" rx="40.0147" ry="40.0147"/>
<text text-anchor="middle" x="437.0073" y="-434.2514" font-family="Times,serif" font-size="14.00" fill="#000000">117536</text>
</g>
<!-- 116319&#45;&gt;117536 -->
<g id="edge15" class="edge">
<title>116319&#45;&gt;117536</title>
<path fill="none" stroke="#000000" d="M755.7612,-531.5506C755.3845,-518.7148 752.2448,-505.4827 743.0073,-496.4587 702.0543,-456.4521 539.2311,-499.5515 486.0073,-478.4587 481.9872,-476.8656 478.0446,-474.816 474.2507,-472.4882"/>
<polygon fill="#000000" stroke="#000000" points="475.9304,-469.3965 465.7017,-466.6353 471.9759,-475.1725 475.9304,-469.3965"/>
<text text-anchor="middle" x="755.5073" y="-500.6587" font-family="Times,serif" font-size="14.00" fill="#000000">4</text>
</g>
<!-- 117943 -->
<g id="node14" class="node">
<title>117943</title>
<ellipse fill="none" stroke="#000000" cx="339.0073" cy="-438.4514" rx="40.0147" ry="40.0147"/>
<text text-anchor="middle" x="339.0073" y="-434.2514" font-family="Times,serif" font-size="14.00" fill="#000000">117943</text>
</g>
<!-- 116319&#45;&gt;117943 -->
<g id="edge10" class="edge">
<title>116319&#45;&gt;117943</title>
<path fill="none" stroke="#000000" d="M712.3786,-556.8995C682.5788,-545.4061 639.963,-528.712 603.0073,-513.2587 585.971,-506.1349 582.8582,-501.1847 565.0073,-496.4587 488.5684,-476.2219 461.0508,-508.7424 388.0073,-478.4587 384.0128,-476.8026 380.0878,-474.7095 376.3055,-472.3529"/>
<polygon fill="#000000" stroke="#000000" points="377.9904,-469.2629 367.7735,-466.458 374.0113,-475.022 377.9904,-469.2629"/>
<text text-anchor="middle" x="606.5073" y="-500.6587" font-family="Times,serif" font-size="14.00" fill="#000000">4</text>
</g>
<!-- 116726 -->
<g id="node16" class="node">
<title>116726</title>
<ellipse fill="none" stroke="#000000" cx="535.0073" cy="-438.4514" rx="40.0147" ry="40.0147"/>
<text text-anchor="middle" x="535.0073" y="-434.2514" font-family="Times,serif" font-size="14.00" fill="#000000">116726</text>
</g>
<!-- 116319&#45;&gt;116726 -->
<g id="edge11" class="edge">
<title>116319&#45;&gt;116726</title>
<path fill="none" stroke="#000000" d="M713.9629,-553.4417C679.5949,-535.9121 626.8713,-507.6107 584.0073,-478.4587 580.5338,-476.0964 577.0044,-473.5468 573.5133,-470.9187"/>
<polygon fill="#000000" stroke="#000000" points="575.5298,-468.0535 565.4813,-464.6951 571.2423,-473.5868 575.5298,-468.0535"/>
<text text-anchor="middle" x="640.5073" y="-500.6587" font-family="Times,serif" font-size="14.00" fill="#000000">4</text>
</g>
<!-- 116653 -->
<g id="node17" class="node">
<title>116653</title>
<ellipse fill="none" stroke="#000000" cx="633.0073" cy="-438.4514" rx="40.0147" ry="40.0147"/>
<text text-anchor="middle" x="633.0073" y="-434.2514" font-family="Times,serif" font-size="14.00" fill="#000000">116653</text>
</g>
<!-- 116319&#45;&gt;116653 -->
<g id="edge12" class="edge">
<title>116319&#45;&gt;116653</title>
<path fill="none" stroke="#000000" d="M720.7136,-543.9833C710.9776,-534.5225 700.2649,-523.6723 691.0073,-513.2587 681.4305,-502.486 671.6076,-490.3136 662.8314,-478.9653"/>
<polygon fill="#000000" stroke="#000000" points="665.5008,-476.6944 656.6444,-470.8794 659.9415,-480.9482 665.5008,-476.6944"/>
<text text-anchor="middle" x="694.5073" y="-500.6587" font-family="Times,serif" font-size="14.00" fill="#000000">4</text>
</g>
<!-- 116343 -->
<g id="node18" class="node">
<title>116343</title>
<ellipse fill="none" stroke="#000000" cx="829.0073" cy="-438.4514" rx="40.0147" ry="40.0147"/>
<text text-anchor="middle" x="829.0073" y="-434.2514" font-family="Times,serif" font-size="14.00" fill="#000000">116343</text>
</g>
<!-- 116319&#45;&gt;116343 -->
<g id="edge13" class="edge">
<title>116319&#45;&gt;116343</title>
<path fill="none" stroke="#000000" d="M719.8936,-544.7816C706.612,-529.8955 696.3663,-511.3683 708.0073,-496.4587 728.3066,-470.4599 750.5225,-493.2453 780.0073,-478.4587 783.8176,-476.5479 787.5988,-474.2969 791.2721,-471.8528"/>
<polygon fill="#000000" stroke="#000000" points="793.527,-474.5426 799.6106,-465.8685 789.4456,-468.8556 793.527,-474.5426"/>
<text text-anchor="middle" x="711.5073" y="-500.6587" font-family="Times,serif" font-size="14.00" fill="#000000">4</text>
</g>
<!-- 116327 -->
<g id="node19" class="node">
<title>116327</title>
<ellipse fill="none" stroke="#000000" cx="1025.0073" cy="-438.4514" rx="40.0147" ry="40.0147"/>
<text text-anchor="middle" x="1025.0073" y="-434.2514" font-family="Times,serif" font-size="14.00" fill="#000000">116327</text>
</g>
<!-- 116319&#45;&gt;116327 -->
<g id="edge14" class="edge">
<title>116319&#45;&gt;116327</title>
<path fill="none" stroke="#000000" d="M732.7117,-534.8445C728.9555,-521.2654 728.5275,-506.6827 738.0073,-496.4587 774.0703,-457.5653 926.7529,-498.1371 976.0073,-478.4587 980.023,-476.8544 983.9626,-474.7971 987.7545,-472.4642"/>
<polygon fill="#000000" stroke="#000000" points="990.0327,-475.1458 996.3005,-466.6038 986.0739,-469.3728 990.0327,-475.1458"/>
<text text-anchor="middle" x="741.5073" y="-500.6587" font-family="Times,serif" font-size="14.00" fill="#000000">4</text>
</g>
<!-- 116572 -->
<g id="node20" class="node">
<title>116572</title>
<ellipse fill="none" stroke="#000000" cx="1123.0073" cy="-438.4514" rx="40.0147" ry="40.0147"/>
<text text-anchor="middle" x="1123.0073" y="-434.2514" font-family="Times,serif" font-size="14.00" fill="#000000">116572</text>
</g>
<!-- 116319&#45;&gt;116572 -->
<g id="edge16" class="edge">
<title>116319&#45;&gt;116572</title>
<path fill="none" stroke="#000000" d="M764.9795,-534.0454C772.6656,-519.831 783.5183,-505.0012 798.0073,-496.4587 850.9539,-465.2427 1016.8131,-500.9664 1074.0073,-478.4587 1078.0313,-476.8752 1081.9765,-474.8323 1085.7722,-472.5089"/>
<polygon fill="#000000" stroke="#000000" points="1088.0439,-475.1956 1094.3237,-466.6625 1084.0932,-469.417 1088.0439,-475.1956"/>
<text text-anchor="middle" x="801.5073" y="-500.6587" font-family="Times,serif" font-size="14.00" fill="#000000">4</text>
</g>
<!-- 116416 -->
<g id="node21" class="node">
<title>116416</title>
<ellipse fill="none" stroke="#000000" cx="731.0073" cy="-438.4514" rx="40.0147" ry="40.0147"/>
<text text-anchor="middle" x="731.0073" y="-434.2514" font-family="Times,serif" font-size="14.00" fill="#000000">116416</text>
</g>
<!-- 116319&#45;&gt;116416 -->
<g id="edge17" class="edge">
<title>116319&#45;&gt;116416</title>
<path fill="none" stroke="#000000" d="M782.8367,-547.9288C798.4725,-533.7678 812.0006,-514.9168 803.0073,-496.4587 797.3218,-484.7896 790.1464,-486.5639 780.0073,-478.4587 776.7262,-475.8358 773.3316,-473.1034 769.9308,-470.353"/>
<polygon fill="#000000" stroke="#000000" points="772.005,-467.5289 762.0345,-463.9455 767.5942,-472.9644 772.005,-467.5289"/>
<text text-anchor="middle" x="808.5073" y="-500.6587" font-family="Times,serif" font-size="14.00" fill="#000000">4</text>
</g>
<!-- 116432 -->
<g id="node22" class="node">
<title>116432</title>
<ellipse fill="none" stroke="#000000" cx="927.0073" cy="-438.4514" rx="40.0147" ry="40.0147"/>
<text text-anchor="middle" x="927.0073" y="-434.2514" font-family="Times,serif" font-size="14.00" fill="#000000">116432</text>
</g>
<!-- 116319&#45;&gt;116432 -->
<g id="edge18" class="edge">
<title>116319&#45;&gt;116432</title>
<path fill="none" stroke="#000000" d="M783.0066,-548.126C809.0838,-529.6522 846.2508,-502.9035 878.0073,-478.4587 881.3361,-475.8964 884.764,-473.2066 888.1872,-470.4847"/>
<polygon fill="#000000" stroke="#000000" points="890.5091,-473.109 896.117,-464.1199 886.1275,-467.6499 890.5091,-473.109"/>
<text text-anchor="middle" x="856.5073" y="-500.6587" font-family="Times,serif" font-size="14.00" fill="#000000">4</text>
</g>
<!-- 117889 -->
<g id="node23" class="node">
<title>117889</title>
<ellipse fill="none" stroke="#000000" cx="1221.0073" cy="-438.4514" rx="40.0147" ry="40.0147"/>
<text text-anchor="middle" x="1221.0073" y="-434.2514" font-family="Times,serif" font-size="14.00" fill="#000000">117889</text>
</g>
<!-- 116319&#45;&gt;117889 -->
<g id="edge19" class="edge">
<title>116319&#45;&gt;117889</title>
<path fill="none" stroke="#fe0300" d="M790.1202,-568.6508C867.5574,-562.2945 1041.5105,-541.5912 1172.0073,-478.4587 1175.8444,-476.6024 1179.6443,-474.3894 1183.3301,-471.9704"/>
<polygon fill="#fe0300" stroke="#fe0300" points="1185.5687,-474.6732 1191.687,-466.0236 1181.5101,-468.9699 1185.5687,-474.6732"/>
<text text-anchor="middle" x="1132.5073" y="-500.6587" font-family="Times,serif" font-size="14.00" fill="#000000">4</text>
</g>
<!-- 117901 -->
<g id="node24" class="node">
<title>117901</title>
<ellipse fill="none" stroke="#000000" cx="1319.0073" cy="-438.4514" rx="40.0147" ry="40.0147"/>
<text text-anchor="middle" x="1319.0073" y="-434.2514" font-family="Times,serif" font-size="14.00" fill="#000000">117901</text>
</g>
<!-- 116319&#45;&gt;117901 -->
<g id="edge20" class="edge">
<title>116319&#45;&gt;117901</title>
<path fill="none" stroke="#000000" d="M789.8532,-566.8601C860.7236,-558.6863 1013.1619,-539.5805 1140.0073,-513.2587 1198.5718,-501.106 1216.7659,-505.7138 1270.0073,-478.4587 1273.8016,-476.5164 1277.5717,-474.2434 1281.2376,-471.7847"/>
<polygon fill="#000000" stroke="#000000" points="1283.5018,-474.4671 1289.5652,-465.7788 1279.4071,-468.7896 1283.5018,-474.4671"/>
<text text-anchor="middle" x="1227.5073" y="-500.6587" font-family="Times,serif" font-size="14.00" fill="#000000">4</text>
</g>
<!-- 116378 -->
<g id="node7" class="node">
<title>116378</title>
<ellipse fill="none" stroke="#000000" cx="1025.0073" cy="-305.6367" rx="40.0147" ry="40.0147"/>
<text text-anchor="middle" x="1025.0073" y="-301.4367" font-family="Times,serif" font-size="14.00" fill="#000000">116378</text>
</g>
<!-- 113034 -->
<g id="node8" class="node">
<title>113034</title>
<ellipse fill="none" stroke="#000000" cx="236.0073" cy="-704.0808" rx="40.0147" ry="40.0147"/>
<text text-anchor="middle" x="236.0073" y="-699.8808" font-family="Times,serif" font-size="14.00" fill="#000000">113034</text>
</g>
<!-- 113042 -->
<g id="node9" class="node">
<title>113042</title>
<ellipse fill="none" stroke="#000000" cx="138.0073" cy="-571.2661" rx="40.0147" ry="40.0147"/>
<text text-anchor="middle" x="138.0073" y="-567.0661" font-family="Times,serif" font-size="14.00" fill="#000000">113042</text>
</g>
<!-- 113034&#45;&gt;113042 -->
<g id="edge5" class="edge">
<title>113034&#45;&gt;113042</title>
<path fill="none" stroke="#000000" d="M212.0338,-671.5906C198.8051,-653.6623 182.2497,-631.2256 168.1516,-612.1192"/>
<polygon fill="#000000" stroke="#000000" points="170.8267,-609.8496 162.073,-603.8811 165.1941,-614.0058 170.8267,-609.8496"/>
<text text-anchor="middle" x="196.5073" y="-633.4734" font-family="Times,serif" font-size="14.00" fill="#000000">6</text>
</g>
<!-- 115045 -->
<g id="node10" class="node">
<title>115045</title>
<ellipse fill="none" stroke="#000000" cx="236.0073" cy="-571.2661" rx="40.0147" ry="40.0147"/>
<text text-anchor="middle" x="236.0073" y="-567.0661" font-family="Times,serif" font-size="14.00" fill="#000000">115045</text>
</g>
<!-- 113034&#45;&gt;115045 -->
<g id="edge6" class="edge">
<title>113034&#45;&gt;115045</title>
<path fill="none" stroke="#000000" d="M236.0073,-663.8715C236.0073,-650.4782 236.0073,-635.3917 236.0073,-621.3445"/>
<polygon fill="#000000" stroke="#000000" points="239.5074,-621.3386 236.0073,-611.3386 232.5074,-621.3387 239.5074,-621.3386"/>
<text text-anchor="middle" x="239.5073" y="-633.4734" font-family="Times,serif" font-size="14.00" fill="#000000">6</text>
</g>
<!-- 113034&#45;&gt;117536 -->
<g id="edge7" class="edge">
<title>113034&#45;&gt;117536</title>
<path fill="none" stroke="#000000" d="M260.2526,-672.0397C296.9239,-623.5771 366.4553,-531.6887 406.5101,-478.7546"/>
<polygon fill="#000000" stroke="#000000" points="409.4329,-480.6924 412.6761,-470.6061 403.8509,-476.4685 409.4329,-480.6924"/>
<text text-anchor="middle" x="370.5073" y="-567.0661" font-family="Times,serif" font-size="14.00" fill="#000000">6</text>
</g>
<!-- 113417 -->
<g id="node12" class="node">
<title>113417</title>
<ellipse fill="none" stroke="#000000" cx="138.0073" cy="-438.4514" rx="40.0147" ry="40.0147"/>
<text text-anchor="middle" x="138.0073" y="-434.2514" font-family="Times,serif" font-size="14.00" fill="#000000">113417</text>
</g>
<!-- 113042&#45;&gt;113417 -->
<g id="edge8" class="edge">
<title>113042&#45;&gt;113417</title>
<path fill="none" stroke="#000000" d="M138.0073,-531.0569C138.0073,-517.6635 138.0073,-502.577 138.0073,-488.5298"/>
<polygon fill="#000000" stroke="#000000" points="141.5074,-488.5239 138.0073,-478.5239 134.5074,-488.524 141.5074,-488.5239"/>
<text text-anchor="middle" x="141.5073" y="-500.6587" font-family="Times,serif" font-size="14.00" fill="#000000">6</text>
</g>
<!-- 115045&#45;&gt;117943 -->
<g id="edge27" class="edge">
<title>115045&#45;&gt;117943</title>
<path fill="none" stroke="#000000" d="M259.4305,-538.5597C269.0472,-525.3565 280.3964,-510.0569 291.0073,-496.4587 295.9264,-490.1548 301.2354,-483.5514 306.467,-477.1516"/>
<polygon fill="#000000" stroke="#000000" points="309.3654,-479.1376 313.0172,-469.192 303.9603,-474.6896 309.3654,-479.1376"/>
<text text-anchor="middle" x="294.5073" y="-500.6587" font-family="Times,serif" font-size="14.00" fill="#000000">4</text>
</g>
<!-- 116394&#45;&gt;116416 -->
<g id="edge24" class="edge">
<title>116394&#45;&gt;116416</title>
<path fill="none" stroke="#000000" d="M524.9371,-535.0491C521.2119,-521.4982 520.7462,-506.8813 530.0073,-496.4587 552.6003,-471.0324 650.6957,-491.7447 682.0073,-478.4587 686.0987,-476.7227 690.121,-474.5358 693.9938,-472.0839"/>
<polygon fill="#000000" stroke="#000000" points="695.9979,-474.9534 702.2022,-466.3653 691.9964,-469.2099 695.9979,-474.9534"/>
<text text-anchor="middle" x="533.5073" y="-500.6587" font-family="Times,serif" font-size="14.00" fill="#000000">4</text>
</g>
<!-- 116394&#45;&gt;116432 -->
<g id="edge25" class="edge">
<title>116394&#45;&gt;116432</title>
<path fill="none" stroke="#000000" d="M542.5587,-530.9311C544.8634,-518.0413 549.8554,-504.9336 560.0073,-496.4587 587.175,-473.7791 845.0204,-491.2769 878.0073,-478.4587 882.038,-476.8925 885.988,-474.8616 889.7867,-472.546"/>
<polygon fill="#000000" stroke="#000000" points="892.053,-475.2369 898.3428,-466.7111 888.1091,-469.4537 892.053,-475.2369"/>
<text text-anchor="middle" x="563.5073" y="-500.6587" font-family="Times,serif" font-size="14.00" fill="#000000">4</text>
</g>
<!-- 117935 -->
<g id="node31" class="node">
<title>117935</title>
<ellipse fill="none" stroke="#000000" cx="541.0073" cy="-172.822" rx="40.0147" ry="40.0147"/>
<text text-anchor="middle" x="541.0073" y="-168.622" font-family="Times,serif" font-size="14.00" fill="#000000">117935</text>
</g>
<!-- 116394&#45;&gt;117935 -->
<g id="edge23" class="edge">
<title>116394&#45;&gt;117935</title>
<path fill="none" stroke="#000000" d="M502.9052,-562.5884C438.5707,-547.4307 315.0095,-514.3104 290.0073,-478.4587 212.2601,-366.9735 404.825,-245.1556 496.1512,-195.643"/>
<polygon fill="#000000" stroke="#000000" points="498.0262,-198.6091 505.1873,-190.8009 494.7199,-192.4391 498.0262,-198.6091"/>
<text text-anchor="middle" x="293.5073" y="-367.8441" font-family="Times,serif" font-size="14.00" fill="#000000">4</text>
</g>
<!-- 116441 -->
<g id="node15" class="node">
<title>116441</title>
<ellipse fill="none" stroke="#000000" cx="1221.0073" cy="-305.6367" rx="40.0147" ry="40.0147"/>
<text text-anchor="middle" x="1221.0073" y="-301.4367" font-family="Times,serif" font-size="14.00" fill="#000000">116441</text>
</g>
<!-- 116343&#45;&gt;117951 -->
<g id="edge22" class="edge">
<title>116343&#45;&gt;117951</title>
<path fill="none" stroke="#000000" d="M829.0073,-398.2422C829.0073,-384.8489 829.0073,-369.7623 829.0073,-355.7151"/>
<polygon fill="#000000" stroke="#000000" points="832.5074,-355.7092 829.0073,-345.7093 825.5074,-355.7093 832.5074,-355.7092"/>
<text text-anchor="middle" x="832.5073" y="-367.8441" font-family="Times,serif" font-size="14.00" fill="#000000">4</text>
</g>
<!-- 116327&#45;&gt;116378 -->
<g id="edge26" class="edge">
<title>116327&#45;&gt;116378</title>
<path fill="none" stroke="#000000" d="M1025.0073,-398.2422C1025.0073,-384.8489 1025.0073,-369.7623 1025.0073,-355.7151"/>
<polygon fill="#000000" stroke="#000000" points="1028.5074,-355.7092 1025.0073,-345.7093 1021.5074,-355.7093 1028.5074,-355.7092"/>
<text text-anchor="middle" x="1028.5073" y="-367.8441" font-family="Times,serif" font-size="14.00" fill="#000000">4</text>
</g>
<!-- 117927 -->
<g id="node32" class="node">
<title>117927</title>
<ellipse fill="none" stroke="#000000" cx="1123.0073" cy="-305.6367" rx="40.0147" ry="40.0147"/>
<text text-anchor="middle" x="1123.0073" y="-301.4367" font-family="Times,serif" font-size="14.00" fill="#000000">117927</text>
</g>
<!-- 116572&#45;&gt;117927 -->
<g id="edge29" class="edge">
<title>116572&#45;&gt;117927</title>
<path fill="none" stroke="#000000" d="M1123.0073,-398.2422C1123.0073,-384.8489 1123.0073,-369.7623 1123.0073,-355.7151"/>
<polygon fill="#000000" stroke="#000000" points="1126.5074,-355.7092 1123.0073,-345.7093 1119.5074,-355.7093 1126.5074,-355.7092"/>
<text text-anchor="middle" x="1126.5073" y="-367.8441" font-family="Times,serif" font-size="14.00" fill="#000000">4</text>
</g>
<!-- 116432&#45;&gt;117951 -->
<g id="edge30" class="edge">
<title>116432&#45;&gt;117951</title>
<path fill="none" stroke="#000000" d="M903.0338,-405.9613C889.8051,-388.033 873.2497,-365.5963 859.1516,-346.4898"/>
<polygon fill="#000000" stroke="#000000" points="861.8267,-344.2203 853.073,-338.2517 856.1941,-348.3764 861.8267,-344.2203"/>
<text text-anchor="middle" x="886.5073" y="-367.8441" font-family="Times,serif" font-size="14.00" fill="#000000">4</text>
</g>
<!-- 117889&#45;&gt;116441 -->
<g id="edge31" class="edge">
<title>117889&#45;&gt;116441</title>
<path fill="none" stroke="#000000" d="M1221.0073,-398.2422C1221.0073,-384.8489 1221.0073,-369.7623 1221.0073,-355.7151"/>
<polygon fill="#000000" stroke="#000000" points="1224.5074,-355.7092 1221.0073,-345.7093 1217.5074,-355.7093 1224.5074,-355.7092"/>
<text text-anchor="middle" x="1224.5073" y="-367.8441" font-family="Times,serif" font-size="14.00" fill="#000000">4</text>
</g>
<!-- 117897 -->
<g id="node33" class="node">
<title>117897</title>
<ellipse fill="none" stroke="#000000" cx="1319.0073" cy="-305.6367" rx="40.0147" ry="40.0147"/>
<text text-anchor="middle" x="1319.0073" y="-301.4367" font-family="Times,serif" font-size="14.00" fill="#000000">117897</text>
</g>
<!-- 117889&#45;&gt;117897 -->
<g id="edge32" class="edge">
<title>117889&#45;&gt;117897</title>
<path fill="none" stroke="#fe0300" d="M1244.9808,-405.9613C1258.2096,-388.033 1274.765,-365.5963 1288.8631,-346.4898"/>
<polygon fill="#fe0300" stroke="#fe0300" points="1291.8206,-348.3764 1294.9417,-338.2517 1286.188,-344.2203 1291.8206,-348.3764"/>
<text text-anchor="middle" x="1278.5073" y="-367.8441" font-family="Times,serif" font-size="14.00" fill="#000000">4</text>
</g>
<!-- 117960 -->
<g id="node25" class="node">
<title>117960</title>
<ellipse fill="none" stroke="#000000" cx="541.0073" cy="-40.0073" rx="40.0147" ry="40.0147"/>
<text text-anchor="middle" x="541.0073" y="-35.8073" font-family="Times,serif" font-size="14.00" fill="#000000">117960</text>
</g>
<!-- 113450 -->
<g id="node26" class="node">
<title>113450</title>
<ellipse fill="none" stroke="#000000" cx="819.0073" cy="-836.8954" rx="40.0147" ry="40.0147"/>
<text text-anchor="middle" x="819.0073" y="-832.6954" font-family="Times,serif" font-size="14.00" fill="#000000">113450</text>
</g>
<!-- 117366 -->
<g id="node27" class="node">
<title>117366</title>
<ellipse fill="none" stroke="#000000" cx="819.0073" cy="-704.0808" rx="40.0147" ry="40.0147"/>
<text text-anchor="middle" x="819.0073" y="-699.8808" font-family="Times,serif" font-size="14.00" fill="#000000">117366</text>
</g>
<!-- 113450&#45;&gt;117366 -->
<g id="edge21" class="edge">
<title>113450&#45;&gt;117366</title>
<path fill="none" stroke="#000000" d="M819.0073,-796.6862C819.0073,-783.2929 819.0073,-768.2064 819.0073,-754.1591"/>
<polygon fill="#000000" stroke="#000000" points="822.5074,-754.1533 819.0073,-744.1533 815.5074,-754.1533 822.5074,-754.1533"/>
<text text-anchor="middle" x="822.5073" y="-766.2881" font-family="Times,serif" font-size="14.00" fill="#000000">4</text>
</g>
<!-- 113468 -->
<g id="node28" class="node">
<title>113468</title>
<ellipse fill="none" stroke="#000000" cx="917.0073" cy="-836.8954" rx="40.0147" ry="40.0147"/>
<text text-anchor="middle" x="917.0073" y="-832.6954" font-family="Times,serif" font-size="14.00" fill="#000000">113468</text>
</g>
<!-- 113093 -->
<g id="node29" class="node">
<title>113093</title>
<ellipse fill="none" stroke="#000000" cx="1015.0073" cy="-836.8954" rx="40.0147" ry="40.0147"/>
<text text-anchor="middle" x="1015.0073" y="-832.6954" font-family="Times,serif" font-size="14.00" fill="#000000">113093</text>
</g>
<!-- 117919 -->
<g id="node30" class="node">
<title>117919</title>
<ellipse fill="none" stroke="#000000" cx="1113.0073" cy="-836.8954" rx="40.0147" ry="40.0147"/>
<text text-anchor="middle" x="1113.0073" y="-832.6954" font-family="Times,serif" font-size="14.00" fill="#000000">117919</text>
</g>
<!-- 117935&#45;&gt;117960 -->
<g id="edge28" class="edge">
<title>117935&#45;&gt;117960</title>
<path fill="none" stroke="#fe0300" d="M541.0073,-132.6128C541.0073,-119.2195 541.0073,-104.133 541.0073,-90.0857"/>
<polygon fill="#fe0300" stroke="#fe0300" points="544.5074,-90.0799 541.0073,-80.0799 537.5074,-90.0799 544.5074,-90.0799"/>
<text text-anchor="middle" x="544.5073" y="-102.2147" font-family="Times,serif" font-size="14.00" fill="#000000">4</text>
</g>
<!-- 117897&#45;&gt;117935 -->
<g id="edge33" class="edge">
<title>117897&#45;&gt;117935</title>
<path fill="none" stroke="#fe0300" d="M1290.1813,-277.7719C1283.9354,-273.0291 1277.071,-268.6631 1270.0073,-265.6294 1147.0626,-212.826 736.1943,-184.2472 591.7519,-175.6445"/>
<polygon fill="#fe0300" stroke="#fe0300" points="591.6055,-172.1299 581.4171,-175.0361 591.1941,-179.1178 591.6055,-172.1299"/>
<text text-anchor="middle" x="1216.5073" y="-235.0294" font-family="Times,serif" font-size="14.00" fill="#000000">4</text>
</g>
</g>
</svg>
