<?xml version="1.0" encoding="UTF-8" standalone="no"?>
<!DOCTYPE svg PUBLIC "-//W3C//DTD SVG 1.1//EN"
 "http://www.w3.org/Graphics/SVG/1.1/DTD/svg11.dtd">
<!-- Generated by graphviz version 2.40.1 (20161225.0304)
 -->
<!-- Title: finite_state_machine Pages: 1 -->
<svg width="1296pt" height="716pt"
 viewBox="0.00 0.00 1296.00 715.64" xmlns="http://www.w3.org/2000/svg" xmlns:xlink="http://www.w3.org/1999/xlink">
<g id="graph0" class="graph" transform="scale(.9515 .9515) rotate(0) translate(4 748.0881)">
<title>finite_state_machine</title>
<polygon fill="#ffffff" stroke="transparent" points="-4,4 -4,-748.0881 1358.0147,-748.0881 1358.0147,4 -4,4"/>
<!-- 113107 -->
<g id="node1" class="node">
<title>113107</title>
<ellipse fill="none" stroke="#000000" cx="236.0073" cy="-571.2661" rx="40.0147" ry="40.0147"/>
<text text-anchor="middle" x="236.0073" y="-567.0661" font-family="Times,serif" font-size="14.00" fill="#000000">113107</text>
</g>
<!-- 116882 -->
<g id="node2" class="node">
<title>116882</title>
<ellipse fill="none" stroke="#000000" cx="236.0073" cy="-438.4514" rx="40.0147" ry="40.0147"/>
<text text-anchor="middle" x="236.0073" y="-434.2514" font-family="Times,serif" font-size="14.00" fill="#000000">116882</text>
</g>
<!-- 113107&#45;&gt;116882 -->
<g id="edge1" class="edge">
<title>113107&#45;&gt;116882</title>
<path fill="none" stroke="#000000" d="M236.0073,-531.0569C236.0073,-517.6635 236.0073,-502.577 236.0073,-488.5298"/>
<polygon fill="#000000" stroke="#000000" points="239.5074,-488.5239 236.0073,-478.5239 232.5074,-488.524 239.5074,-488.5239"/>
<text text-anchor="middle" x="239.5073" y="-500.6587" font-family="Times,serif" font-size="14.00" fill="#000000">4</text>
</g>
<!-- 117951 -->
<g id="node6" class="node">
<title>117951</title>
<ellipse fill="none" stroke="#000000" cx="236.0073" cy="-305.6367" rx="40.0147" ry="40.0147"/>
<text text-anchor="middle" x="236.0073" y="-301.4367" font-family="Times,serif" font-size="14.00" fill="#000000">117951</text>
</g>
<!-- 116882&#45;&gt;117951 -->
<g id="edge4" class="edge">
<title>116882&#45;&gt;117951</title>
<path fill="none" stroke="#000000" d="M236.0073,-398.2422C236.0073,-384.8489 236.0073,-369.7623 236.0073,-355.7151"/>
<polygon fill="#000000" stroke="#000000" points="239.5074,-355.7092 236.0073,-345.7093 232.5074,-355.7093 239.5074,-355.7092"/>
<text text-anchor="middle" x="239.5073" y="-367.8441" font-family="Times,serif" font-size="14.00" fill="#000000">6</text>
</g>
<!-- 113476 -->
<g id="node3" class="node">
<title>113476</title>
<ellipse fill="none" stroke="#000000" cx="794.0073" cy="-704.0808" rx="40.0147" ry="40.0147"/>
<text text-anchor="middle" x="794.0073" y="-699.8808" font-family="Times,serif" font-size="14.00" fill="#000000">113476</text>
</g>
<!-- 129011 -->
<g id="node4" class="node">
<title>129011</title>
<ellipse fill="none" stroke="#000000" cx="662.0073" cy="-571.2661" rx="40.0147" ry="40.0147"/>
<text text-anchor="middle" x="662.0073" y="-567.0661" font-family="Times,serif" font-size="14.00" fill="#000000">129011</text>
</g>
<!-- 113476&#45;&gt;129011 -->
<g id="edge2" class="edge">
<title>113476&#45;&gt;129011</title>
<path fill="none" stroke="#000000" d="M765.69,-675.5887C745.7674,-655.5431 718.9556,-628.5658 697.5884,-607.0667"/>
<polygon fill="#000000" stroke="#000000" points="699.8096,-604.3366 690.2778,-599.711 694.8446,-609.2711 699.8096,-604.3366"/>
<text text-anchor="middle" x="739.5073" y="-633.4734" font-family="Times,serif" font-size="14.00" fill="#000000">6</text>
</g>
<!-- 116319 -->
<g id="node5" class="node">
<title>116319</title>
<ellipse fill="none" stroke="#000000" cx="824.0073" cy="-571.2661" rx="40.0147" ry="40.0147"/>
<text text-anchor="middle" x="824.0073" y="-567.0661" font-family="Times,serif" font-size="14.00" fill="#000000">116319</text>
</g>
<!-- 113476&#45;&gt;116319 -->
<g id="edge3" class="edge">
<title>113476&#45;&gt;116319</title>
<path fill="none" stroke="#000000" d="M792.7056,-664.0767C793.1156,-652.7028 794.3123,-640.3895 797.0073,-629.2734 798.0665,-624.9046 799.4656,-620.4675 801.0706,-616.0928"/>
<polygon fill="#000000" stroke="#000000" points="804.3775,-617.2502 804.8611,-606.6664 797.8829,-614.6386 804.3775,-617.2502"/>
<text text-anchor="middle" x="800.5073" y="-633.4734" font-family="Times,serif" font-size="14.00" fill="#000000">6</text>
</g>
<!-- 113476&#45;&gt;116319 -->
<g id="edge30" class="edge">
<title>113476&#45;&gt;116319</title>
<path fill="none" stroke="#fe0300" d="M802.8461,-664.9503C805.9917,-651.0241 809.5749,-635.1608 812.8871,-620.4972"/>
<polygon fill="#fe0300" stroke="#fe0300" points="816.3388,-621.1012 815.1281,-610.5758 809.5108,-619.5589 816.3388,-621.1012"/>
<text text-anchor="middle" x="814.5073" y="-633.4734" font-family="Times,serif" font-size="14.00" fill="#000000">6</text>
</g>
<!-- 116394 -->
<g id="node12" class="node">
<title>116394</title>
<ellipse fill="none" stroke="#000000" cx="628.0073" cy="-438.4514" rx="40.0147" ry="40.0147"/>
<text text-anchor="middle" x="628.0073" y="-434.2514" font-family="Times,serif" font-size="14.00" fill="#000000">116394</text>
</g>
<!-- 129011&#45;&gt;116394 -->
<g id="edge8" class="edge">
<title>129011&#45;&gt;116394</title>
<path fill="none" stroke="#000000" d="M640.6418,-537.361C636.7494,-529.6994 633.224,-521.4126 631.0073,-513.2587 628.8741,-505.4118 627.6044,-496.9324 626.9035,-488.5983"/>
<polygon fill="#000000" stroke="#000000" points="630.394,-488.3333 626.3108,-478.5569 623.4062,-488.7458 630.394,-488.3333"/>
<text text-anchor="middle" x="634.5073" y="-500.6587" font-family="Times,serif" font-size="14.00" fill="#000000">4</text>
</g>
<!-- 117943 -->
<g id="node13" class="node">
<title>117943</title>
<ellipse fill="none" stroke="#000000" cx="334.0073" cy="-438.4514" rx="40.0147" ry="40.0147"/>
<text text-anchor="middle" x="334.0073" y="-434.2514" font-family="Times,serif" font-size="14.00" fill="#000000">117943</text>
</g>
<!-- 116319&#45;&gt;117943 -->
<g id="edge9" class="edge">
<title>116319&#45;&gt;117943</title>
<path fill="none" stroke="#000000" d="M786.8654,-556.2041C765.0681,-547.8495 736.8181,-537.8477 711.0073,-531.2587 567.9409,-494.7369 517.6988,-538.957 383.0073,-478.4587 378.9531,-476.6377 374.9562,-474.3927 371.0998,-471.9032"/>
<polygon fill="#000000" stroke="#000000" points="373.104,-469.0338 362.9141,-466.1324 369.0706,-474.755 373.104,-469.0338"/>
<text text-anchor="middle" x="525.5073" y="-500.6587" font-family="Times,serif" font-size="14.00" fill="#000000">4</text>
</g>
<!-- 116726 -->
<g id="node15" class="node">
<title>116726</title>
<ellipse fill="none" stroke="#000000" cx="432.0073" cy="-438.4514" rx="40.0147" ry="40.0147"/>
<text text-anchor="middle" x="432.0073" y="-434.2514" font-family="Times,serif" font-size="14.00" fill="#000000">116726</text>
</g>
<!-- 116319&#45;&gt;116726 -->
<g id="edge10" class="edge">
<title>116319&#45;&gt;116726</title>
<path fill="none" stroke="#000000" d="M786.2275,-557.8858C738.5384,-540.9869 662.4785,-514.0001 661.0073,-513.2587 649.0527,-507.2343 648.5658,-501.0949 636.0073,-496.4587 570.9473,-472.4406 544.8803,-505.4758 481.0073,-478.4587 476.9141,-476.7274 472.8904,-474.5436 469.0167,-472.0938"/>
<polygon fill="#000000" stroke="#000000" points="471.0138,-469.2195 460.8071,-466.3779 467.014,-474.9642 471.0138,-469.2195"/>
<text text-anchor="middle" x="664.5073" y="-500.6587" font-family="Times,serif" font-size="14.00" fill="#000000">4</text>
</g>
<!-- 116343 -->
<g id="node16" class="node">
<title>116343</title>
<ellipse fill="none" stroke="#000000" cx="530.0073" cy="-438.4514" rx="40.0147" ry="40.0147"/>
<text text-anchor="middle" x="530.0073" y="-434.2514" font-family="Times,serif" font-size="14.00" fill="#000000">116343</text>
</g>
<!-- 116319&#45;&gt;116343 -->
<g id="edge11" class="edge">
<title>116319&#45;&gt;116343</title>
<path fill="none" stroke="#000000" d="M789.0653,-551.2413C758.3317,-534.4071 711.9268,-510.8499 669.0073,-496.4587 630.3315,-483.4905 615.8958,-495.8725 579.0073,-478.4587 575.1527,-476.6391 571.3406,-474.4516 567.6467,-472.0497"/>
<polygon fill="#000000" stroke="#000000" points="569.4626,-469.047 559.2778,-466.128 565.4193,-474.7612 569.4626,-469.047"/>
<text text-anchor="middle" x="712.5073" y="-500.6587" font-family="Times,serif" font-size="14.00" fill="#000000">4</text>
</g>
<!-- 116327 -->
<g id="node17" class="node">
<title>116327</title>
<ellipse fill="none" stroke="#000000" cx="726.0073" cy="-438.4514" rx="40.0147" ry="40.0147"/>
<text text-anchor="middle" x="726.0073" y="-434.2514" font-family="Times,serif" font-size="14.00" fill="#000000">116327</text>
</g>
<!-- 116319&#45;&gt;116327 -->
<g id="edge12" class="edge">
<title>116319&#45;&gt;116327</title>
<path fill="none" stroke="#000000" d="M800.0338,-538.776C786.8051,-520.8477 770.2497,-498.4109 756.1516,-479.3045"/>
<polygon fill="#000000" stroke="#000000" points="758.8267,-477.035 750.073,-471.0664 753.1941,-481.1911 758.8267,-477.035"/>
<text text-anchor="middle" x="784.5073" y="-500.6587" font-family="Times,serif" font-size="14.00" fill="#000000">4</text>
</g>
<!-- 117536 -->
<g id="node18" class="node">
<title>117536</title>
<ellipse fill="none" stroke="#000000" cx="824.0073" cy="-438.4514" rx="40.0147" ry="40.0147"/>
<text text-anchor="middle" x="824.0073" y="-434.2514" font-family="Times,serif" font-size="14.00" fill="#000000">117536</text>
</g>
<!-- 116319&#45;&gt;117536 -->
<g id="edge13" class="edge">
<title>116319&#45;&gt;117536</title>
<path fill="none" stroke="#000000" d="M824.0073,-531.0569C824.0073,-517.6635 824.0073,-502.577 824.0073,-488.5298"/>
<polygon fill="#000000" stroke="#000000" points="827.5074,-488.5239 824.0073,-478.5239 820.5074,-488.524 827.5074,-488.5239"/>
<text text-anchor="middle" x="827.5073" y="-500.6587" font-family="Times,serif" font-size="14.00" fill="#000000">4</text>
</g>
<!-- 116572 -->
<g id="node19" class="node">
<title>116572</title>
<ellipse fill="none" stroke="#000000" cx="922.0073" cy="-438.4514" rx="40.0147" ry="40.0147"/>
<text text-anchor="middle" x="922.0073" y="-434.2514" font-family="Times,serif" font-size="14.00" fill="#000000">116572</text>
</g>
<!-- 116319&#45;&gt;116572 -->
<g id="edge14" class="edge">
<title>116319&#45;&gt;116572</title>
<path fill="none" stroke="#000000" d="M847.9808,-538.776C861.2096,-520.8477 877.765,-498.4109 891.8631,-479.3045"/>
<polygon fill="#000000" stroke="#000000" points="894.8206,-481.1911 897.9417,-471.0664 889.188,-477.035 894.8206,-481.1911"/>
<text text-anchor="middle" x="881.5073" y="-500.6587" font-family="Times,serif" font-size="14.00" fill="#000000">4</text>
</g>
<!-- 116416 -->
<g id="node20" class="node">
<title>116416</title>
<ellipse fill="none" stroke="#000000" cx="830.0073" cy="-305.6367" rx="40.0147" ry="40.0147"/>
<text text-anchor="middle" x="830.0073" y="-301.4367" font-family="Times,serif" font-size="14.00" fill="#000000">116416</text>
</g>
<!-- 116319&#45;&gt;116416 -->
<g id="edge15" class="edge">
<title>116319&#45;&gt;116416</title>
<path fill="none" stroke="#000000" d="M854.4286,-544.9442C860.4324,-540.179 866.7996,-535.4102 873.0073,-531.2587 914.1333,-503.7556 945.6424,-520.9369 971.0073,-478.4587 989.2394,-447.9259 988.6056,-429.3465 971.0073,-398.4441 965.3174,-388.4525 891.5256,-352.0947 882.0073,-345.6441 877.9764,-342.9122 873.8416,-339.9771 869.7501,-336.9828"/>
<polygon fill="#000000" stroke="#000000" points="871.5682,-333.9725 861.4597,-330.7996 867.3832,-339.5838 871.5682,-333.9725"/>
<text text-anchor="middle" x="987.5073" y="-434.2514" font-family="Times,serif" font-size="14.00" fill="#000000">4</text>
</g>
<!-- 117889 -->
<g id="node21" class="node">
<title>117889</title>
<ellipse fill="none" stroke="#000000" cx="1063.0073" cy="-438.4514" rx="40.0147" ry="40.0147"/>
<text text-anchor="middle" x="1063.0073" y="-434.2514" font-family="Times,serif" font-size="14.00" fill="#000000">117889</text>
</g>
<!-- 116319&#45;&gt;117889 -->
<g id="edge16" class="edge">
<title>116319&#45;&gt;117889</title>
<path fill="none" stroke="#000000" d="M852.8453,-543.429C859.0903,-538.6839 865.9512,-534.31 873.0073,-531.2587 928.9706,-507.0585 956.6668,-544.5316 1009.0073,-513.2587 1021.289,-505.9206 1031.5742,-494.5963 1039.7608,-482.9608"/>
<polygon fill="#000000" stroke="#000000" points="1042.7662,-484.761 1045.3496,-474.4859 1036.9224,-480.9073 1042.7662,-484.761"/>
<text text-anchor="middle" x="1031.5073" y="-500.6587" font-family="Times,serif" font-size="14.00" fill="#000000">4</text>
</g>
<!-- 116319&#45;&gt;117889 -->
<g id="edge31" class="edge">
<title>116319&#45;&gt;117889</title>
<path fill="none" stroke="#fe0300" d="M852.7509,-543.2045C859.0036,-538.4779 865.8916,-534.1683 873.0073,-531.2587 913.4926,-514.7049 1039.5274,-545.57 1069.0073,-513.2587 1075.6553,-505.9723 1077.8467,-496.4536 1077.6361,-486.66"/>
<polygon fill="#fe0300" stroke="#fe0300" points="1081.0928,-486.047 1076.6331,-476.4365 1074.1263,-486.7305 1081.0928,-486.047"/>
<text text-anchor="middle" x="1079.5073" y="-500.6587" font-family="Times,serif" font-size="14.00" fill="#000000">4</text>
</g>
<!-- 117901 -->
<g id="node22" class="node">
<title>117901</title>
<ellipse fill="none" stroke="#000000" cx="1161.0073" cy="-438.4514" rx="40.0147" ry="40.0147"/>
<text text-anchor="middle" x="1161.0073" y="-434.2514" font-family="Times,serif" font-size="14.00" fill="#000000">117901</text>
</g>
<!-- 116319&#45;&gt;117901 -->
<g id="edge17" class="edge">
<title>116319&#45;&gt;117901</title>
<path fill="none" stroke="#000000" d="M852.7891,-543.2969C859.0387,-538.5627 865.9157,-534.2266 873.0073,-531.2587 941.4643,-502.6089 969.2924,-538.6947 1039.0073,-513.2587 1051.5833,-508.6703 1052.1039,-502.5838 1064.0073,-496.4587 1084.2666,-486.0341 1092.2547,-489.814 1112.0073,-478.4587 1115.7027,-476.3344 1119.4039,-473.9345 1123.0242,-471.3916"/>
<polygon fill="#000000" stroke="#000000" points="1125.3402,-474.0313 1131.2839,-465.2607 1121.1681,-468.4105 1125.3402,-474.0313"/>
<text text-anchor="middle" x="1067.5073" y="-500.6587" font-family="Times,serif" font-size="14.00" fill="#000000">4</text>
</g>
<!-- 116378 -->
<g id="node7" class="node">
<title>116378</title>
<ellipse fill="none" stroke="#000000" cx="726.0073" cy="-305.6367" rx="40.0147" ry="40.0147"/>
<text text-anchor="middle" x="726.0073" y="-301.4367" font-family="Times,serif" font-size="14.00" fill="#000000">116378</text>
</g>
<!-- 113034 -->
<g id="node8" class="node">
<title>113034</title>
<ellipse fill="none" stroke="#000000" cx="195.0073" cy="-704.0808" rx="40.0147" ry="40.0147"/>
<text text-anchor="middle" x="195.0073" y="-699.8808" font-family="Times,serif" font-size="14.00" fill="#000000">113034</text>
</g>
<!-- 113042 -->
<g id="node9" class="node">
<title>113042</title>
<ellipse fill="none" stroke="#000000" cx="89.0073" cy="-571.2661" rx="40.0147" ry="40.0147"/>
<text text-anchor="middle" x="89.0073" y="-567.0661" font-family="Times,serif" font-size="14.00" fill="#000000">113042</text>
</g>
<!-- 113034&#45;&gt;113042 -->
<g id="edge5" class="edge">
<title>113034&#45;&gt;113042</title>
<path fill="none" stroke="#000000" d="M169.8868,-672.6055C155.1433,-654.1324 136.376,-630.6176 120.6319,-610.8906"/>
<polygon fill="#000000" stroke="#000000" points="123.2884,-608.6083 114.3149,-602.9756 117.8173,-612.9749 123.2884,-608.6083"/>
<text text-anchor="middle" x="152.5073" y="-633.4734" font-family="Times,serif" font-size="14.00" fill="#000000">6</text>
</g>
<!-- 115045 -->
<g id="node10" class="node">
<title>115045</title>
<ellipse fill="none" stroke="#000000" cx="334.0073" cy="-571.2661" rx="40.0147" ry="40.0147"/>
<text text-anchor="middle" x="334.0073" y="-567.0661" font-family="Times,serif" font-size="14.00" fill="#000000">115045</text>
</g>
<!-- 113034&#45;&gt;115045 -->
<g id="edge6" class="edge">
<title>113034&#45;&gt;115045</title>
<path fill="none" stroke="#000000" d="M224.1463,-676.2385C245.4601,-655.8731 274.5239,-628.1025 297.4045,-606.2402"/>
<polygon fill="#000000" stroke="#000000" points="300.0946,-608.5107 304.9067,-599.0717 295.2587,-603.4496 300.0946,-608.5107"/>
<text text-anchor="middle" x="276.5073" y="-633.4734" font-family="Times,serif" font-size="14.00" fill="#000000">6</text>
</g>
<!-- 113417 -->
<g id="node11" class="node">
<title>113417</title>
<ellipse fill="none" stroke="#000000" cx="40.0073" cy="-438.4514" rx="40.0147" ry="40.0147"/>
<text text-anchor="middle" x="40.0073" y="-434.2514" font-family="Times,serif" font-size="14.00" fill="#000000">113417</text>
</g>
<!-- 113042&#45;&gt;113417 -->
<g id="edge7" class="edge">
<title>113042&#45;&gt;113417</title>
<path fill="none" stroke="#000000" d="M75.097,-533.562C69.6141,-518.7007 63.2551,-501.4645 57.4685,-485.78"/>
<polygon fill="#000000" stroke="#000000" points="60.6975,-484.4202 53.9525,-476.2498 54.1302,-486.8431 60.6975,-484.4202"/>
<text text-anchor="middle" x="71.5073" y="-500.6587" font-family="Times,serif" font-size="14.00" fill="#000000">6</text>
</g>
<!-- 115045&#45;&gt;117943 -->
<g id="edge23" class="edge">
<title>115045&#45;&gt;117943</title>
<path fill="none" stroke="#000000" d="M334.0073,-531.0569C334.0073,-517.6635 334.0073,-502.577 334.0073,-488.5298"/>
<polygon fill="#000000" stroke="#000000" points="337.5074,-488.5239 334.0073,-478.5239 330.5074,-488.524 337.5074,-488.5239"/>
<text text-anchor="middle" x="337.5073" y="-500.6587" font-family="Times,serif" font-size="14.00" fill="#000000">4</text>
</g>
<!-- 116394&#45;&gt;116416 -->
<g id="edge21" class="edge">
<title>116394&#45;&gt;116416</title>
<path fill="none" stroke="#000000" d="M655.878,-409.125C671.911,-393.7154 693.1653,-375.5997 715.0073,-363.6441 739.429,-350.2764 750.0626,-358.0082 775.0073,-345.6441 780.2259,-343.0574 785.4755,-339.9822 790.5503,-336.7027"/>
<polygon fill="#000000" stroke="#000000" points="792.5821,-339.5537 798.8895,-331.0409 788.6502,-333.7623 792.5821,-339.5537"/>
<text text-anchor="middle" x="718.5073" y="-367.8441" font-family="Times,serif" font-size="14.00" fill="#000000">4</text>
</g>
<!-- 117935 -->
<g id="node30" class="node">
<title>117935</title>
<ellipse fill="none" stroke="#000000" cx="1097.0073" cy="-172.822" rx="40.0147" ry="40.0147"/>
<text text-anchor="middle" x="1097.0073" y="-168.622" font-family="Times,serif" font-size="14.00" fill="#000000">117935</text>
</g>
<!-- 116394&#45;&gt;117935 -->
<g id="edge20" class="edge">
<title>116394&#45;&gt;117935</title>
<path fill="none" stroke="#000000" d="M626.3803,-398.3262C627.0835,-359.0167 634.6505,-300.1344 670.0073,-265.6294 723.2968,-213.6237 945.9346,-186.8045 1046.8713,-177.1245"/>
<polygon fill="#000000" stroke="#000000" points="1047.4891,-180.5819 1057.1174,-176.1608 1046.8336,-173.6127 1047.4891,-180.5819"/>
<text text-anchor="middle" x="673.5073" y="-301.4367" font-family="Times,serif" font-size="14.00" fill="#000000">4</text>
</g>
<!-- 116441 -->
<g id="node14" class="node">
<title>116441</title>
<ellipse fill="none" stroke="#000000" cx="1029.0073" cy="-305.6367" rx="40.0147" ry="40.0147"/>
<text text-anchor="middle" x="1029.0073" y="-301.4367" font-family="Times,serif" font-size="14.00" fill="#000000">116441</text>
</g>
<!-- 116343&#45;&gt;117951 -->
<g id="edge19" class="edge">
<title>116343&#45;&gt;117951</title>
<path fill="none" stroke="#000000" d="M500.2738,-411.6596C494.1556,-406.884 487.5706,-402.2317 481.0073,-398.4441 416.9291,-361.465 335.3713,-334.0106 284.4146,-318.9059"/>
<polygon fill="#000000" stroke="#000000" points="285.2259,-315.4966 274.6456,-316.0505 283.262,-322.2155 285.2259,-315.4966"/>
<text text-anchor="middle" x="447.5073" y="-367.8441" font-family="Times,serif" font-size="14.00" fill="#000000">4</text>
</g>
<!-- 116327&#45;&gt;116378 -->
<g id="edge22" class="edge">
<title>116327&#45;&gt;116378</title>
<path fill="none" stroke="#000000" d="M726.0073,-398.2422C726.0073,-384.8489 726.0073,-369.7623 726.0073,-355.7151"/>
<polygon fill="#000000" stroke="#000000" points="729.5074,-355.7092 726.0073,-345.7093 722.5074,-355.7093 729.5074,-355.7092"/>
<text text-anchor="middle" x="729.5073" y="-367.8441" font-family="Times,serif" font-size="14.00" fill="#000000">4</text>
</g>
<!-- 117927 -->
<g id="node31" class="node">
<title>117927</title>
<ellipse fill="none" stroke="#000000" cx="931.0073" cy="-305.6367" rx="40.0147" ry="40.0147"/>
<text text-anchor="middle" x="931.0073" y="-301.4367" font-family="Times,serif" font-size="14.00" fill="#000000">117927</text>
</g>
<!-- 116572&#45;&gt;117927 -->
<g id="edge25" class="edge">
<title>116572&#45;&gt;117927</title>
<path fill="none" stroke="#000000" d="M924.7321,-398.2422C925.6396,-384.8489 926.662,-369.7623 927.6139,-355.7151"/>
<polygon fill="#000000" stroke="#000000" points="931.1077,-355.923 928.2919,-345.7093 924.1237,-355.4497 931.1077,-355.923"/>
<text text-anchor="middle" x="930.5073" y="-367.8441" font-family="Times,serif" font-size="14.00" fill="#000000">4</text>
</g>
<!-- 117889&#45;&gt;116441 -->
<g id="edge27" class="edge">
<title>117889&#45;&gt;116441</title>
<path fill="none" stroke="#000000" d="M1053.0817,-399.6789C1049.4826,-385.6193 1045.3685,-369.5484 1041.5717,-354.7171"/>
<polygon fill="#000000" stroke="#000000" points="1044.8749,-353.507 1039.0042,-344.6874 1038.0935,-355.243 1044.8749,-353.507"/>
<text text-anchor="middle" x="1051.5073" y="-367.8441" font-family="Times,serif" font-size="14.00" fill="#000000">4</text>
</g>
<!-- 117897 -->
<g id="node33" class="node">
<title>117897</title>
<ellipse fill="none" stroke="#000000" cx="1127.0073" cy="-305.6367" rx="40.0147" ry="40.0147"/>
<text text-anchor="middle" x="1127.0073" y="-301.4367" font-family="Times,serif" font-size="14.00" fill="#000000">117897</text>
</g>
<!-- 117889&#45;&gt;117897 -->
<g id="edge28" class="edge">
<title>117889&#45;&gt;117897</title>
<path fill="none" stroke="#000000" d="M1074.341,-400.0432C1078.3876,-388.1275 1083.3624,-375.1176 1089.0073,-363.6441 1091.7627,-358.0436 1094.9606,-352.3325 1098.3087,-346.7852"/>
<polygon fill="#000000" stroke="#000000" points="1101.3164,-348.5767 1103.6516,-338.2424 1095.3815,-344.8648 1101.3164,-348.5767"/>
<text text-anchor="middle" x="1092.5073" y="-367.8441" font-family="Times,serif" font-size="14.00" fill="#000000">4</text>
</g>
<!-- 117889&#45;&gt;117897 -->
<g id="edge32" class="edge">
<title>117889&#45;&gt;117897</title>
<path fill="none" stroke="#fe0300" d="M1083.6155,-403.8603C1087.892,-396.2414 1092.2391,-388.1455 1096.0073,-380.4441 1100.3179,-371.6342 1104.5814,-362.0703 1108.5032,-352.8176"/>
<polygon fill="#fe0300" stroke="#fe0300" points="1111.8398,-353.9097 1112.4542,-343.3327 1105.378,-351.2179 1111.8398,-353.9097"/>
<text text-anchor="middle" x="1106.5073" y="-367.8441" font-family="Times,serif" font-size="14.00" fill="#000000">4</text>
</g>
<!-- 117960 -->
<g id="node23" class="node">
<title>117960</title>
<ellipse fill="none" stroke="#000000" cx="1097.0073" cy="-40.0073" rx="40.0147" ry="40.0147"/>
<text text-anchor="middle" x="1097.0073" y="-35.8073" font-family="Times,serif" font-size="14.00" fill="#000000">117960</text>
</g>
<!-- 113450 -->
<g id="node24" class="node">
<title>113450</title>
<ellipse fill="none" stroke="#000000" cx="922.0073" cy="-704.0808" rx="40.0147" ry="40.0147"/>
<text text-anchor="middle" x="922.0073" y="-699.8808" font-family="Times,serif" font-size="14.00" fill="#000000">113450</text>
</g>
<!-- 117366 -->
<g id="node25" class="node">
<title>117366</title>
<ellipse fill="none" stroke="#000000" cx="922.0073" cy="-571.2661" rx="40.0147" ry="40.0147"/>
<text text-anchor="middle" x="922.0073" y="-567.0661" font-family="Times,serif" font-size="14.00" fill="#000000">117366</text>
</g>
<!-- 113450&#45;&gt;117366 -->
<g id="edge18" class="edge">
<title>113450&#45;&gt;117366</title>
<path fill="none" stroke="#000000" d="M922.0073,-663.8715C922.0073,-650.4782 922.0073,-635.3917 922.0073,-621.3445"/>
<polygon fill="#000000" stroke="#000000" points="925.5074,-621.3386 922.0073,-611.3386 918.5074,-621.3387 925.5074,-621.3386"/>
<text text-anchor="middle" x="925.5073" y="-633.4734" font-family="Times,serif" font-size="14.00" fill="#000000">4</text>
</g>
<!-- 116653 -->
<g id="node26" class="node">
<title>116653</title>
<ellipse fill="none" stroke="#000000" cx="1020.0073" cy="-704.0808" rx="40.0147" ry="40.0147"/>
<text text-anchor="middle" x="1020.0073" y="-699.8808" font-family="Times,serif" font-size="14.00" fill="#000000">116653</text>
</g>
<!-- 113468 -->
<g id="node27" class="node">
<title>113468</title>
<ellipse fill="none" stroke="#000000" cx="1118.0073" cy="-704.0808" rx="40.0147" ry="40.0147"/>
<text text-anchor="middle" x="1118.0073" y="-699.8808" font-family="Times,serif" font-size="14.00" fill="#000000">113468</text>
</g>
<!-- 113093 -->
<g id="node28" class="node">
<title>113093</title>
<ellipse fill="none" stroke="#000000" cx="1216.0073" cy="-704.0808" rx="40.0147" ry="40.0147"/>
<text text-anchor="middle" x="1216.0073" y="-699.8808" font-family="Times,serif" font-size="14.00" fill="#000000">113093</text>
</g>
<!-- 117919 -->
<g id="node29" class="node">
<title>117919</title>
<ellipse fill="none" stroke="#000000" cx="1314.0073" cy="-704.0808" rx="40.0147" ry="40.0147"/>
<text text-anchor="middle" x="1314.0073" y="-699.8808" font-family="Times,serif" font-size="14.00" fill="#000000">117919</text>
</g>
<!-- 117935&#45;&gt;117960 -->
<g id="edge24" class="edge">
<title>117935&#45;&gt;117960</title>
<path fill="none" stroke="#000000" d="M1086.8935,-134.1065C1084.9273,-122.5333 1083.802,-109.7912 1085.0073,-98.0147 1085.3018,-95.1374 1085.6765,-92.1921 1086.1101,-89.2286"/>
<polygon fill="#000000" stroke="#000000" points="1089.5975,-89.5924 1087.7807,-79.1545 1082.6918,-88.4472 1089.5975,-89.5924"/>
<text text-anchor="middle" x="1088.5073" y="-102.2147" font-family="Times,serif" font-size="14.00" fill="#000000">4</text>
</g>
<!-- 117935&#45;&gt;117960 -->
<g id="edge34" class="edge">
<title>117935&#45;&gt;117960</title>
<path fill="none" stroke="#fe0300" d="M1097.0073,-132.6128C1097.0073,-119.2195 1097.0073,-104.133 1097.0073,-90.0857"/>
<polygon fill="#fe0300" stroke="#fe0300" points="1100.5074,-90.0799 1097.0073,-80.0799 1093.5074,-90.0799 1100.5074,-90.0799"/>
<text text-anchor="middle" x="1100.5073" y="-102.2147" font-family="Times,serif" font-size="14.00" fill="#000000">4</text>
</g>
<!-- 116432 -->
<g id="node32" class="node">
<title>116432</title>
<ellipse fill="none" stroke="#000000" cx="138.0073" cy="-438.4514" rx="40.0147" ry="40.0147"/>
<text text-anchor="middle" x="138.0073" y="-434.2514" font-family="Times,serif" font-size="14.00" fill="#000000">116432</text>
</g>
<!-- 116432&#45;&gt;117951 -->
<g id="edge26" class="edge">
<title>116432&#45;&gt;117951</title>
<path fill="none" stroke="#000000" d="M161.9808,-405.9613C175.2096,-388.033 191.765,-365.5963 205.8631,-346.4898"/>
<polygon fill="#000000" stroke="#000000" points="208.8206,-348.3764 211.9417,-338.2517 203.188,-344.2203 208.8206,-348.3764"/>
<text text-anchor="middle" x="196.5073" y="-367.8441" font-family="Times,serif" font-size="14.00" fill="#000000">4</text>
</g>
<!-- 117897&#45;&gt;117935 -->
<g id="edge29" class="edge">
<title>117897&#45;&gt;117935</title>
<path fill="none" stroke="#000000" d="M1107.8611,-270.2364C1104.6884,-262.9475 1101.8395,-255.1862 1100.0073,-247.6294 1098.0913,-239.7266 1096.9326,-231.2186 1096.2755,-222.8733"/>
<polygon fill="#000000" stroke="#000000" points="1099.7664,-222.6118 1095.7056,-212.8261 1092.7776,-223.0083 1099.7664,-222.6118"/>
<text text-anchor="middle" x="1103.5073" y="-235.0294" font-family="Times,serif" font-size="14.00" fill="#000000">4</text>
</g>
<!-- 117897&#45;&gt;117935 -->
<g id="edge33" class="edge">
<title>117897&#45;&gt;117935</title>
<path fill="none" stroke="#fe0300" d="M1118.1686,-266.5063C1115.023,-252.5801 1111.4398,-236.7168 1108.1276,-222.0532"/>
<polygon fill="#fe0300" stroke="#fe0300" points="1111.5039,-221.1148 1105.8866,-212.1317 1104.6759,-222.6572 1111.5039,-221.1148"/>
<text text-anchor="middle" x="1116.5073" y="-235.0294" font-family="Times,serif" font-size="14.00" fill="#000000">4</text>
</g>
</g>
</svg>
