<?xml version="1.0" encoding="UTF-8" standalone="no"?>
<!DOCTYPE svg PUBLIC "-//W3C//DTD SVG 1.1//EN"
 "http://www.w3.org/Graphics/SVG/1.1/DTD/svg11.dtd">
<!-- Generated by graphviz version 2.40.1 (20161225.0304)
 -->
<!-- Title: finite_state_machine Pages: 1 -->
<svg width="1090pt" height="720pt"
 viewBox="0.00 0.00 1089.77 720.00" xmlns="http://www.w3.org/2000/svg" xmlns:xlink="http://www.w3.org/1999/xlink">
<g id="graph0" class="graph" transform="scale(.8831 .8831) rotate(0) translate(4 811.3028)">
<title>finite_state_machine</title>
<polygon fill="#ffffff" stroke="transparent" points="-4,4 -4,-811.3028 1230.0147,-811.3028 1230.0147,4 -4,4"/>
<!-- 113107 -->
<g id="node1" class="node">
<title>113107</title>
<ellipse fill="none" stroke="#000000" cx="138.0073" cy="-501.6661" rx="40.0147" ry="40.0147"/>
<text text-anchor="middle" x="138.0073" y="-497.4661" font-family="Times,serif" font-size="14.00" fill="#000000">113107</text>
</g>
<!-- 116882 -->
<g id="node2" class="node">
<title>116882</title>
<ellipse fill="none" stroke="#000000" cx="281.0073" cy="-305.6367" rx="40.0147" ry="40.0147"/>
<text text-anchor="middle" x="281.0073" y="-301.4367" font-family="Times,serif" font-size="14.00" fill="#000000">116882</text>
</g>
<!-- 113107&#45;&gt;116882 -->
<g id="edge1" class="edge">
<title>113107&#45;&gt;116882</title>
<path fill="none" stroke="#000000" d="M161.6209,-469.2958C186.15,-435.6704 224.5952,-382.9685 251.2013,-346.4959"/>
<polygon fill="#000000" stroke="#000000" points="254.2929,-348.1966 257.3587,-338.0551 248.6377,-344.0712 254.2929,-348.1966"/>
<text text-anchor="middle" x="238.5073" y="-399.4514" font-family="Times,serif" font-size="14.00" fill="#000000">4</text>
</g>
<!-- 117951 -->
<g id="node6" class="node">
<title>117951</title>
<ellipse fill="none" stroke="#000000" cx="500.0073" cy="-172.822" rx="40.0147" ry="40.0147"/>
<text text-anchor="middle" x="500.0073" y="-168.622" font-family="Times,serif" font-size="14.00" fill="#000000">117951</text>
</g>
<!-- 116882&#45;&gt;117951 -->
<g id="edge4" class="edge">
<title>116882&#45;&gt;117951</title>
<path fill="none" stroke="#000000" d="M315.2261,-284.8844C353.4442,-261.7067 415.3762,-224.1474 456.8796,-198.9772"/>
<polygon fill="#000000" stroke="#000000" points="458.9327,-201.8256 465.6682,-193.6473 455.3028,-195.8402 458.9327,-201.8256"/>
<text text-anchor="middle" x="407.5073" y="-235.0294" font-family="Times,serif" font-size="14.00" fill="#000000">6</text>
</g>
<!-- 113476 -->
<g id="node3" class="node">
<title>113476</title>
<ellipse fill="none" stroke="#000000" cx="764.0073" cy="-767.2954" rx="40.0147" ry="40.0147"/>
<text text-anchor="middle" x="764.0073" y="-763.0954" font-family="Times,serif" font-size="14.00" fill="#000000">113476</text>
</g>
<!-- 129011 -->
<g id="node4" class="node">
<title>129011</title>
<ellipse fill="none" stroke="#000000" cx="560.0073" cy="-634.4808" rx="40.0147" ry="40.0147"/>
<text text-anchor="middle" x="560.0073" y="-630.2808" font-family="Times,serif" font-size="14.00" fill="#000000">129011</text>
</g>
<!-- 113476&#45;&gt;129011 -->
<g id="edge2" class="edge">
<title>113476&#45;&gt;129011</title>
<path fill="none" stroke="#000000" d="M730.3209,-745.3638C695.3283,-722.5818 640.4835,-686.8749 602.5278,-662.1638"/>
<polygon fill="#000000" stroke="#000000" points="604.0339,-658.968 593.7438,-656.445 600.2146,-664.8343 604.0339,-658.968"/>
<text text-anchor="middle" x="678.5073" y="-696.6881" font-family="Times,serif" font-size="14.00" fill="#000000">6</text>
</g>
<!-- 116319 -->
<g id="node5" class="node">
<title>116319</title>
<ellipse fill="none" stroke="#000000" cx="794.0073" cy="-634.4808" rx="40.0147" ry="40.0147"/>
<text text-anchor="middle" x="794.0073" y="-630.2808" font-family="Times,serif" font-size="14.00" fill="#000000">116319</text>
</g>
<!-- 113476&#45;&gt;116319 -->
<g id="edge3" class="edge">
<title>113476&#45;&gt;116319</title>
<path fill="none" stroke="#000000" d="M762.7056,-727.2914C763.1156,-715.9175 764.3123,-703.6041 767.0073,-692.4881 768.0665,-688.1193 769.4656,-683.6822 771.0706,-679.3075"/>
<polygon fill="#000000" stroke="#000000" points="774.3775,-680.4649 774.8611,-669.8811 767.8829,-677.8533 774.3775,-680.4649"/>
<text text-anchor="middle" x="770.5073" y="-696.6881" font-family="Times,serif" font-size="14.00" fill="#000000">6</text>
</g>
<!-- 113476&#45;&gt;116319 -->
<g id="edge34" class="edge">
<title>113476&#45;&gt;116319</title>
<path fill="none" stroke="#fe0300" d="M772.8461,-728.165C775.9917,-714.2388 779.5749,-698.3755 782.8871,-683.7119"/>
<polygon fill="#fe0300" stroke="#fe0300" points="786.3388,-684.3159 785.1281,-673.7905 779.5108,-682.7736 786.3388,-684.3159"/>
<text text-anchor="middle" x="784.5073" y="-696.6881" font-family="Times,serif" font-size="14.00" fill="#000000">6</text>
</g>
<!-- 116394 -->
<g id="node13" class="node">
<title>116394</title>
<ellipse fill="none" stroke="#000000" cx="568.0073" cy="-501.6661" rx="40.0147" ry="40.0147"/>
<text text-anchor="middle" x="568.0073" y="-497.4661" font-family="Times,serif" font-size="14.00" fill="#000000">116394</text>
</g>
<!-- 129011&#45;&gt;116394 -->
<g id="edge9" class="edge">
<title>129011&#45;&gt;116394</title>
<path fill="none" stroke="#000000" d="M520.0651,-628.4925C467.8964,-619.7607 380.9588,-601.7736 362.0073,-576.4734 357.5309,-570.4974 357.1384,-565.3342 362.0073,-559.6734 379.4476,-539.3967 455.3832,-549.3359 481.0073,-541.6734 495.1059,-537.4575 509.856,-531.374 523.1216,-525.2184"/>
<polygon fill="#000000" stroke="#000000" points="524.9701,-528.2145 532.488,-520.7492 521.9555,-521.8968 524.9701,-528.2145"/>
<text text-anchor="middle" x="365.5073" y="-563.8734" font-family="Times,serif" font-size="14.00" fill="#000000">4</text>
</g>
<!-- 117536 -->
<g id="node11" class="node">
<title>117536</title>
<ellipse fill="none" stroke="#000000" cx="666.0073" cy="-501.6661" rx="40.0147" ry="40.0147"/>
<text text-anchor="middle" x="666.0073" y="-497.4661" font-family="Times,serif" font-size="14.00" fill="#000000">117536</text>
</g>
<!-- 116319&#45;&gt;117536 -->
<g id="edge15" class="edge">
<title>116319&#45;&gt;117536</title>
<path fill="none" stroke="#000000" d="M789.7277,-594.6063C786.5848,-582.0614 781.1999,-569.0503 772.0073,-559.6734 753.4094,-540.7025 738.3813,-554.3002 715.0073,-541.6734 711.2571,-539.6475 707.5176,-537.3163 703.872,-534.8189"/>
<polygon fill="#000000" stroke="#000000" points="705.7137,-531.8298 695.5746,-528.7556 701.5836,-537.4816 705.7137,-531.8298"/>
<text text-anchor="middle" x="786.5073" y="-563.8734" font-family="Times,serif" font-size="14.00" fill="#000000">4</text>
</g>
<!-- 117943 -->
<g id="node14" class="node">
<title>117943</title>
<ellipse fill="none" stroke="#000000" cx="236.0073" cy="-501.6661" rx="40.0147" ry="40.0147"/>
<text text-anchor="middle" x="236.0073" y="-497.4661" font-family="Times,serif" font-size="14.00" fill="#000000">117943</text>
</g>
<!-- 116319&#45;&gt;117943 -->
<g id="edge10" class="edge">
<title>116319&#45;&gt;117943</title>
<path fill="none" stroke="#000000" d="M754.9384,-624.5083C717.679,-615.361 659.8639,-602.1097 609.0073,-594.4734 515.9323,-580.498 487.7795,-604.7441 398.0073,-576.4734 383.7997,-571.9992 382.9051,-565.0332 369.0073,-559.6734 333.3838,-545.935 319.422,-558.2085 285.0073,-541.6734 281.1653,-539.8274 277.3619,-537.6216 273.6738,-535.2074"/>
<polygon fill="#000000" stroke="#000000" points="275.4927,-532.2062 265.3135,-529.2676 271.4384,-537.9127 275.4927,-532.2062"/>
<text text-anchor="middle" x="401.5073" y="-563.8734" font-family="Times,serif" font-size="14.00" fill="#000000">4</text>
</g>
<!-- 116726 -->
<g id="node16" class="node">
<title>116726</title>
<ellipse fill="none" stroke="#000000" cx="334.0073" cy="-501.6661" rx="40.0147" ry="40.0147"/>
<text text-anchor="middle" x="334.0073" y="-497.4661" font-family="Times,serif" font-size="14.00" fill="#000000">116726</text>
</g>
<!-- 116319&#45;&gt;116726 -->
<g id="edge11" class="edge">
<title>116319&#45;&gt;116726</title>
<path fill="none" stroke="#000000" d="M754.8949,-624.7871C717.6042,-615.8393 659.7677,-602.7249 609.0073,-594.4734 536.6308,-582.7081 514.8299,-598.8699 445.0073,-576.4734 418.3627,-567.9268 392.2262,-550.8703 372.0143,-535.2"/>
<polygon fill="#000000" stroke="#000000" points="374.0148,-532.3189 364.0117,-528.8278 369.6544,-537.795 374.0148,-532.3189"/>
<text text-anchor="middle" x="448.5073" y="-563.8734" font-family="Times,serif" font-size="14.00" fill="#000000">4</text>
</g>
<!-- 116653 -->
<g id="node17" class="node">
<title>116653</title>
<ellipse fill="none" stroke="#000000" cx="432.0073" cy="-501.6661" rx="40.0147" ry="40.0147"/>
<text text-anchor="middle" x="432.0073" y="-497.4661" font-family="Times,serif" font-size="14.00" fill="#000000">116653</text>
</g>
<!-- 116319&#45;&gt;116653 -->
<g id="edge12" class="edge">
<title>116319&#45;&gt;116653</title>
<path fill="none" stroke="#000000" d="M754.8555,-625.0214C717.5368,-616.2411 659.681,-603.2418 609.0073,-594.4734 578.5338,-589.2004 496.3568,-594.1892 471.0073,-576.4734 461.3507,-569.7247 453.9121,-559.8315 448.251,-549.4361"/>
<polygon fill="#000000" stroke="#000000" points="451.2797,-547.6637 443.7227,-540.2379 444.9995,-550.7555 451.2797,-547.6637"/>
<text text-anchor="middle" x="474.5073" y="-563.8734" font-family="Times,serif" font-size="14.00" fill="#000000">4</text>
</g>
<!-- 116343 -->
<g id="node18" class="node">
<title>116343</title>
<ellipse fill="none" stroke="#000000" cx="500.0073" cy="-403.6514" rx="40.0147" ry="40.0147"/>
<text text-anchor="middle" x="500.0073" y="-399.4514" font-family="Times,serif" font-size="14.00" fill="#000000">116343</text>
</g>
<!-- 116319&#45;&gt;116343 -->
<g id="edge13" class="edge">
<title>116319&#45;&gt;116343</title>
<path fill="none" stroke="#000000" d="M754.6803,-626.5108C686.2205,-611.8153 549.5169,-578.56 519.0073,-541.6734 499.0299,-517.5203 494.409,-482.4537 494.7167,-453.7112"/>
<polygon fill="#000000" stroke="#000000" points="498.2234,-453.5431 495.0337,-443.4399 491.2268,-453.3271 498.2234,-453.5431"/>
<text text-anchor="middle" x="580.5073" y="-563.8734" font-family="Times,serif" font-size="14.00" fill="#000000">4</text>
</g>
<!-- 116327 -->
<g id="node19" class="node">
<title>116327</title>
<ellipse fill="none" stroke="#000000" cx="764.0073" cy="-501.6661" rx="40.0147" ry="40.0147"/>
<text text-anchor="middle" x="764.0073" y="-497.4661" font-family="Times,serif" font-size="14.00" fill="#000000">116327</text>
</g>
<!-- 116319&#45;&gt;116327 -->
<g id="edge14" class="edge">
<title>116319&#45;&gt;116327</title>
<path fill="none" stroke="#000000" d="M774.8611,-599.0804C771.6884,-591.7915 768.8395,-584.0302 767.0073,-576.4734 765.0913,-568.5706 763.9326,-560.0627 763.2755,-551.7173"/>
<polygon fill="#000000" stroke="#000000" points="766.7664,-551.4558 762.7056,-541.6701 759.7776,-551.8523 766.7664,-551.4558"/>
<text text-anchor="middle" x="770.5073" y="-563.8734" font-family="Times,serif" font-size="14.00" fill="#000000">4</text>
</g>
<!-- 116572 -->
<g id="node20" class="node">
<title>116572</title>
<ellipse fill="none" stroke="#000000" cx="862.0073" cy="-501.6661" rx="40.0147" ry="40.0147"/>
<text text-anchor="middle" x="862.0073" y="-497.4661" font-family="Times,serif" font-size="14.00" fill="#000000">116572</text>
</g>
<!-- 116319&#45;&gt;116572 -->
<g id="edge16" class="edge">
<title>116319&#45;&gt;116572</title>
<path fill="none" stroke="#000000" d="M812.4091,-598.5392C820.5732,-582.5935 830.2691,-563.6558 838.9132,-546.7725"/>
<polygon fill="#000000" stroke="#000000" points="842.1489,-548.1326 843.5909,-537.6364 835.9181,-544.9425 842.1489,-548.1326"/>
<text text-anchor="middle" x="835.5073" y="-563.8734" font-family="Times,serif" font-size="14.00" fill="#000000">4</text>
</g>
<!-- 116416 -->
<g id="node21" class="node">
<title>116416</title>
<ellipse fill="none" stroke="#000000" cx="764.0073" cy="-305.6367" rx="40.0147" ry="40.0147"/>
<text text-anchor="middle" x="764.0073" y="-301.4367" font-family="Times,serif" font-size="14.00" fill="#000000">116416</text>
</g>
<!-- 116319&#45;&gt;116416 -->
<g id="edge17" class="edge">
<title>116319&#45;&gt;116416</title>
<path fill="none" stroke="#000000" d="M825.0202,-608.9686C830.9695,-604.1287 837.1652,-599.1254 843.0073,-594.4734 872.9401,-570.6386 894.1824,-576.0389 911.0073,-541.6734 926.6446,-509.7338 917.5463,-496.6145 911.0073,-461.6587 902.4164,-415.734 907.3137,-395.361 873.0073,-363.6441 852.5645,-344.7442 837.5973,-358.6995 813.0073,-345.6441 809.2425,-343.6452 805.493,-341.3329 801.8406,-338.848"/>
<polygon fill="#000000" stroke="#000000" points="803.6786,-335.8569 793.5333,-332.8033 799.56,-341.5171 803.6786,-335.8569"/>
<text text-anchor="middle" x="922.5073" y="-497.4661" font-family="Times,serif" font-size="14.00" fill="#000000">4</text>
</g>
<!-- 116432 -->
<g id="node22" class="node">
<title>116432</title>
<ellipse fill="none" stroke="#000000" cx="960.0073" cy="-305.6367" rx="40.0147" ry="40.0147"/>
<text text-anchor="middle" x="960.0073" y="-301.4367" font-family="Times,serif" font-size="14.00" fill="#000000">116432</text>
</g>
<!-- 116319&#45;&gt;116432 -->
<g id="edge18" class="edge">
<title>116319&#45;&gt;116432</title>
<path fill="none" stroke="#000000" d="M823.5894,-607.4186C829.7208,-602.6665 836.3494,-598.0921 843.0073,-594.4734 865.9768,-581.9891 877.0974,-590.7357 899.0073,-576.4734 916.3668,-565.1733 921.4278,-560.5264 930.0073,-541.6734 957.1627,-482.001 962.1781,-405.596 962.0681,-356.1411"/>
<polygon fill="#000000" stroke="#000000" points="965.5668,-355.9794 961.9729,-346.0128 958.5671,-356.0452 965.5668,-355.9794"/>
<text text-anchor="middle" x="956.5073" y="-497.4661" font-family="Times,serif" font-size="14.00" fill="#000000">4</text>
</g>
<!-- 117889 -->
<g id="node23" class="node">
<title>117889</title>
<ellipse fill="none" stroke="#000000" cx="1144.0073" cy="-501.6661" rx="40.0147" ry="40.0147"/>
<text text-anchor="middle" x="1144.0073" y="-497.4661" font-family="Times,serif" font-size="14.00" fill="#000000">117889</text>
</g>
<!-- 116319&#45;&gt;117889 -->
<g id="edge19" class="edge">
<title>116319&#45;&gt;117889</title>
<path fill="none" stroke="#000000" d="M822.8162,-606.5756C829.0635,-601.8362 835.9328,-597.4818 843.0073,-594.4734 904.7977,-568.1981 930.0621,-599.8474 993.0073,-576.4734 1005.5569,-571.8133 1005.7335,-565.0177 1018.0073,-559.6734 1050.2301,-545.643 1063.4718,-557.1869 1095.0073,-541.6734 1098.8321,-539.7919 1102.6234,-537.5613 1106.3035,-535.1307"/>
<polygon fill="#000000" stroke="#000000" points="1108.5497,-537.8274 1114.652,-529.1665 1104.4805,-532.1316 1108.5497,-537.8274"/>
<text text-anchor="middle" x="1021.5073" y="-563.8734" font-family="Times,serif" font-size="14.00" fill="#000000">4</text>
</g>
<!-- 116319&#45;&gt;117889 -->
<g id="edge35" class="edge">
<title>116319&#45;&gt;117889</title>
<path fill="none" stroke="#fe0300" d="M822.7427,-606.399C828.9961,-601.6741 835.8864,-597.3702 843.0073,-594.4734 927.3171,-560.176 961.7482,-608.3374 1047.0073,-576.4734 1069.6377,-568.0158 1091.2845,-552.3333 1108.3644,-537.5037"/>
<polygon fill="#fe0300" stroke="#fe0300" points="1110.7605,-540.0563 1115.8776,-530.7791 1106.092,-534.8404 1110.7605,-540.0563"/>
<text text-anchor="middle" x="1079.5073" y="-563.8734" font-family="Times,serif" font-size="14.00" fill="#000000">4</text>
</g>
<!-- 117901 -->
<g id="node24" class="node">
<title>117901</title>
<ellipse fill="none" stroke="#000000" cx="1046.0073" cy="-501.6661" rx="40.0147" ry="40.0147"/>
<text text-anchor="middle" x="1046.0073" y="-497.4661" font-family="Times,serif" font-size="14.00" fill="#000000">117901</text>
</g>
<!-- 116319&#45;&gt;117901 -->
<g id="edge20" class="edge">
<title>116319&#45;&gt;117901</title>
<path fill="none" stroke="#000000" d="M822.7684,-606.4616C829.0196,-601.7316 835.9026,-597.4098 843.0073,-594.4734 880.3633,-579.0344 992.8832,-602.2633 1024.0073,-576.4734 1031.747,-570.0602 1036.8478,-561.0741 1040.1894,-551.5472"/>
<polygon fill="#000000" stroke="#000000" points="1043.5589,-552.4941 1042.9771,-541.9152 1036.8348,-550.5479 1043.5589,-552.4941"/>
<text text-anchor="middle" x="1039.5073" y="-563.8734" font-family="Times,serif" font-size="14.00" fill="#000000">4</text>
</g>
<!-- 116378 -->
<g id="node7" class="node">
<title>116378</title>
<ellipse fill="none" stroke="#000000" cx="666.0073" cy="-305.6367" rx="40.0147" ry="40.0147"/>
<text text-anchor="middle" x="666.0073" y="-301.4367" font-family="Times,serif" font-size="14.00" fill="#000000">116378</text>
</g>
<!-- 113034 -->
<g id="node8" class="node">
<title>113034</title>
<ellipse fill="none" stroke="#000000" cx="236.0073" cy="-767.2954" rx="40.0147" ry="40.0147"/>
<text text-anchor="middle" x="236.0073" y="-763.0954" font-family="Times,serif" font-size="14.00" fill="#000000">113034</text>
</g>
<!-- 113042 -->
<g id="node9" class="node">
<title>113042</title>
<ellipse fill="none" stroke="#000000" cx="89.0073" cy="-634.4808" rx="40.0147" ry="40.0147"/>
<text text-anchor="middle" x="89.0073" y="-630.2808" font-family="Times,serif" font-size="14.00" fill="#000000">113042</text>
</g>
<!-- 113034&#45;&gt;113042 -->
<g id="edge5" class="edge">
<title>113034&#45;&gt;113042</title>
<path fill="none" stroke="#000000" d="M206.2597,-740.4184C183.1468,-719.5359 150.9586,-690.4538 126.1536,-668.0424"/>
<polygon fill="#000000" stroke="#000000" points="128.4772,-665.4248 118.7107,-661.3178 123.7844,-670.6189 128.4772,-665.4248"/>
<text text-anchor="middle" x="175.5073" y="-696.6881" font-family="Times,serif" font-size="14.00" fill="#000000">6</text>
</g>
<!-- 115045 -->
<g id="node10" class="node">
<title>115045</title>
<ellipse fill="none" stroke="#000000" cx="236.0073" cy="-634.4808" rx="40.0147" ry="40.0147"/>
<text text-anchor="middle" x="236.0073" y="-630.2808" font-family="Times,serif" font-size="14.00" fill="#000000">115045</text>
</g>
<!-- 113034&#45;&gt;115045 -->
<g id="edge6" class="edge">
<title>113034&#45;&gt;115045</title>
<path fill="none" stroke="#000000" d="M236.0073,-727.0862C236.0073,-713.6929 236.0073,-698.6064 236.0073,-684.5591"/>
<polygon fill="#000000" stroke="#000000" points="239.5074,-684.5533 236.0073,-674.5533 232.5074,-684.5533 239.5074,-684.5533"/>
<text text-anchor="middle" x="239.5073" y="-696.6881" font-family="Times,serif" font-size="14.00" fill="#000000">6</text>
</g>
<!-- 113034&#45;&gt;117536 -->
<g id="edge7" class="edge">
<title>113034&#45;&gt;117536</title>
<path fill="none" stroke="#000000" d="M254.355,-731.5972C282.834,-677.7104 337.9384,-579.7318 372.0073,-559.6734 419.0506,-531.9763 566.2907,-561.8728 617.0073,-541.6734 621.0247,-540.0734 624.9655,-538.0191 628.7581,-535.6881"/>
<polygon fill="#000000" stroke="#000000" points="631.035,-538.3708 637.3053,-529.8307 627.0779,-532.5966 631.035,-538.3708"/>
<text text-anchor="middle" x="341.5073" y="-630.2808" font-family="Times,serif" font-size="14.00" fill="#000000">6</text>
</g>
<!-- 113417 -->
<g id="node12" class="node">
<title>113417</title>
<ellipse fill="none" stroke="#000000" cx="40.0073" cy="-501.6661" rx="40.0147" ry="40.0147"/>
<text text-anchor="middle" x="40.0073" y="-497.4661" font-family="Times,serif" font-size="14.00" fill="#000000">113417</text>
</g>
<!-- 113042&#45;&gt;113417 -->
<g id="edge8" class="edge">
<title>113042&#45;&gt;113417</title>
<path fill="none" stroke="#000000" d="M75.097,-596.7767C69.6141,-581.9154 63.2551,-564.6792 57.4685,-548.9947"/>
<polygon fill="#000000" stroke="#000000" points="60.6975,-547.6348 53.9525,-539.4645 54.1302,-550.0578 60.6975,-547.6348"/>
<text text-anchor="middle" x="71.5073" y="-563.8734" font-family="Times,serif" font-size="14.00" fill="#000000">6</text>
</g>
<!-- 115045&#45;&gt;117943 -->
<g id="edge27" class="edge">
<title>115045&#45;&gt;117943</title>
<path fill="none" stroke="#000000" d="M236.0073,-594.2715C236.0073,-580.8782 236.0073,-565.7917 236.0073,-551.7445"/>
<polygon fill="#000000" stroke="#000000" points="239.5074,-551.7386 236.0073,-541.7386 232.5074,-551.7387 239.5074,-551.7386"/>
<text text-anchor="middle" x="239.5073" y="-563.8734" font-family="Times,serif" font-size="14.00" fill="#000000">4</text>
</g>
<!-- 116394&#45;&gt;116416 -->
<g id="edge24" class="edge">
<title>116394&#45;&gt;116416</title>
<path fill="none" stroke="#000000" d="M597.32,-474.078C603.4749,-469.3719 610.1811,-464.9489 617.0073,-461.6587 651.0102,-445.2698 670.5405,-467.2489 700.0073,-443.6587 727.6098,-421.5611 743.845,-384.8327 753.0535,-354.8174"/>
<polygon fill="#000000" stroke="#000000" points="756.498,-355.5052 755.9133,-344.9265 749.7734,-353.5609 756.498,-355.5052"/>
<text text-anchor="middle" x="753.5073" y="-399.4514" font-family="Times,serif" font-size="14.00" fill="#000000">4</text>
</g>
<!-- 116394&#45;&gt;116432 -->
<g id="edge25" class="edge">
<title>116394&#45;&gt;116432</title>
<path fill="none" stroke="#000000" d="M596.8279,-473.7885C603.0743,-469.0468 609.9402,-464.6845 617.0073,-461.6587 676.2996,-436.2731 702.2616,-470.2846 761.0073,-443.6587 809.7564,-421.5637 804.2722,-389.7303 851.0073,-363.6441 875.3176,-350.0748 886.4174,-358.6995 911.0073,-345.6441 914.7721,-343.6452 918.5217,-341.3329 922.174,-338.848"/>
<polygon fill="#000000" stroke="#000000" points="924.4547,-341.5171 930.4813,-332.8033 920.3361,-335.8569 924.4547,-341.5171"/>
<text text-anchor="middle" x="854.5073" y="-399.4514" font-family="Times,serif" font-size="14.00" fill="#000000">4</text>
</g>
<!-- 117935 -->
<g id="node31" class="node">
<title>117935</title>
<ellipse fill="none" stroke="#000000" cx="1130.0073" cy="-172.822" rx="40.0147" ry="40.0147"/>
<text text-anchor="middle" x="1130.0073" y="-168.622" font-family="Times,serif" font-size="14.00" fill="#000000">117935</text>
</g>
<!-- 116394&#45;&gt;117935 -->
<g id="edge23" class="edge">
<title>116394&#45;&gt;117935</title>
<path fill="none" stroke="#000000" d="M562.5363,-461.6521C557.7925,-409.0534 558.3687,-317.2949 610.0073,-265.6294 675.6104,-199.9921 962.5017,-180.1315 1079.7794,-174.6919"/>
<polygon fill="#000000" stroke="#000000" points="1080.0904,-178.1816 1089.9239,-174.2379 1079.7773,-171.1886 1080.0904,-178.1816"/>
<text text-anchor="middle" x="613.5073" y="-301.4367" font-family="Times,serif" font-size="14.00" fill="#000000">4</text>
</g>
<!-- 116441 -->
<g id="node15" class="node">
<title>116441</title>
<ellipse fill="none" stroke="#000000" cx="1062.0073" cy="-305.6367" rx="40.0147" ry="40.0147"/>
<text text-anchor="middle" x="1062.0073" y="-301.4367" font-family="Times,serif" font-size="14.00" fill="#000000">116441</text>
</g>
<!-- 116343&#45;&gt;117951 -->
<g id="edge22" class="edge">
<title>116343&#45;&gt;117951</title>
<path fill="none" stroke="#000000" d="M500.0073,-363.444C500.0073,-324.4233 500.0073,-265.0881 500.0073,-222.9947"/>
<polygon fill="#000000" stroke="#000000" points="503.5074,-222.9552 500.0073,-212.9553 496.5074,-222.9553 503.5074,-222.9552"/>
<text text-anchor="middle" x="503.5073" y="-301.4367" font-family="Times,serif" font-size="14.00" fill="#000000">4</text>
</g>
<!-- 116327&#45;&gt;116378 -->
<g id="edge26" class="edge">
<title>116327&#45;&gt;116378</title>
<path fill="none" stroke="#000000" d="M732.6871,-476.1013C713.6797,-460.5829 693.0514,-443.7324 693.0073,-443.6587 677.2147,-417.2814 670.4256,-383.4615 667.6037,-355.9015"/>
<polygon fill="#000000" stroke="#000000" points="671.067,-355.3295 666.7059,-345.6739 664.0938,-355.9417 671.067,-355.3295"/>
<text text-anchor="middle" x="696.5073" y="-399.4514" font-family="Times,serif" font-size="14.00" fill="#000000">4</text>
</g>
<!-- 117927 -->
<g id="node32" class="node">
<title>117927</title>
<ellipse fill="none" stroke="#000000" cx="862.0073" cy="-305.6367" rx="40.0147" ry="40.0147"/>
<text text-anchor="middle" x="862.0073" y="-301.4367" font-family="Times,serif" font-size="14.00" fill="#000000">117927</text>
</g>
<!-- 116572&#45;&gt;117927 -->
<g id="edge29" class="edge">
<title>116572&#45;&gt;117927</title>
<path fill="none" stroke="#000000" d="M862.0073,-461.5236C862.0073,-430.999 862.0073,-388.8075 862.0073,-356.0153"/>
<polygon fill="#000000" stroke="#000000" points="865.5074,-355.7255 862.0073,-345.7255 858.5074,-355.7256 865.5074,-355.7255"/>
<text text-anchor="middle" x="865.5073" y="-399.4514" font-family="Times,serif" font-size="14.00" fill="#000000">4</text>
</g>
<!-- 116432&#45;&gt;117951 -->
<g id="edge30" class="edge">
<title>116432&#45;&gt;117951</title>
<path fill="none" stroke="#000000" d="M930.6722,-278.0951C924.5192,-273.385 917.8195,-268.9486 911.0073,-265.6294 789.8588,-206.5998 630.2266,-184.467 550.2408,-176.6966"/>
<polygon fill="#000000" stroke="#000000" points="550.2421,-173.1815 539.9596,-175.7348 549.5901,-180.1511 550.2421,-173.1815"/>
<text text-anchor="middle" x="872.5073" y="-235.0294" font-family="Times,serif" font-size="14.00" fill="#000000">4</text>
</g>
<!-- 117889&#45;&gt;116441 -->
<g id="edge31" class="edge">
<title>117889&#45;&gt;116441</title>
<path fill="none" stroke="#000000" d="M1128.3908,-464.333C1115.0538,-432.4496 1095.8088,-386.4426 1081.4707,-352.166"/>
<polygon fill="#000000" stroke="#000000" points="1084.6538,-350.7055 1077.5658,-342.8308 1078.196,-353.4068 1084.6538,-350.7055"/>
<text text-anchor="middle" x="1120.5073" y="-399.4514" font-family="Times,serif" font-size="14.00" fill="#000000">4</text>
</g>
<!-- 117897 -->
<g id="node33" class="node">
<title>117897</title>
<ellipse fill="none" stroke="#000000" cx="1160.0073" cy="-305.6367" rx="40.0147" ry="40.0147"/>
<text text-anchor="middle" x="1160.0073" y="-301.4367" font-family="Times,serif" font-size="14.00" fill="#000000">117897</text>
</g>
<!-- 117889&#45;&gt;117897 -->
<g id="edge32" class="edge">
<title>117889&#45;&gt;117897</title>
<path fill="none" stroke="#000000" d="M1139.965,-461.567C1138.0192,-433.8948 1137.0508,-396.3418 1142.0073,-363.6441 1142.5289,-360.2037 1143.215,-356.6864 1144.0147,-353.1692"/>
<polygon fill="#000000" stroke="#000000" points="1147.4465,-353.8759 1146.5266,-343.321 1140.6636,-352.1458 1147.4465,-353.8759"/>
<text text-anchor="middle" x="1145.5073" y="-399.4514" font-family="Times,serif" font-size="14.00" fill="#000000">4</text>
</g>
<!-- 117889&#45;&gt;117897 -->
<g id="edge36" class="edge">
<title>117889&#45;&gt;117897</title>
<path fill="none" stroke="#fe0300" d="M1147.2838,-461.5236C1149.7752,-430.999 1153.2189,-388.8075 1155.8954,-356.0153"/>
<polygon fill="#fe0300" stroke="#fe0300" points="1159.4101,-355.9771 1156.7353,-345.7255 1152.4333,-355.4076 1159.4101,-355.9771"/>
<text text-anchor="middle" x="1157.5073" y="-399.4514" font-family="Times,serif" font-size="14.00" fill="#000000">4</text>
</g>
<!-- 117960 -->
<g id="node25" class="node">
<title>117960</title>
<ellipse fill="none" stroke="#000000" cx="1130.0073" cy="-40.0073" rx="40.0147" ry="40.0147"/>
<text text-anchor="middle" x="1130.0073" y="-35.8073" font-family="Times,serif" font-size="14.00" fill="#000000">117960</text>
</g>
<!-- 113450 -->
<g id="node26" class="node">
<title>113450</title>
<ellipse fill="none" stroke="#000000" cx="892.0073" cy="-767.2954" rx="40.0147" ry="40.0147"/>
<text text-anchor="middle" x="892.0073" y="-763.0954" font-family="Times,serif" font-size="14.00" fill="#000000">113450</text>
</g>
<!-- 117366 -->
<g id="node27" class="node">
<title>117366</title>
<ellipse fill="none" stroke="#000000" cx="892.0073" cy="-634.4808" rx="40.0147" ry="40.0147"/>
<text text-anchor="middle" x="892.0073" y="-630.2808" font-family="Times,serif" font-size="14.00" fill="#000000">117366</text>
</g>
<!-- 113450&#45;&gt;117366 -->
<g id="edge21" class="edge">
<title>113450&#45;&gt;117366</title>
<path fill="none" stroke="#000000" d="M892.0073,-727.0862C892.0073,-713.6929 892.0073,-698.6064 892.0073,-684.5591"/>
<polygon fill="#000000" stroke="#000000" points="895.5074,-684.5533 892.0073,-674.5533 888.5074,-684.5533 895.5074,-684.5533"/>
<text text-anchor="middle" x="895.5073" y="-696.6881" font-family="Times,serif" font-size="14.00" fill="#000000">4</text>
</g>
<!-- 113468 -->
<g id="node28" class="node">
<title>113468</title>
<ellipse fill="none" stroke="#000000" cx="990.0073" cy="-767.2954" rx="40.0147" ry="40.0147"/>
<text text-anchor="middle" x="990.0073" y="-763.0954" font-family="Times,serif" font-size="14.00" fill="#000000">113468</text>
</g>
<!-- 113093 -->
<g id="node29" class="node">
<title>113093</title>
<ellipse fill="none" stroke="#000000" cx="1088.0073" cy="-767.2954" rx="40.0147" ry="40.0147"/>
<text text-anchor="middle" x="1088.0073" y="-763.0954" font-family="Times,serif" font-size="14.00" fill="#000000">113093</text>
</g>
<!-- 117919 -->
<g id="node30" class="node">
<title>117919</title>
<ellipse fill="none" stroke="#000000" cx="1186.0073" cy="-767.2954" rx="40.0147" ry="40.0147"/>
<text text-anchor="middle" x="1186.0073" y="-763.0954" font-family="Times,serif" font-size="14.00" fill="#000000">117919</text>
</g>
<!-- 117935&#45;&gt;117960 -->
<g id="edge28" class="edge">
<title>117935&#45;&gt;117960</title>
<path fill="none" stroke="#000000" d="M1119.8935,-134.1065C1117.9273,-122.5333 1116.802,-109.7912 1118.0073,-98.0147 1118.3018,-95.1374 1118.6765,-92.1921 1119.1101,-89.2286"/>
<polygon fill="#000000" stroke="#000000" points="1122.5975,-89.5924 1120.7807,-79.1545 1115.6918,-88.4472 1122.5975,-89.5924"/>
<text text-anchor="middle" x="1121.5073" y="-102.2147" font-family="Times,serif" font-size="14.00" fill="#000000">4</text>
</g>
<!-- 117935&#45;&gt;117960 -->
<g id="edge38" class="edge">
<title>117935&#45;&gt;117960</title>
<path fill="none" stroke="#fe0300" d="M1130.0073,-132.6128C1130.0073,-119.2195 1130.0073,-104.133 1130.0073,-90.0857"/>
<polygon fill="#fe0300" stroke="#fe0300" points="1133.5074,-90.0799 1130.0073,-80.0799 1126.5074,-90.0799 1133.5074,-90.0799"/>
<text text-anchor="middle" x="1133.5073" y="-102.2147" font-family="Times,serif" font-size="14.00" fill="#000000">4</text>
</g>
<!-- 117897&#45;&gt;117935 -->
<g id="edge33" class="edge">
<title>117897&#45;&gt;117935</title>
<path fill="none" stroke="#000000" d="M1140.8611,-270.2364C1137.6884,-262.9475 1134.8395,-255.1862 1133.0073,-247.6294 1131.0913,-239.7266 1129.9326,-231.2186 1129.2755,-222.8733"/>
<polygon fill="#000000" stroke="#000000" points="1132.7664,-222.6118 1128.7056,-212.8261 1125.7776,-223.0083 1132.7664,-222.6118"/>
<text text-anchor="middle" x="1136.5073" y="-235.0294" font-family="Times,serif" font-size="14.00" fill="#000000">4</text>
</g>
<!-- 117897&#45;&gt;117935 -->
<g id="edge37" class="edge">
<title>117897&#45;&gt;117935</title>
<path fill="none" stroke="#fe0300" d="M1151.1686,-266.5063C1148.023,-252.5801 1144.4398,-236.7168 1141.1276,-222.0532"/>
<polygon fill="#fe0300" stroke="#fe0300" points="1144.5039,-221.1148 1138.8866,-212.1317 1137.6759,-222.6572 1144.5039,-221.1148"/>
<text text-anchor="middle" x="1149.5073" y="-235.0294" font-family="Times,serif" font-size="14.00" fill="#000000">4</text>
</g>
</g>
</svg>
