<?xml version="1.0" encoding="UTF-8" standalone="no"?>
<!DOCTYPE svg PUBLIC "-//W3C//DTD SVG 1.1//EN"
 "http://www.w3.org/Graphics/SVG/1.1/DTD/svg11.dtd">
<!-- Generated by graphviz version 2.40.1 (20161225.0304)
 -->
<!-- Title: finite_state_machine Pages: 1 -->
<svg width="25pt" height="720pt"
 viewBox="0.00 0.00 25.41 720.00" xmlns="http://www.w3.org/2000/svg" xmlns:xlink="http://www.w3.org/1999/xlink">
<g id="graph0" class="graph" transform="scale(.0531 .0531) rotate(0) translate(4 13566.9155)">
<title>finite_state_machine</title>
<polygon fill="#ffffff" stroke="transparent" points="-4,4 -4,-13566.9155 475.0302,-13566.9155 475.0302,4 -4,4"/>
<!-- METODOLOGIA_CIENTÍFICA_117919 -->
<g id="node1" class="node">
<title>METODOLOGIA_CIENTÍFICA_117919</title>
<ellipse fill="none" stroke="#000000" cx="235.5151" cy="-13385.877" rx="177.0768" ry="177.0768"/>
<text text-anchor="middle" x="235.5151" y="-13381.677" font-family="Times,serif" font-size="14.00" fill="#000000">METODOLOGIA_CIENTÍFICA_117919</text>
</g>
<!-- INTRODUCAO_A_ALGEBRA_LINEAR_113093 -->
<g id="node2" class="node">
<title>INTRODUCAO_A_ALGEBRA_LINEAR_113093</title>
<ellipse fill="none" stroke="#000000" cx="235.5151" cy="-12944.9334" rx="211.2105" ry="211.2105"/>
<text text-anchor="middle" x="235.5151" y="-12940.7334" font-family="Times,serif" font-size="14.00" fill="#000000">INTRODUCAO_A_ALGEBRA_LINEAR_113093</text>
</g>
<!-- METODOLOGIA_CIENTÍFICA_117919&#45;&gt;INTRODUCAO_A_ALGEBRA_LINEAR_113093 -->
<g id="edge1" class="edge">
<title>METODOLOGIA_CIENTÍFICA_117919&#45;&gt;INTRODUCAO_A_ALGEBRA_LINEAR_113093</title>
<path fill="none" stroke="#000000" d="M235.5151,-13208.7518C235.5151,-13194.8784 235.5151,-13180.7667 235.5151,-13166.6481"/>
<polygon fill="#000000" stroke="#000000" points="239.0152,-13166.3697 235.5151,-13156.3697 232.0152,-13166.3698 239.0152,-13166.3697"/>
<text text-anchor="middle" x="239.0151" y="-13178.2386" font-family="Times,serif" font-size="14.00" fill="#000000">2</text>
</g>
<!-- INTROD_SISTEMAS_COMPUTACIONAIS_113468 -->
<g id="node3" class="node">
<title>INTROD_SISTEMAS_COMPUTACIONAIS_113468</title>
<ellipse fill="none" stroke="#000000" cx="235.5151" cy="-12457.0348" rx="223.9868" ry="223.9868"/>
<text text-anchor="middle" x="235.5151" y="-12452.8348" font-family="Times,serif" font-size="14.00" fill="#000000">INTROD_SISTEMAS_COMPUTACIONAIS_113468</text>
</g>
<!-- INTRODUCAO_A_ALGEBRA_LINEAR_113093&#45;&gt;INTROD_SISTEMAS_COMPUTACIONAIS_113468 -->
<g id="edge2" class="edge">
<title>INTRODUCAO_A_ALGEBRA_LINEAR_113093&#45;&gt;INTROD_SISTEMAS_COMPUTACIONAIS_113468</title>
<path fill="none" stroke="#000000" d="M235.5151,-12733.7716C235.5151,-12719.783 235.5151,-12705.6479 235.5151,-12691.5548"/>
<polygon fill="#000000" stroke="#000000" points="239.0152,-12691.3029 235.5151,-12681.303 232.0152,-12691.303 239.0152,-12691.3029"/>
<text text-anchor="middle" x="239.0151" y="-12703.2282" font-family="Times,serif" font-size="14.00" fill="#000000">4</text>
</g>
<!-- FUNDAMENTOS_TEÓR_DA_COMPUTAÇÃO_113450 -->
<g id="node4" class="node">
<title>FUNDAMENTOS_TEÓR_DA_COMPUTAÇÃO_113450</title>
<ellipse fill="none" stroke="#000000" cx="235.5151" cy="-11944.7263" rx="235.5302" ry="235.5302"/>
<text text-anchor="middle" x="235.5151" y="-11940.5263" font-family="Times,serif" font-size="14.00" fill="#000000">FUNDAMENTOS_TEÓR_DA_COMPUTAÇÃO_113450</text>
</g>
<!-- INTROD_SISTEMAS_COMPUTACIONAIS_113468&#45;&gt;FUNDAMENTOS_TEÓR_DA_COMPUTAÇÃO_113450 -->
<g id="edge3" class="edge">
<title>INTROD_SISTEMAS_COMPUTACIONAIS_113468&#45;&gt;FUNDAMENTOS_TEÓR_DA_COMPUTAÇÃO_113450</title>
<path fill="none" stroke="#000000" d="M235.5151,-12232.7015C235.5151,-12218.7373 235.5151,-12204.6449 235.5151,-12190.5939"/>
<polygon fill="#000000" stroke="#000000" points="239.0152,-12190.3722 235.5151,-12180.3722 232.0152,-12190.3723 239.0152,-12190.3722"/>
<text text-anchor="middle" x="239.0151" y="-12202.4414" font-family="Times,serif" font-size="14.00" fill="#000000">4</text>
</g>
<!-- LÓGICA_COMPUTACIONAL_1_117366 -->
<g id="node5" class="node">
<title>LÓGICA_COMPUTACIONAL_1_117366</title>
<ellipse fill="none" stroke="#000000" cx="235.5151" cy="-11478.2893" rx="178.2439" ry="178.2439"/>
<text text-anchor="middle" x="235.5151" y="-11474.0893" font-family="Times,serif" font-size="14.00" fill="#000000">LÓGICA_COMPUTACIONAL_1_117366</text>
</g>
<!-- FUNDAMENTOS_TEÓR_DA_COMPUTAÇÃO_113450&#45;&gt;LÓGICA_COMPUTACIONAL_1_117366 -->
<g id="edge4" class="edge">
<title>FUNDAMENTOS_TEÓR_DA_COMPUTAÇÃO_113450&#45;&gt;LÓGICA_COMPUTACIONAL_1_117366</title>
<path fill="none" stroke="#000000" d="M235.5151,-11709.1165C235.5151,-11694.9198 235.5151,-11680.735 235.5151,-11666.7724"/>
<polygon fill="#000000" stroke="#000000" points="239.0152,-11666.6478 235.5151,-11656.6478 232.0152,-11666.6479 239.0152,-11666.6478"/>
<text text-anchor="middle" x="239.0151" y="-11678.6113" font-family="Times,serif" font-size="14.00" fill="#000000">4</text>
</g>
<!-- CÁLCULO_1_113034 -->
<g id="node6" class="node">
<title>CÁLCULO_1_113034</title>
<ellipse fill="none" stroke="#000000" cx="235.5151" cy="-11148.6236" rx="98.9882" ry="98.9882"/>
<text text-anchor="middle" x="235.5151" y="-11144.4236" font-family="Times,serif" font-size="14.00" fill="#000000">CÁLCULO_1_113034</text>
</g>
<!-- LÓGICA_COMPUTACIONAL_1_117366&#45;&gt;CÁLCULO_1_113034 -->
<g id="edge5" class="edge">
<title>LÓGICA_COMPUTACIONAL_1_117366&#45;&gt;CÁLCULO_1_113034</title>
<path fill="none" stroke="#000000" d="M235.5151,-11299.9485C235.5151,-11285.6829 235.5151,-11271.5531 235.5151,-11257.9905"/>
<polygon fill="#000000" stroke="#000000" points="239.0152,-11257.7367 235.5151,-11247.7367 232.0152,-11257.7367 239.0152,-11257.7367"/>
<text text-anchor="middle" x="239.0151" y="-11269.5674" font-family="Times,serif" font-size="14.00" fill="#000000">4</text>
</g>
<!-- PROBABILIDADE_E_ESTATÍSTICA_115045 -->
<g id="node7" class="node">
<title>PROBABILIDADE_E_ESTATÍSTICA_115045</title>
<ellipse fill="none" stroke="#000000" cx="235.5151" cy="-10795.3525" rx="201.955" ry="201.955"/>
<text text-anchor="middle" x="235.5151" y="-10791.1525" font-family="Times,serif" font-size="14.00" fill="#000000">PROBABILIDADE_E_ESTATÍSTICA_115045</text>
</g>
<!-- CÁLCULO_1_113034&#45;&gt;PROBABILIDADE_E_ESTATÍSTICA_115045 -->
<g id="edge6" class="edge">
<title>CÁLCULO_1_113034&#45;&gt;PROBABILIDADE_E_ESTATÍSTICA_115045</title>
<path fill="none" stroke="#000000" d="M235.5151,-11049.7482C235.5151,-11036.2315 235.5151,-11021.9558 235.5151,-11007.3436"/>
<polygon fill="#000000" stroke="#000000" points="239.0152,-11007.1788 235.5151,-10997.1789 232.0152,-11007.1789 239.0152,-11007.1788"/>
<text text-anchor="middle" x="239.0151" y="-11019.2798" font-family="Times,serif" font-size="14.00" fill="#000000">6</text>
</g>
<!-- CÁLCULO_2_113042 -->
<g id="node8" class="node">
<title>CÁLCULO_2_113042</title>
<ellipse fill="none" stroke="#000000" cx="235.5151" cy="-10442.0813" rx="98.9882" ry="98.9882"/>
<text text-anchor="middle" x="235.5151" y="-10437.8813" font-family="Times,serif" font-size="14.00" fill="#000000">CÁLCULO_2_113042</text>
</g>
<!-- PROBABILIDADE_E_ESTATÍSTICA_115045&#45;&gt;CÁLCULO_2_113042 -->
<g id="edge7" class="edge">
<title>PROBABILIDADE_E_ESTATÍSTICA_115045&#45;&gt;CÁLCULO_2_113042</title>
<path fill="none" stroke="#000000" d="M235.5151,-10593.4375C235.5151,-10579.0273 235.5151,-10564.8463 235.5151,-10551.2889"/>
<polygon fill="#000000" stroke="#000000" points="239.0152,-10551.0495 235.5151,-10541.0495 232.0152,-10551.0496 239.0152,-10551.0495"/>
<text text-anchor="middle" x="239.0151" y="-10563.0251" font-family="Times,serif" font-size="14.00" fill="#000000">4</text>
</g>
<!-- CALCULO_NUMERICO_113417 -->
<g id="node9" class="node">
<title>CALCULO_NUMERICO_113417</title>
<ellipse fill="none" stroke="#000000" cx="235.5151" cy="-10143.7872" rx="146.5012" ry="146.5012"/>
<text text-anchor="middle" x="235.5151" y="-10139.5872" font-family="Times,serif" font-size="14.00" fill="#000000">CALCULO_NUMERICO_113417</text>
</g>
<!-- CÁLCULO_2_113042&#45;&gt;CALCULO_NUMERICO_113417 -->
<g id="edge8" class="edge">
<title>CÁLCULO_2_113042&#45;&gt;CALCULO_NUMERICO_113417</title>
<path fill="none" stroke="#000000" d="M235.5151,-10343.168C235.5151,-10329.4576 235.5151,-10315.106 235.5151,-10300.6575"/>
<polygon fill="#000000" stroke="#000000" points="239.0152,-10300.6458 235.5151,-10290.6459 232.0152,-10300.6459 239.0152,-10300.6458"/>
<text text-anchor="middle" x="239.0151" y="-10312.7376" font-family="Times,serif" font-size="14.00" fill="#000000">6</text>
</g>
<!-- ALGORITMOS_PROGR_COMPUTADORES_113476 -->
<g id="node10" class="node">
<title>ALGORITMOS_PROGR_COMPUTADORES_113476</title>
<ellipse fill="none" stroke="#000000" cx="235.5151" cy="-9715.4043" rx="228.6651" ry="228.6651"/>
<text text-anchor="middle" x="235.5151" y="-9711.2043" font-family="Times,serif" font-size="14.00" fill="#000000">ALGORITMOS_PROGR_COMPUTADORES_113476</text>
</g>
<!-- CALCULO_NUMERICO_113417&#45;&gt;ALGORITMOS_PROGR_COMPUTADORES_113476 -->
<g id="edge9" class="edge">
<title>CALCULO_NUMERICO_113417&#45;&gt;ALGORITMOS_PROGR_COMPUTADORES_113476</title>
<path fill="none" stroke="#000000" d="M235.5151,-9996.9614C235.5151,-9983.0877 235.5151,-9968.7942 235.5151,-9954.3484"/>
<polygon fill="#000000" stroke="#000000" points="239.0152,-9954.3264 235.5151,-9944.3265 232.0152,-9954.3265 239.0152,-9954.3264"/>
<text text-anchor="middle" x="239.0151" y="-9966.4368" font-family="Times,serif" font-size="14.00" fill="#000000">4</text>
</g>
<!-- ESTRUTURAS_DE_DADOS_116319 -->
<g id="node11" class="node">
<title>ESTRUTURAS_DE_DADOS_116319</title>
<ellipse fill="none" stroke="#000000" cx="235.5151" cy="-9270.9253" rx="162.6933" ry="162.6933"/>
<text text-anchor="middle" x="235.5151" y="-9266.7253" font-family="Times,serif" font-size="14.00" fill="#000000">ESTRUTURAS_DE_DADOS_116319</text>
</g>
<!-- ALGORITMOS_PROGR_COMPUTADORES_113476&#45;&gt;ESTRUTURAS_DE_DADOS_116319 -->
<g id="edge10" class="edge">
<title>ALGORITMOS_PROGR_COMPUTADORES_113476&#45;&gt;ESTRUTURAS_DE_DADOS_116319</title>
<path fill="none" stroke="#000000" d="M235.5151,-9486.3293C235.5151,-9472.1372 235.5151,-9457.9824 235.5151,-9444.0966"/>
<polygon fill="#000000" stroke="#000000" points="239.0152,-9444.0363 235.5151,-9434.0364 232.0152,-9444.0364 239.0152,-9444.0363"/>
<text text-anchor="middle" x="239.0151" y="-9455.9719" font-family="Times,serif" font-size="14.00" fill="#000000">6</text>
</g>
<!-- TEORIA_E_APLICAÇÃO_DE_GRAFOS_117901 -->
<g id="node12" class="node">
<title>TEORIA_E_APLICAÇÃO_DE_GRAFOS_117901</title>
<ellipse fill="none" stroke="#000000" cx="235.5151" cy="-8845.7765" rx="209.5043" ry="209.5043"/>
<text text-anchor="middle" x="235.5151" y="-8841.5765" font-family="Times,serif" font-size="14.00" fill="#000000">TEORIA_E_APLICAÇÃO_DE_GRAFOS_117901</text>
</g>
<!-- ESTRUTURAS_DE_DADOS_116319&#45;&gt;TEORIA_E_APLICAÇÃO_DE_GRAFOS_117901 -->
<g id="edge11" class="edge">
<title>ESTRUTURAS_DE_DADOS_116319&#45;&gt;TEORIA_E_APLICAÇÃO_DE_GRAFOS_117901</title>
<path fill="none" stroke="#000000" d="M235.5151,-9108.0713C235.5151,-9094.2142 235.5151,-9080.0584 235.5151,-9065.8579"/>
<polygon fill="#000000" stroke="#000000" points="239.0152,-9065.5135 235.5151,-9055.5135 232.0152,-9065.5135 239.0152,-9065.5135"/>
<text text-anchor="middle" x="239.0151" y="-9077.4787" font-family="Times,serif" font-size="14.00" fill="#000000">4</text>
</g>
<!-- TECNICAS_DE_PROGRAMAÇÃO_1_117889 -->
<g id="node13" class="node">
<title>TECNICAS_DE_PROGRAMAÇÃO_1_117889</title>
<ellipse fill="none" stroke="#000000" cx="235.5151" cy="-8386.3012" rx="197.3465" ry="197.3465"/>
<text text-anchor="middle" x="235.5151" y="-8382.1012" font-family="Times,serif" font-size="14.00" fill="#000000">TECNICAS_DE_PROGRAMAÇÃO_1_117889</text>
</g>
<!-- TEORIA_E_APLICAÇÃO_DE_GRAFOS_117901&#45;&gt;TECNICAS_DE_PROGRAMAÇÃO_1_117889 -->
<g id="edge12" class="edge">
<title>TEORIA_E_APLICAÇÃO_DE_GRAFOS_117901&#45;&gt;TECNICAS_DE_PROGRAMAÇÃO_1_117889</title>
<path fill="none" stroke="#000000" d="M235.5151,-8636.2076C235.5151,-8622.1138 235.5151,-8607.918 235.5151,-8593.8346"/>
<polygon fill="#000000" stroke="#000000" points="239.0152,-8593.6025 235.5151,-8583.6026 232.0152,-8593.6026 239.0152,-8593.6025"/>
<text text-anchor="middle" x="239.0151" y="-8605.6744" font-family="Times,serif" font-size="14.00" fill="#000000">4</text>
</g>
<!-- TECNICAS_DE_PROGRAMAÇÃO_2_117897 -->
<g id="node14" class="node">
<title>TECNICAS_DE_PROGRAMAÇÃO_2_117897</title>
<ellipse fill="none" stroke="#000000" cx="235.5151" cy="-7939.1549" rx="197.3465" ry="197.3465"/>
<text text-anchor="middle" x="235.5151" y="-7934.9549" font-family="Times,serif" font-size="14.00" fill="#000000">TECNICAS_DE_PROGRAMAÇÃO_2_117897</text>
</g>
<!-- TECNICAS_DE_PROGRAMAÇÃO_1_117889&#45;&gt;TECNICAS_DE_PROGRAMAÇÃO_2_117897 -->
<g id="edge13" class="edge">
<title>TECNICAS_DE_PROGRAMAÇÃO_1_117889&#45;&gt;TECNICAS_DE_PROGRAMAÇÃO_2_117897</title>
<path fill="none" stroke="#000000" d="M235.5151,-8188.8747C235.5151,-8174.8494 235.5151,-8160.6849 235.5151,-8146.6061"/>
<polygon fill="#000000" stroke="#000000" points="239.0152,-8146.3728 235.5151,-8136.3729 232.0152,-8146.3729 239.0152,-8146.3728"/>
<text text-anchor="middle" x="239.0151" y="-8158.5281" font-family="Times,serif" font-size="14.00" fill="#000000">4</text>
</g>
<!-- ENGENHARIA_DE_SOFTWARE_116441 -->
<g id="node15" class="node">
<title>ENGENHARIA_DE_SOFTWARE_116441</title>
<ellipse fill="none" stroke="#000000" cx="235.5151" cy="-7506.5027" rx="182.8583" ry="182.8583"/>
<text text-anchor="middle" x="235.5151" y="-7502.3027" font-family="Times,serif" font-size="14.00" fill="#000000">ENGENHARIA_DE_SOFTWARE_116441</text>
</g>
<!-- TECNICAS_DE_PROGRAMAÇÃO_2_117897&#45;&gt;ENGENHARIA_DE_SOFTWARE_116441 -->
<g id="edge14" class="edge">
<title>TECNICAS_DE_PROGRAMAÇÃO_2_117897&#45;&gt;ENGENHARIA_DE_SOFTWARE_116441</title>
<path fill="none" stroke="#000000" d="M235.5151,-7741.8201C235.5151,-7727.7421 235.5151,-7713.5559 235.5151,-7699.5027"/>
<polygon fill="#000000" stroke="#000000" points="239.0152,-7699.2966 235.5151,-7689.2966 232.0152,-7699.2967 239.0152,-7699.2966"/>
<text text-anchor="middle" x="239.0151" y="-7711.3818" font-family="Times,serif" font-size="14.00" fill="#000000">4</text>
</g>
<!-- REDES_DE_COMPUTADORES_116572 -->
<g id="node16" class="node">
<title>REDES_DE_COMPUTADORES_116572</title>
<ellipse fill="none" stroke="#000000" cx="235.5151" cy="-7094.2248" rx="176.5981" ry="176.5981"/>
<text text-anchor="middle" x="235.5151" y="-7090.0248" font-family="Times,serif" font-size="14.00" fill="#000000">REDES_DE_COMPUTADORES_116572</text>
</g>
<!-- ENGENHARIA_DE_SOFTWARE_116441&#45;&gt;REDES_DE_COMPUTADORES_116572 -->
<g id="edge15" class="edge">
<title>ENGENHARIA_DE_SOFTWARE_116441&#45;&gt;REDES_DE_COMPUTADORES_116572</title>
<path fill="none" stroke="#000000" d="M235.5151,-7323.5709C235.5151,-7309.5429 235.5151,-7295.3696 235.5151,-7281.3155"/>
<polygon fill="#000000" stroke="#000000" points="239.0152,-7281.1067 235.5151,-7271.1067 232.0152,-7281.1068 239.0152,-7281.1067"/>
<text text-anchor="middle" x="239.0151" y="-7293.2237" font-family="Times,serif" font-size="14.00" fill="#000000">4</text>
</g>
<!-- SEGURANÇA_COMPUTACIONAL_117927 -->
<g id="node17" class="node">
<title>SEGURANÇA_COMPUTACIONAL_117927</title>
<ellipse fill="none" stroke="#000000" cx="235.5151" cy="-6673.0933" rx="191.5651" ry="191.5651"/>
<text text-anchor="middle" x="235.5151" y="-6668.8933" font-family="Times,serif" font-size="14.00" fill="#000000">SEGURANÇA_COMPUTACIONAL_117927</text>
</g>
<!-- REDES_DE_COMPUTADORES_116572&#45;&gt;SEGURANÇA_COMPUTACIONAL_117927 -->
<g id="edge16" class="edge">
<title>REDES_DE_COMPUTADORES_116572&#45;&gt;SEGURANÇA_COMPUTACIONAL_117927</title>
<path fill="none" stroke="#000000" d="M235.5151,-6917.1526C235.5151,-6903.2151 235.5151,-6889.0766 235.5151,-6874.9899"/>
<polygon fill="#000000" stroke="#000000" points="239.0152,-6874.7454 235.5151,-6864.7454 232.0152,-6874.7455 239.0152,-6874.7454"/>
<text text-anchor="middle" x="239.0151" y="-6886.8258" font-family="Times,serif" font-size="14.00" fill="#000000">4</text>
</g>
<!-- PROJETO_ANÁLISE_DE_ALGORITMOS_117536 -->
<g id="node18" class="node">
<title>PROJETO_ANÁLISE_DE_ALGORITMOS_117536</title>
<ellipse fill="none" stroke="#000000" cx="235.5151" cy="-6212.0178" rx="216.9862" ry="216.9862"/>
<text text-anchor="middle" x="235.5151" y="-6207.8178" font-family="Times,serif" font-size="14.00" fill="#000000">PROJETO_ANÁLISE_DE_ALGORITMOS_117536</text>
</g>
<!-- SEGURANÇA_COMPUTACIONAL_117927&#45;&gt;PROJETO_ANÁLISE_DE_ALGORITMOS_117536 -->
<g id="edge17" class="edge">
<title>SEGURANÇA_COMPUTACIONAL_117927&#45;&gt;PROJETO_ANÁLISE_DE_ALGORITMOS_117536</title>
<path fill="none" stroke="#000000" d="M235.5151,-6481.228C235.5151,-6467.3003 235.5151,-6453.1788 235.5151,-6439.0746"/>
<polygon fill="#000000" stroke="#000000" points="239.0152,-6438.8107 235.5151,-6428.8107 232.0152,-6438.8107 239.0152,-6438.8107"/>
<text text-anchor="middle" x="239.0151" y="-6450.9608" font-family="Times,serif" font-size="14.00" fill="#000000">4</text>
</g>
<!-- ORGANIZAÇÃO_DE_ARQUIVOS_116327 -->
<g id="node19" class="node">
<title>ORGANIZAÇÃO_DE_ARQUIVOS_116327</title>
<ellipse fill="none" stroke="#000000" cx="235.5151" cy="-5756.5907" rx="185.7684" ry="185.7684"/>
<text text-anchor="middle" x="235.5151" y="-5752.3907" font-family="Times,serif" font-size="14.00" fill="#000000">ORGANIZAÇÃO_DE_ARQUIVOS_116327</text>
</g>
<!-- PROJETO_ANÁLISE_DE_ALGORITMOS_117536&#45;&gt;ORGANIZAÇÃO_DE_ARQUIVOS_116327 -->
<g id="edge18" class="edge">
<title>PROJETO_ANÁLISE_DE_ALGORITMOS_117536&#45;&gt;ORGANIZAÇÃO_DE_ARQUIVOS_116327</title>
<path fill="none" stroke="#000000" d="M235.5151,-5994.9749C235.5151,-5980.8717 235.5151,-5966.7138 235.5151,-5952.7182"/>
<polygon fill="#000000" stroke="#000000" points="239.0152,-5952.559 235.5151,-5942.5591 232.0152,-5952.5591 239.0152,-5952.559"/>
<text text-anchor="middle" x="239.0151" y="-5964.6749" font-family="Times,serif" font-size="14.00" fill="#000000">4</text>
</g>
<!-- BANCOS_DE_DADOS_116378 -->
<g id="node20" class="node">
<title>BANCOS_DE_DADOS_116378</title>
<ellipse fill="none" stroke="#000000" cx="235.5151" cy="-5378.1265" rx="139.5603" ry="139.5603"/>
<text text-anchor="middle" x="235.5151" y="-5373.9265" font-family="Times,serif" font-size="14.00" fill="#000000">BANCOS_DE_DADOS_116378</text>
</g>
<!-- ORGANIZAÇÃO_DE_ARQUIVOS_116327&#45;&gt;BANCOS_DE_DADOS_116378 -->
<g id="edge19" class="edge">
<title>ORGANIZAÇÃO_DE_ARQUIVOS_116327&#45;&gt;BANCOS_DE_DADOS_116378</title>
<path fill="none" stroke="#000000" d="M235.5151,-5570.6848C235.5151,-5556.3943 235.5151,-5542.0786 235.5151,-5528.0637"/>
<polygon fill="#000000" stroke="#000000" points="239.0152,-5527.9164 235.5151,-5517.9165 232.0152,-5527.9165 239.0152,-5527.9164"/>
<text text-anchor="middle" x="239.0151" y="-5540.1065" font-family="Times,serif" font-size="14.00" fill="#000000">4</text>
</g>
<!-- LINGUAGENS_DE_PROGRAMACAO_116343 -->
<g id="node21" class="node">
<title>LINGUAGENS_DE_PROGRAMACAO_116343</title>
<ellipse fill="none" stroke="#000000" cx="235.5151" cy="-4980.8719" rx="204.8495" ry="204.8495"/>
<text text-anchor="middle" x="235.5151" y="-4976.6719" font-family="Times,serif" font-size="14.00" fill="#000000">LINGUAGENS_DE_PROGRAMACAO_116343</text>
</g>
<!-- BANCOS_DE_DADOS_116378&#45;&gt;LINGUAGENS_DE_PROGRAMACAO_116343 -->
<g id="edge20" class="edge">
<title>BANCOS_DE_DADOS_116378&#45;&gt;LINGUAGENS_DE_PROGRAMACAO_116343</title>
<path fill="none" stroke="#000000" d="M235.5151,-5238.0694C235.5151,-5224.4081 235.5151,-5210.3409 235.5151,-5196.1596"/>
<polygon fill="#000000" stroke="#000000" points="239.0152,-5195.8174 235.5151,-5185.8175 232.0152,-5195.8175 239.0152,-5195.8174"/>
<text text-anchor="middle" x="239.0151" y="-5207.7465" font-family="Times,serif" font-size="14.00" fill="#000000">4</text>
</g>
<!-- INTRO_INTELIGENCIA_ARTIFICIAL_116653 -->
<g id="node22" class="node">
<title>INTRO_INTELIGENCIA_ARTIFICIAL_116653</title>
<ellipse fill="none" stroke="#000000" cx="235.5151" cy="-4518.2049" rx="205.3847" ry="205.3847"/>
<text text-anchor="middle" x="235.5151" y="-4514.0049" font-family="Times,serif" font-size="14.00" fill="#000000">INTRO_INTELIGENCIA_ARTIFICIAL_116653</text>
</g>
<!-- LINGUAGENS_DE_PROGRAMACAO_116343&#45;&gt;INTRO_INTELIGENCIA_ARTIFICIAL_116653 -->
<g id="edge21" class="edge">
<title>LINGUAGENS_DE_PROGRAMACAO_116343&#45;&gt;INTRO_INTELIGENCIA_ARTIFICIAL_116653</title>
<path fill="none" stroke="#000000" d="M235.5151,-4775.9189C235.5151,-4761.9149 235.5151,-4747.7802 235.5151,-4733.7238"/>
<polygon fill="#000000" stroke="#000000" points="239.0152,-4733.5053 235.5151,-4723.5053 232.0152,-4733.5053 239.0152,-4733.5053"/>
<text text-anchor="middle" x="239.0151" y="-4745.5972" font-family="Times,serif" font-size="14.00" fill="#000000">4</text>
</g>
<!-- INFORMATICA_E_SOCIEDADE_116726 -->
<g id="node23" class="node">
<title>INFORMATICA_E_SOCIEDADE_116726</title>
<ellipse fill="none" stroke="#000000" cx="235.5151" cy="-4078.0657" rx="182.294" ry="182.294"/>
<text text-anchor="middle" x="235.5151" y="-4073.8657" font-family="Times,serif" font-size="14.00" fill="#000000">INFORMATICA_E_SOCIEDADE_116726</text>
</g>
<!-- INTRO_INTELIGENCIA_ARTIFICIAL_116653&#45;&gt;INFORMATICA_E_SOCIEDADE_116726 -->
<g id="edge22" class="edge">
<title>INTRO_INTELIGENCIA_ARTIFICIAL_116653&#45;&gt;INFORMATICA_E_SOCIEDADE_116726</title>
<path fill="none" stroke="#000000" d="M235.5151,-4312.9542C235.5151,-4298.7975 235.5151,-4284.5586 235.5151,-4270.4733"/>
<polygon fill="#000000" stroke="#000000" points="239.0152,-4270.2475 235.5151,-4260.2475 232.0152,-4270.2476 239.0152,-4270.2475"/>
<text text-anchor="middle" x="239.0151" y="-4282.4126" font-family="Times,serif" font-size="14.00" fill="#000000">4</text>
</g>
<!-- COMPUTAÇÃO_EXPERIMENTAL_117943 -->
<g id="node24" class="node">
<title>COMPUTAÇÃO_EXPERIMENTAL_117943</title>
<ellipse fill="none" stroke="#000000" cx="235.5151" cy="-3654.0005" rx="189.2367" ry="189.2367"/>
<text text-anchor="middle" x="235.5151" y="-3649.8005" font-family="Times,serif" font-size="14.00" fill="#000000">COMPUTAÇÃO_EXPERIMENTAL_117943</text>
</g>
<!-- INFORMATICA_E_SOCIEDADE_116726&#45;&gt;COMPUTAÇÃO_EXPERIMENTAL_117943 -->
<g id="edge23" class="edge">
<title>INFORMATICA_E_SOCIEDADE_116726&#45;&gt;COMPUTAÇÃO_EXPERIMENTAL_117943</title>
<path fill="none" stroke="#000000" d="M235.5151,-3895.7628C235.5151,-3881.7632 235.5151,-3867.5872 235.5151,-3853.4855"/>
<polygon fill="#000000" stroke="#000000" points="239.0152,-3853.2339 235.5151,-3843.2339 232.0152,-3853.234 239.0152,-3853.2339"/>
<text text-anchor="middle" x="239.0151" y="-3865.3187" font-family="Times,serif" font-size="14.00" fill="#000000">2</text>
</g>
<!-- CIRCUITOS_LOGICOS_129011 -->
<g id="node25" class="node">
<title>CIRCUITOS_LOGICOS_129011</title>
<ellipse fill="none" stroke="#000000" cx="235.5151" cy="-3269.6204" rx="142.4235" ry="142.4235"/>
<text text-anchor="middle" x="235.5151" y="-3265.4204" font-family="Times,serif" font-size="14.00" fill="#000000">CIRCUITOS_LOGICOS_129011</text>
</g>
<!-- COMPUTAÇÃO_EXPERIMENTAL_117943&#45;&gt;CIRCUITOS_LOGICOS_129011 -->
<g id="edge24" class="edge">
<title>COMPUTAÇÃO_EXPERIMENTAL_117943&#45;&gt;CIRCUITOS_LOGICOS_129011</title>
<path fill="none" stroke="#000000" d="M235.5151,-3464.6256C235.5151,-3450.4442 235.5151,-3436.2423 235.5151,-3422.329"/>
<polygon fill="#000000" stroke="#000000" points="239.0152,-3422.2532 235.5151,-3412.2533 232.0152,-3422.2533 239.0152,-3422.2532"/>
<text text-anchor="middle" x="239.0151" y="-3434.2822" font-family="Times,serif" font-size="14.00" fill="#000000">4</text>
</g>
<!-- ORG_ARQ_DE_COMPUTADORES_116394 -->
<g id="node26" class="node">
<title>ORG_ARQ_DE_COMPUTADORES_116394</title>
<ellipse fill="none" stroke="#000000" cx="235.5151" cy="-2882.5442" rx="191.6292" ry="191.6292"/>
<text text-anchor="middle" x="235.5151" y="-2878.3442" font-family="Times,serif" font-size="14.00" fill="#000000">ORG_ARQ_DE_COMPUTADORES_116394</text>
</g>
<!-- CIRCUITOS_LOGICOS_129011&#45;&gt;ORG_ARQ_DE_COMPUTADORES_116394 -->
<g id="edge25" class="edge">
<title>CIRCUITOS_LOGICOS_129011&#45;&gt;ORG_ARQ_DE_COMPUTADORES_116394</title>
<path fill="none" stroke="#000000" d="M235.5151,-3127.1366C235.5151,-3113.3465 235.5151,-3099.1839 235.5151,-3084.9573"/>
<polygon fill="#000000" stroke="#000000" points="239.0152,-3084.5911 235.5151,-3074.5912 232.0152,-3084.5912 239.0152,-3084.5911"/>
<text text-anchor="middle" x="239.0151" y="-3096.5587" font-family="Times,serif" font-size="14.00" fill="#000000">4</text>
</g>
<!-- SOFTWARE_BASICO_116432 -->
<g id="node27" class="node">
<title>SOFTWARE_BASICO_116432</title>
<ellipse fill="none" stroke="#000000" cx="235.5151" cy="-2500.8256" rx="137.2082" ry="137.2082"/>
<text text-anchor="middle" x="235.5151" y="-2496.6256" font-family="Times,serif" font-size="14.00" fill="#000000">SOFTWARE_BASICO_116432</text>
</g>
<!-- ORG_ARQ_DE_COMPUTADORES_116394&#45;&gt;SOFTWARE_BASICO_116432 -->
<g id="edge26" class="edge">
<title>ORG_ARQ_DE_COMPUTADORES_116394&#45;&gt;SOFTWARE_BASICO_116432</title>
<path fill="none" stroke="#000000" d="M235.5151,-2690.5666C235.5151,-2676.2994 235.5151,-2662.0406 235.5151,-2648.109"/>
<polygon fill="#000000" stroke="#000000" points="239.0152,-2648.027 235.5151,-2638.0271 232.0152,-2648.0271 239.0152,-2648.027"/>
<text text-anchor="middle" x="239.0151" y="-2660.1297" font-family="Times,serif" font-size="14.00" fill="#000000">4</text>
</g>
<!-- SISTEMAS_DE_INFORMACAO_116416 -->
<g id="node28" class="node">
<title>SISTEMAS_DE_INFORMACAO_116416</title>
<ellipse fill="none" stroke="#000000" cx="235.5151" cy="-2131.9798" rx="178.8836" ry="178.8836"/>
<text text-anchor="middle" x="235.5151" y="-2127.7798" font-family="Times,serif" font-size="14.00" fill="#000000">SISTEMAS_DE_INFORMACAO_116416</text>
</g>
<!-- SOFTWARE_BASICO_116432&#45;&gt;SISTEMAS_DE_INFORMACAO_116416 -->
<g id="edge27" class="edge">
<title>SOFTWARE_BASICO_116432&#45;&gt;SISTEMAS_DE_INFORMACAO_116416</title>
<path fill="none" stroke="#000000" d="M235.5151,-2363.481C235.5151,-2349.7189 235.5151,-2335.5818 235.5151,-2321.4054"/>
<polygon fill="#000000" stroke="#000000" points="239.0152,-2321.0805 235.5151,-2311.0805 232.0152,-2321.0806 239.0152,-2321.0805"/>
<text text-anchor="middle" x="239.0151" y="-2333.1216" font-family="Times,serif" font-size="14.00" fill="#000000">4</text>
</g>
<!-- PROGRAMAÇÃO_CONCORRENTE_117935 -->
<g id="node29" class="node">
<title>PROGRAMAÇÃO_CONCORRENTE_117935</title>
<ellipse fill="none" stroke="#000000" cx="235.5151" cy="-1706.2815" rx="193.9129" ry="193.9129"/>
<text text-anchor="middle" x="235.5151" y="-1702.0815" font-family="Times,serif" font-size="14.00" fill="#000000">PROGRAMAÇÃO_CONCORRENTE_117935</text>
</g>
<!-- SISTEMAS_DE_INFORMACAO_116416&#45;&gt;PROGRAMAÇÃO_CONCORRENTE_117935 -->
<g id="edge28" class="edge">
<title>SISTEMAS_DE_INFORMACAO_116416&#45;&gt;PROGRAMAÇÃO_CONCORRENTE_117935</title>
<path fill="none" stroke="#000000" d="M235.5151,-1952.9875C235.5151,-1938.9903 235.5151,-1924.7926 235.5151,-1910.645"/>
<polygon fill="#000000" stroke="#000000" points="239.0152,-1910.3557 235.5151,-1900.3557 232.0152,-1910.3557 239.0152,-1910.3557"/>
<text text-anchor="middle" x="239.0151" y="-1922.438" font-family="Times,serif" font-size="14.00" fill="#000000">4</text>
</g>
<!-- FUNDAMENTOS_SIST_OPERACIONAIS_117960 -->
<g id="node30" class="node">
<title>FUNDAMENTOS_SIST_OPERACIONAIS_117960</title>
<ellipse fill="none" stroke="#000000" cx="235.5151" cy="-1241.4312" rx="218.1879" ry="218.1879"/>
<text text-anchor="middle" x="235.5151" y="-1237.2312" font-family="Times,serif" font-size="14.00" fill="#000000">FUNDAMENTOS_SIST_OPERACIONAIS_117960</text>
</g>
<!-- PROGRAMAÇÃO_CONCORRENTE_117935&#45;&gt;FUNDAMENTOS_SIST_OPERACIONAIS_117960 -->
<g id="edge29" class="edge">
<title>PROGRAMAÇÃO_CONCORRENTE_117935&#45;&gt;FUNDAMENTOS_SIST_OPERACIONAIS_117960</title>
<path fill="none" stroke="#000000" d="M235.5151,-1512.1729C235.5151,-1498.2498 235.5151,-1484.1381 235.5151,-1470.0451"/>
<polygon fill="#000000" stroke="#000000" points="239.0152,-1469.7895 235.5151,-1459.7895 232.0152,-1469.7895 239.0152,-1469.7895"/>
<text text-anchor="middle" x="239.0151" y="-1481.7251" font-family="Times,serif" font-size="14.00" fill="#000000">4</text>
</g>
<!-- ALGEBRA_1_113107 -->
<g id="node31" class="node">
<title>ALGEBRA_1_113107</title>
<ellipse fill="none" stroke="#000000" cx="235.5151" cy="-870.4511" rx="100.1723" ry="100.1723"/>
<text text-anchor="middle" x="235.5151" y="-866.2511" font-family="Times,serif" font-size="14.00" fill="#000000">ALGEBRA_1_113107</text>
</g>
<!-- FUNDAMENTOS_SIST_OPERACIONAIS_117960&#45;&gt;ALGEBRA_1_113107 -->
<g id="edge30" class="edge">
<title>FUNDAMENTOS_SIST_OPERACIONAIS_117960&#45;&gt;ALGEBRA_1_113107</title>
<path fill="none" stroke="#000000" d="M235.5151,-1023.2168C235.5151,-1008.7827 235.5151,-994.6216 235.5151,-981.0982"/>
<polygon fill="#000000" stroke="#000000" points="239.0152,-980.8871 235.5151,-970.8871 232.0152,-980.8872 239.0152,-980.8871"/>
<text text-anchor="middle" x="239.0151" y="-992.7372" font-family="Times,serif" font-size="14.00" fill="#000000">4</text>
</g>
<!-- AUTÔMATOS_E_COMPUTABILIDADE_116882 -->
<g id="node32" class="node">
<title>AUTÔMATOS_E_COMPUTABILIDADE_116882</title>
<ellipse fill="none" stroke="#000000" cx="235.5151" cy="-505.1185" rx="212.3932" ry="212.3932"/>
<text text-anchor="middle" x="235.5151" y="-500.9185" font-family="Times,serif" font-size="14.00" fill="#000000">AUTÔMATOS_E_COMPUTABILIDADE_116882</text>
</g>
<!-- ALGEBRA_1_113107&#45;&gt;AUTÔMATOS_E_COMPUTABILIDADE_116882 -->
<g id="edge31" class="edge">
<title>ALGEBRA_1_113107&#45;&gt;AUTÔMATOS_E_COMPUTABILIDADE_116882</title>
<path fill="none" stroke="#000000" d="M235.5151,-770.1391C235.5151,-756.6662 235.5151,-742.4373 235.5151,-727.8499"/>
<polygon fill="#000000" stroke="#000000" points="239.0152,-727.6985 235.5151,-717.6985 232.0152,-727.6986 239.0152,-727.6985"/>
<text text-anchor="middle" x="239.0151" y="-739.765" font-family="Times,serif" font-size="14.00" fill="#000000">4</text>
</g>
<!-- COMPILADORES_117951 -->
<g id="node33" class="node">
<title>COMPILADORES_117951</title>
<ellipse fill="none" stroke="#000000" cx="235.5151" cy="-119.9359" rx="119.8719" ry="119.8719"/>
<text text-anchor="middle" x="235.5151" y="-115.7359" font-family="Times,serif" font-size="14.00" fill="#000000">COMPILADORES_117951</text>
</g>
<!-- AUTÔMATOS_E_COMPUTABILIDADE_116882&#45;&gt;COMPILADORES_117951 -->
<g id="edge32" class="edge">
<title>AUTÔMATOS_E_COMPUTABILIDADE_116882&#45;&gt;COMPILADORES_117951</title>
<path fill="none" stroke="#000000" d="M235.5151,-292.5291C235.5151,-278.2314 235.5151,-264.0824 235.5151,-250.4018"/>
<polygon fill="#000000" stroke="#000000" points="239.0152,-250.0367 235.5151,-240.0367 232.0152,-250.0368 239.0152,-250.0367"/>
<text text-anchor="middle" x="239.0151" y="-262.0719" font-family="Times,serif" font-size="14.00" fill="#000000">6</text>
</g>
</g>
</svg>
